SplineFontDB: 3.2
FontName: TDATextCondensed
FullName: TDAText Condensed
FamilyName: TDAText Condensed
Weight: Regular
Copyright: Copyright (c) 2024-2025 Dmitry Tretyakov\n\nBased on Philips SAA52XX/SAA55XX/TDA93XX IC character set:\nCopyright (c) 1985-2001 NXP Semiconductors N.V.
Version: 0.1.4.20251022-1400
ItalicAngle: 0
UnderlinePosition: -100
UnderlineWidth: 50
Ascent: 800
Descent: 200
InvalidEm: 0
LayerCount: 2
Layer: 0 1 "+BBcEMAQ0BD0EOAQ5 +BD8EOwQwBD0A" 1
Layer: 1 1 "+BB8ENQRABDUENAQ9BDgEOQAA +BD8EOwQwBD0A" 0
XUID: [1021 189 -1959298516 7444281]
StyleMap: 0x0000
FSType: 0
OS2Version: 4
OS2_WeightWidthSlopeOnly: 0
OS2_UseTypoMetrics: 1
CreationTime: 1720191932
ModificationTime: 1761132633
PfmFamily: 17
TTFWeight: 400
TTFWidth: 5
LineGap: 90
VLineGap: 0
Panose: 2 0 5 3 0 0 0 0 0 0
OS2TypoAscent: 800
OS2TypoAOffset: 0
OS2TypoDescent: -200
OS2TypoDOffset: 0
OS2TypoLinegap: 90
OS2WinAscent: 800
OS2WinAOffset: 0
OS2WinDescent: 200
OS2WinDOffset: 0
HheadAscent: 800
HheadAOffset: 0
HheadDescent: -200
HheadDOffset: 0
OS2SubXSize: 650
OS2SubYSize: 700
OS2SubXOff: 0
OS2SubYOff: 140
OS2SupXSize: 650
OS2SupYSize: 700
OS2SupXOff: 0
OS2SupYOff: 480
OS2StrikeYSize: 49
OS2StrikeYPos: 258
OS2CapHeight: 700
OS2XHeight: 500
OS2Vendor: 'PfEd'
OS2CodePages: 00000004.c2960000
OS2UnicodeRanges: 8000028f.1200f8ea.00000020.00000000
MarkAttachClasses: 1
DEI: 91125
ShortTable: maxp 16
  1
  0
  604
  240
  60
  0
  0
  2
  0
  1
  1
  0
  64
  0
  0
  0
EndShort

StartChar: exclam
Encoding: 33 33 4
Width: 450
GlyphClass: 2
Flags: W
LayerCount: 2
Back
Fore
SplineSet
188 700 m 1,0,1
 262 700 l 1,2,3
 262 200 l 1,4,5
 188 200 l 1,6,7
 188 700 l 1,0,1
262 0 m 1,8,9
 188 0 l 1,10,11
 188 100 l 1,12,13
 262 100 l 1,14,15
 262 0 l 1,8,9
EndSplineSet
Validated: 1
EndChar

StartChar: quotedbl
Encoding: 34 34 5
Width: 450
GlyphClass: 2
Flags: W
LayerCount: 2
Back
Fore
SplineSet
262 500 m 1,0,1
 262 700 l 1,2,3
 338 700 l 1,4,5
 338 500 l 1,6,7
 262 500 l 1,0,1
112 500 m 1,8,9
 112 700 l 1,10,11
 188 700 l 1,12,13
 188 500 l 1,14,15
 112 500 l 1,8,9
EndSplineSet
Validated: 1
EndChar

StartChar: numbersign
Encoding: 35 35 6
Width: 450
GlyphClass: 2
Flags: W
LayerCount: 2
Back
Fore
SplineSet
188 300 m 1,0,1
 262 300 l 1,2,3
 262 400 l 1,4,5
 188 400 l 1,6,7
 188 300 l 1,0,1
112 700 m 1,8,9
 188 700 l 1,10,11
 188 500 l 1,12,13
 262 500 l 1,14,15
 262 700 l 1,16,17
 338 700 l 1,18,19
 338 500 l 1,20,21
 412 500 l 1,22,23
 412 400 l 1,24,25
 338 400 l 1,26,27
 338 300 l 1,28,29
 412 300 l 1,30,31
 412 200 l 1,32,33
 338 200 l 1,34,35
 338 0 l 1,36,37
 262 0 l 1,38,39
 262 200 l 1,40,41
 188 200 l 1,42,43
 188 0 l 1,44,45
 112 0 l 1,46,47
 112 200 l 1,48,49
 38 200 l 1,50,51
 38 300 l 1,52,53
 112 300 l 1,54,55
 112 400 l 1,56,57
 38 400 l 1,58,59
 38 500 l 1,60,61
 112 500 l 1,62,63
 112 700 l 1,8,9
EndSplineSet
Validated: 1
EndChar

StartChar: dollar
Encoding: 36 36 7
Width: 450
GlyphClass: 2
Flags: W
LayerCount: 2
Back
Fore
SplineSet
338 100 m 1,0,1
 338 300 l 1,2,3
 262 300 l 1,4,5
 262 100 l 1,6,7
 338 100 l 1,0,1
188 600 m 1,8,9
 112 600 l 1,10,11
 112 400 l 1,12,13
 188 400 l 1,14,15
 188 600 l 1,8,9
262 800 m 1,16,17
 262 700 l 1,18,19
 375 700 l 1,20,21
 375 600 l 1,22,23
 412 600 l 1,24,25
 412 500 l 1,26,27
 338 500 l 1,28,29
 338 600 l 1,30,31
 262 600 l 1,32,33
 262 400 l 1,34,35
 375 400 l 1,36,37
 375 300 l 1,38,39
 412 300 l 1,40,41
 412 100 l 1,42,43
 375 100 l 1,44,45
 375 0 l 1,46,47
 262 0 l 1,48,49
 262 -100 l 1,50,51
 188 -100 l 1,52,53
 188 0 l 1,54,55
 75 0 l 1,56,57
 75 100 l 1,58,59
 38 100 l 1,60,61
 38 200 l 1,62,63
 112 200 l 1,64,65
 112 100 l 1,66,67
 188 100 l 1,68,69
 188 300 l 1,70,71
 75 300 l 1,72,73
 75 400 l 1,74,75
 38 400 l 1,76,77
 38 600 l 1,78,79
 75 600 l 1,80,81
 75 700 l 1,82,83
 188 700 l 1,84,85
 188 800 l 1,86,87
 262 800 l 1,16,17
EndSplineSet
Validated: 1
EndChar

StartChar: percent
Encoding: 37 37 8
Width: 450
GlyphClass: 2
Flags: W
LayerCount: 2
Back
Fore
SplineSet
300 700 m 1,0,1
 375 700 l 1,2,3
 375 600 l 1,4,5
 338 600 l 1,6,7
 338 500 l 1,8,9
 300 500 l 1,10,11
 300 400 l 1,12,13
 262 400 l 1,14,15
 262 300 l 1,16,17
 225 300 l 1,18,19
 225 200 l 1,20,21
 188 200 l 1,22,23
 188 100 l 1,24,25
 150 100 l 1,26,27
 150 0 l 1,28,29
 75 0 l 1,30,31
 75 100 l 1,32,33
 112 100 l 1,34,35
 112 200 l 1,36,37
 150 200 l 1,38,39
 150 300 l 1,40,41
 188 300 l 1,42,43
 188 400 l 1,44,45
 225 400 l 1,46,47
 225 500 l 1,48,49
 262 500 l 1,50,51
 262 600 l 1,52,53
 300 600 l 1,54,55
 300 700 l 1,0,1
338 100 m 1,56,57
 375 100 l 1,58,59
 375 200 l 1,60,61
 338 200 l 1,62,63
 338 100 l 1,56,57
300 300 m 1,64,65
 412 300 l 1,66,67
 412 200 l 1,68,69
 450 200 l 1,70,71
 450 100 l 1,72,73
 412 100 l 1,74,75
 412 0 l 1,76,77
 300 0 l 1,78,79
 300 100 l 1,80,81
 262 100 l 1,82,83
 262 200 l 1,84,85
 300 200 l 1,86,87
 300 300 l 1,64,65
75 600 m 1,88,89
 75 500 l 1,90,91
 112 500 l 1,92,93
 112 600 l 1,94,95
 75 600 l 1,88,89
0 600 m 1,96,97
 38 600 l 1,98,99
 38 700 l 1,100,101
 150 700 l 1,102,103
 150 600 l 1,104,105
 188 600 l 1,106,107
 188 500 l 1,108,109
 150 500 l 1,110,111
 150 400 l 1,112,113
 38 400 l 1,114,115
 38 500 l 1,116,117
 0 500 l 1,118,119
 0 600 l 1,96,97
EndSplineSet
Validated: 1
EndChar

StartChar: ampersand
Encoding: 38 38 9
Width: 450
GlyphClass: 2
Flags: W
LayerCount: 2
Back
Fore
SplineSet
156 300 m 1,0,1
 156 200 l 1,2,3
 119 200 l 1,4,5
 119 100 l 1,6,7
 269 100 l 1,8,9
 269 200 l 1,10,11
 231 200 l 1,12,13
 231 300 l 1,14,15
 156 300 l 1,0,1
156 600 m 1,16,17
 156 400 l 1,18,19
 231 400 l 1,20,21
 231 600 l 1,22,23
 156 600 l 1,16,17
119 700 m 1,24,25
 269 700 l 1,26,27
 269 600 l 1,28,29
 306 600 l 1,30,31
 306 400 l 1,32,33
 269 400 l 1,34,35
 269 300 l 1,36,37
 306 300 l 1,38,39
 306 200 l 1,40,41
 344 200 l 1,42,43
 344 300 l 1,44,45
 419 300 l 1,46,47
 419 200 l 1,48,49
 381 200 l 1,50,51
 381 100 l 1,52,53
 456 100 l 1,54,55
 456 0 l 1,56,57
 344 0 l 1,58,59
 344 100 l 1,60,61
 306 100 l 1,62,63
 306 0 l 1,64,65
 81 0 l 1,66,67
 81 100 l 1,68,69
 44 100 l 1,70,71
 44 200 l 1,72,73
 81 200 l 1,74,75
 81 300 l 1,76,77
 119 300 l 1,78,79
 119 400 l 1,80,81
 81 400 l 1,82,83
 81 600 l 1,84,85
 119 600 l 1,86,87
 119 700 l 1,24,25
EndSplineSet
Validated: 1
EndChar

StartChar: quotesingle
Encoding: 39 39 10
Width: 450
GlyphClass: 2
Flags: W
LayerCount: 2
Back
Fore
SplineSet
188 700 m 1,0,1
 262 700 l 1,2,3
 262 500 l 1,4,5
 188 500 l 1,6,7
 188 700 l 1,0,1
EndSplineSet
Validated: 1
EndChar

StartChar: parenleft
Encoding: 40 40 11
Width: 450
GlyphClass: 2
Flags: W
LayerCount: 2
Back
Fore
SplineSet
181 600 m 1,0,1
 181 700 l 1,2,3
 294 700 l 1,4,5
 294 600 l 1,6,7
 219 600 l 1,8,9
 219 500 l 1,10,11
 181 500 l 1,12,13
 181 200 l 1,14,15
 219 200 l 1,16,17
 219 100 l 1,18,19
 294 100 l 1,20,21
 294 0 l 1,22,23
 181 0 l 1,24,25
 181 100 l 1,26,27
 144 100 l 1,28,29
 144 200 l 1,30,31
 106 200 l 1,32,33
 106 500 l 1,34,35
 144 500 l 1,36,37
 144 600 l 1,38,39
 181 600 l 1,0,1
EndSplineSet
Validated: 1
EndChar

StartChar: parenright
Encoding: 41 41 12
Width: 450
GlyphClass: 2
Flags: W
LayerCount: 2
Back
Fore
SplineSet
156 700 m 1,0,1
 269 700 l 1,2,3
 269 600 l 1,4,5
 306 600 l 1,6,7
 306 500 l 1,8,9
 344 500 l 1,10,11
 344 200 l 1,12,13
 306 200 l 1,14,15
 306 100 l 1,16,17
 269 100 l 1,18,19
 269 0 l 1,20,21
 156 0 l 1,22,23
 156 100 l 1,24,25
 231 100 l 1,26,27
 231 200 l 1,28,29
 269 200 l 1,30,31
 269 500 l 1,32,33
 231 500 l 1,34,35
 231 600 l 1,36,37
 156 600 l 1,38,39
 156 700 l 1,0,1
EndSplineSet
Validated: 1
EndChar

StartChar: asterisk
Encoding: 42 42 13
Width: 450
GlyphClass: 2
Flags: W
LayerCount: 2
Back
Fore
SplineSet
38 600 m 1,0,1
 112 600 l 1,2,3
 112 500 l 1,4,5
 149 500 l 1,6,7
 149 484 149 484 149.5 450 c 0
 150 416 150 416 150 400 c 1,8,9
 188 400 l 1,10,11
 188 700 l 1,12,13
 262 700 l 1,14,15
 262 400 l 1,16,17
 300 400 l 1,18,19
 300 500 l 1,20,21
 338 500 l 1,22,23
 338 600 l 1,24,25
 412 600 l 1,26,27
 412 500 l 1,28,29
 375 500 l 1,30,31
 375 400 l 1,32,33
 338 400 l 1,34,35
 338 300 l 1,36,37
 375 300 l 1,38,39
 375 200 l 1,40,41
 412 200 l 1,42,43
 412 100 l 1,44,45
 338 100 l 1,46,47
 338 200 l 1,48,49
 300 200 l 1,50,51
 300 300 l 1,52,53
 262 300 l 1,54,55
 262 0 l 1,56,57
 188 0 l 1,58,59
 188 300 l 1,60,61
 150 300 l 1,62,63
 150 200 l 1,64,65
 112 200 l 1,66,67
 112 100 l 1,68,69
 38 100 l 1,70,71
 38 200 l 1,72,73
 75 200 l 1,74,75
 75 300 l 1,76,77
 112 300 l 1,78,79
 112 400 l 1,80,81
 75 400 l 1,82,83
 75 500 l 1,84,85
 38 500 l 1,86,87
 38 600 l 1,0,1
EndSplineSet
Validated: 1
EndChar

StartChar: plus
Encoding: 43 43 14
Width: 450
GlyphClass: 2
Flags: W
LayerCount: 2
Back
Fore
SplineSet
188 550 m 1,0,1
 262 550 l 1,2,3
 262 350 l 1,4,5
 375 350 l 1,6,7
 375 250 l 1,8,9
 262 250 l 1,10,11
 262 50 l 1,12,13
 188 50 l 1,14,15
 188 250 l 1,16,17
 75 250 l 1,18,19
 75 350 l 1,20,21
 188 350 l 1,22,23
 188 550 l 1,0,1
EndSplineSet
Validated: 1
EndChar

StartChar: comma
Encoding: 44 44 15
Width: 450
GlyphClass: 2
Flags: W
LayerCount: 2
Back
Fore
SplineSet
143 -100 m 1,0,1
 180 -100 l 1,2,3
 180 0 l 1,4,5
 143 0 l 1,6,7
 143 100 l 1,8,9
 255 100 l 1,10,11
 255 -100 l 1,12,13
 218 -100 l 1,14,15
 218 -200 l 1,16,17
 143 -200 l 1,18,19
 143 -100 l 1,0,1
EndSplineSet
Validated: 1
EndChar

StartChar: hyphen
Encoding: 45 45 16
Width: 450
GlyphClass: 2
Flags: W
LayerCount: 2
Back
Fore
SplineSet
75 250 m 1,0,1
 75 350 l 1,2,3
 375 350 l 1,4,5
 375 250 l 1,6,7
 75 250 l 1,0,1
EndSplineSet
Validated: 1
EndChar

StartChar: period
Encoding: 46 46 17
Width: 450
GlyphClass: 2
Flags: W
LayerCount: 2
Back
Fore
SplineSet
262 0 m 1,0,1
 188 0 l 1,2,3
 188 100 l 1,4,5
 262 100 l 1,6,7
 262 0 l 1,0,1
EndSplineSet
Validated: 1
EndChar

StartChar: slash
Encoding: 47 47 18
Width: 450
GlyphClass: 2
Flags: W
LayerCount: 2
Back
Fore
SplineSet
300 700 m 1,0,1
 375 700 l 1,2,3
 375 600 l 1,4,5
 338 600 l 1,6,7
 338 500 l 1,8,9
 300 500 l 1,10,11
 300 400 l 1,12,13
 262 400 l 1,14,15
 262 300 l 1,16,17
 225 300 l 1,18,19
 225 200 l 1,20,21
 188 200 l 1,22,23
 188 100 l 1,24,25
 150 100 l 1,26,27
 150 0 l 1,28,29
 75 0 l 1,30,31
 75 100 l 1,32,33
 112 100 l 1,34,35
 112 200 l 1,36,37
 150 200 l 1,38,39
 150 300 l 1,40,41
 188 300 l 1,42,43
 188 400 l 1,44,45
 225 400 l 1,46,47
 225 500 l 1,48,49
 262 500 l 1,50,51
 262 600 l 1,52,53
 300 600 l 1,54,55
 300 700 l 1,0,1
EndSplineSet
Validated: 1
EndChar

StartChar: zero
Encoding: 48 48 19
Width: 450
GlyphClass: 2
Flags: W
LayerCount: 2
Back
Fore
SplineSet
306 600 m 1,0,1
 194 600 l 1,2,3
 194 100 l 1,4,5
 306 100 l 1,6,7
 306 600 l 1,0,1
119 700 m 1,8,9
 381 700 l 1,10,11
 381 600 l 1,12,13
 419 600 l 1,14,15
 419 100 l 1,16,17
 381 100 l 1,18,19
 381 0 l 1,20,21
 119 0 l 1,22,23
 119 100 l 1,24,25
 81 100 l 1,26,27
 81 600 l 1,28,29
 119 600 l 1,30,31
 119 700 l 1,8,9
EndSplineSet
Validated: 1
EndChar

StartChar: one
Encoding: 49 49 20
Width: 450
GlyphClass: 2
Flags: W
LayerCount: 2
Back
Fore
SplineSet
156 500 m 1,0,1
 156 600 l 1,2,3
 231 600 l 1,4,5
 231 700 l 1,6,7
 344 700 l 1,8,9
 344 0 l 1,10,11
 231 0 l 1,12,13
 231 500 l 1,14,15
 156 500 l 1,0,1
EndSplineSet
Validated: 1
EndChar

StartChar: two
Encoding: 50 50 21
Width: 450
GlyphClass: 2
Flags: W
LayerCount: 2
Back
Fore
SplineSet
156 500 m 1,0,1
 81 500 l 1,2,3
 81 600 l 1,4,5
 119 600 l 1,6,7
 119 700 l 1,8,9
 381 700 l 1,10,11
 381 600 l 1,12,13
 419 600 l 1,14,15
 419 400 l 1,16,17
 381 400 l 1,18,19
 381 300 l 1,20,21
 344 300 l 1,22,23
 344 200 l 1,24,25
 269 200 l 1,26,27
 269 100 l 1,28,29
 419 100 l 1,30,31
 419 0 l 1,32,33
 81 0 l 1,34,35
 81 100 l 1,36,37
 119 100 l 1,38,39
 119 200 l 1,40,41
 194 200 l 1,42,43
 194 300 l 1,44,45
 269 300 l 1,46,47
 269 400 l 1,48,49
 306 400 l 1,50,51
 306 600 l 1,52,53
 156 600 l 1,54,55
 156 500 l 1,0,1
EndSplineSet
Validated: 1
EndChar

StartChar: three
Encoding: 51 51 22
Width: 450
GlyphClass: 2
Flags: W
LayerCount: 2
Back
Fore
SplineSet
81 700 m 1,0,1
 419 700 l 1,2,3
 419 600 l 1,4,5
 381 600 l 1,6,7
 381 500 l 1,8,9
 344 500 l 1,10,11
 344 400 l 1,12,13
 419 400 l 1,14,15
 419 100 l 1,16,17
 381 100 l 1,18,19
 381 0 l 1,20,21
 81 0 l 1,22,23
 81 100 l 1,24,25
 344 100 l 1,26,27
 344 300 l 1,28,29
 194 300 l 1,30,31
 194 400 l 1,32,33
 269 400 l 1,34,35
 269 500 l 1,36,37
 306 500 l 1,38,39
 306 600 l 1,40,41
 268 600 268 600 193 600.5 c 0
 118 601 118 601 81 601 c 1,42,43
 81 700 l 1,0,1
EndSplineSet
Validated: 1
EndChar

StartChar: four
Encoding: 52 52 23
Width: 450
GlyphClass: 2
Flags: W
LayerCount: 2
Back
Fore
SplineSet
306 700 m 1,0,1
 419 700 l 1,2,3
 419 600 l 1,4,5
 381 600 l 1,6,7
 381 500 l 1,8,9
 306 500 l 1,10,11
 306 400 l 1,12,13
 231 400 l 1,14,15
 231 300 l 1,16,17
 194 300 l 1,18,19
 194 200 l 1,20,21
 306 200 l 1,22,23
 306 300 l 1,24,25
 419 300 l 1,26,27
 419 0 l 1,28,29
 306 0 l 1,30,31
 306 100 l 1,32,33
 81 100 l 1,34,35
 81 300 l 1,36,37
 119 300 l 1,38,39
 119 400 l 1,40,41
 194 400 l 1,42,43
 194 500 l 1,44,45
 231 500 l 1,46,47
 231 600 l 1,48,49
 306 600 l 1,50,51
 306 700 l 1,0,1
EndSplineSet
Validated: 1
EndChar

StartChar: five
Encoding: 53 53 24
Width: 450
GlyphClass: 2
Flags: W
LayerCount: 2
Back
Fore
SplineSet
381 700 m 1,0,1
 381 600 l 1,2,3
 156 600 l 1,4,5
 156 400 l 1,6,7
 381 400 l 1,8,9
 381 300 l 1,10,11
 419 300 l 1,12,13
 419 100 l 1,14,15
 381 100 l 1,16,17
 381 0 l 1,18,19
 119 0 l 1,20,21
 119 100 l 1,22,23
 81 100 l 1,24,25
 81 200 l 1,26,27
 156 200 l 1,28,29
 156 100 l 1,30,31
 306 100 l 1,32,33
 306 300 l 1,34,35
 81 300 l 1,36,37
 81 700 l 1,38,39
 381 700 l 1,0,1
EndSplineSet
Validated: 1
EndChar

StartChar: six
Encoding: 54 54 25
Width: 450
GlyphClass: 2
Flags: W
LayerCount: 2
Back
Fore
SplineSet
344 300 m 1,0,1
 193 300 l 1,2,3
 193 100 l 1,4,5
 344 100 l 1,6,7
 344 300 l 1,0,1
306 700 m 1,8,9
 306 600 l 1,10,11
 269 600 l 1,12,13
 269 500 l 1,14,15
 231 500 l 1,16,17
 231 400 l 1,18,19
 381 400 l 1,20,21
 381 300 l 1,22,23
 419 300 l 1,24,25
 419 100 l 1,26,27
 381 100 l 1,28,29
 381 0 l 1,30,31
 119 0 l 1,32,33
 119 100 l 1,34,35
 81 100 l 1,36,37
 81 400 l 1,38,39
 119 400 l 1,40,41
 119 500 l 1,42,43
 156 500 l 1,44,45
 156 600 l 1,46,47
 194 600 l 1,48,49
 194 700 l 1,50,51
 306 700 l 1,8,9
EndSplineSet
Validated: 1
EndChar

StartChar: seven
Encoding: 55 55 26
Width: 450
GlyphClass: 2
Flags: W
LayerCount: 2
Back
Fore
SplineSet
38 700 m 1,0,1
 412 700 l 1,2,3
 412 600 l 1,4,5
 375 600 l 1,6,7
 375 500 l 1,8,9
 338 500 l 1,10,11
 338 400 l 1,12,13
 300 400 l 1,14,15
 300 300 l 1,16,17
 262 300 l 1,18,19
 262 200 l 1,20,21
 225 200 l 1,22,23
 225 100 l 1,24,25
 188 100 l 1,26,27
 188 0 l 1,28,29
 75 0 l 1,30,31
 75 100 l 1,32,33
 112 100 l 1,34,35
 112 200 l 1,36,37
 150 200 l 1,38,39
 150 300 l 1,40,41
 188 300 l 1,42,43
 188 400 l 1,44,45
 225 400 l 1,46,47
 225 500 l 1,48,49
 262 500 l 1,50,51
 262 600 l 1,52,53
 38 600 l 1,54,55
 38 700 l 1,0,1
EndSplineSet
Validated: 1
EndChar

StartChar: eight
Encoding: 56 56 27
Width: 450
GlyphClass: 2
Flags: W
LayerCount: 2
Back
Fore
SplineSet
194 100 m 1,0,1
 306 100 l 1,2,3
 306 300 l 1,4,5
 194 300 l 1,6,7
 194 100 l 1,0,1
194 600 m 1,8,9
 194 400 l 1,10,11
 306 400 l 1,12,13
 306 600 l 1,14,15
 194 600 l 1,8,9
119 700 m 1,16,17
 381 700 l 1,18,19
 381 600 l 1,20,21
 419 600 l 1,22,23
 419 400 l 1,24,25
 344 400 l 1,26,27
 344 300 l 1,28,29
 419 300 l 1,30,31
 419 100 l 1,32,33
 381 100 l 1,34,35
 381 0 l 1,36,37
 119 0 l 1,38,39
 119 100 l 1,40,41
 81 100 l 1,42,43
 81 300 l 1,44,45
 156 300 l 1,46,47
 156 400 l 1,48,49
 81 400 l 1,50,51
 81 600 l 1,52,53
 119 600 l 1,54,55
 119 700 l 1,16,17
EndSplineSet
Validated: 1
EndChar

StartChar: nine
Encoding: 57 57 28
Width: 450
GlyphClass: 2
Flags: W
LayerCount: 2
Back
Fore
SplineSet
156 600 m 1,0,1
 156 400 l 1,2,3
 306 400 l 1,4,5
 306 600 l 1,6,7
 156 600 l 1,0,1
119 600 m 1,8,9
 119 700 l 1,10,11
 381 700 l 1,12,13
 381 600 l 1,14,15
 419 600 l 1,16,17
 419 300 l 1,18,19
 380 300 l 1,20,21
 380 284 380 284 380.5 250 c 0
 381 216 381 216 381 200 c 1,22,23
 344 200 l 1,24,25
 344 100 l 1,26,27
 306 100 l 1,28,29
 306 0 l 1,30,31
 194 0 l 1,32,33
 194 100 l 1,34,35
 231 100 l 1,36,37
 231 200 l 1,38,39
 269 200 l 1,40,41
 269 300 l 1,42,43
 119 300 l 1,44,45
 119 400 l 1,46,47
 81 400 l 1,48,49
 81 600 l 1,50,51
 119 600 l 1,8,9
EndSplineSet
Validated: 1
EndChar

StartChar: colon
Encoding: 58 58 29
Width: 450
GlyphClass: 2
Flags: W
LayerCount: 2
Back
Fore
SplineSet
188 200 m 1,0,1
 262 200 l 1,2,3
 262 0 l 1,4,5
 188 0 l 1,6,7
 188 200 l 1,0,1
188 500 m 1,8,9
 262 500 l 1,10,11
 262 300 l 1,12,13
 188 300 l 1,14,15
 188 500 l 1,8,9
EndSplineSet
Validated: 1
EndChar

StartChar: semicolon
Encoding: 59 59 30
Width: 450
GlyphClass: 2
Flags: W
LayerCount: 2
Back
Fore
SplineSet
181 100 m 1,0,1
 256 100 l 1,2,3
 256 -100 l 1,4,5
 219 -100 l 1,6,7
 219 -200 l 1,8,9
 144 -200 l 1,10,11
 144 -100 l 1,12,13
 181 -100 l 1,14,15
 181 100 l 1,0,1
181 500 m 1,16,17
 256 500 l 1,18,19
 256 300 l 1,20,21
 181 300 l 1,22,23
 181 500 l 1,16,17
EndSplineSet
Validated: 1
EndChar

StartChar: less
Encoding: 60 60 31
Width: 450
GlyphClass: 2
Flags: W
LayerCount: 2
Back
Fore
SplineSet
306 700 m 1,0,1
 419 700 l 1,2,3
 419 600 l 1,4,5
 344 600 l 1,6,7
 344 500 l 1,8,9
 269 500 l 1,10,11
 269 400 l 1,12,13
 194 400 l 1,14,15
 194 300 l 1,16,17
 269 300 l 1,18,19
 269 200 l 1,20,21
 344 200 l 1,22,23
 344 100 l 1,24,25
 419 100 l 1,26,27
 419 0 l 1,28,29
 306 0 l 1,30,31
 306 100 l 1,32,33
 231 100 l 1,34,35
 231 200 l 1,36,37
 156 200 l 1,38,39
 156 300 l 1,40,41
 81 300 l 1,42,43
 81 400 l 1,44,45
 156 400 l 1,46,47
 156 500 l 1,48,49
 231 500 l 1,50,51
 231 600 l 1,52,53
 306 600 l 1,54,55
 306 700 l 1,0,1
EndSplineSet
Validated: 1
EndChar

StartChar: equal
Encoding: 61 61 32
Width: 450
GlyphClass: 2
Flags: W
LayerCount: 2
Back
Fore
SplineSet
75 500 m 1,0,1
 375 500 l 1,2,3
 375 400 l 1,4,5
 75 400 l 1,6,7
 75 500 l 1,0,1
75 300 m 1,8,9
 375 300 l 1,10,11
 375 200 l 1,12,13
 75 200 l 1,14,15
 75 300 l 1,8,9
EndSplineSet
Validated: 1
EndChar

StartChar: greater
Encoding: 62 62 33
Width: 450
GlyphClass: 2
Flags: W
LayerCount: 2
Back
Fore
SplineSet
81 600 m 1,0,1
 81 700 l 1,2,3
 194 700 l 1,4,5
 194 600 l 1,6,7
 269 600 l 1,8,9
 269 500 l 1,10,11
 344 500 l 1,12,13
 344 400 l 1,14,15
 419 400 l 1,16,17
 419 300 l 1,18,19
 344 300 l 1,20,21
 344 200 l 1,22,23
 269 200 l 1,24,25
 269 100 l 1,26,27
 194 100 l 1,28,29
 194 0 l 1,30,31
 81 0 l 1,32,33
 81 100 l 1,34,35
 156 100 l 1,36,37
 156 200 l 1,38,39
 231 200 l 1,40,41
 231 300 l 1,42,43
 306 300 l 1,44,45
 306 400 l 1,46,47
 231 400 l 1,48,49
 231 500 l 1,50,51
 156 500 l 1,52,53
 156 600 l 1,54,55
 81 600 l 1,0,1
EndSplineSet
Validated: 1
EndChar

StartChar: question
Encoding: 63 63 34
Width: 450
GlyphClass: 2
Flags: W
LayerCount: 2
Back
Fore
SplineSet
231 300 m 1,0,1
 306 300 l 1,2,3
 306 200 l 1,4,5
 231 200 l 1,6,7
 231 300 l 1,0,1
306 0 m 1,8,9
 231 0 l 1,10,11
 231 100 l 1,12,13
 306 100 l 1,14,15
 306 0 l 1,8,9
81 600 m 1,16,17
 119 600 l 1,18,19
 119 700 l 1,20,21
 381 700 l 1,22,23
 381 600 l 1,24,25
 419 600 l 1,26,27
 419 400 l 1,28,29
 380 400 l 1,30,31
 380 384 380 384 380.5 350 c 0
 381 316 381 316 381 300 c 1,32,33
 306 300 l 1,34,35
 306 400 l 1,36,37
 344 400 l 1,38,39
 344 600 l 1,40,41
 156 600 l 1,42,43
 156 400 l 1,44,45
 81 400 l 1,46,47
 81 600 l 1,16,17
EndSplineSet
Validated: 5
EndChar

StartChar: at
Encoding: 64 64 35
Width: 450
GlyphClass: 2
Flags: W
LayerCount: 2
Back
Fore
SplineSet
262 400 m 1,0,1
 262 200 l 1,2,3
 338 200 l 1,4,5
 338 400 l 1,6,7
 262 400 l 1,0,1
112 600 m 1,8,9
 112 700 l 1,10,11
 375 700 l 1,12,13
 375 600 l 1,14,15
 412 600 l 1,16,17
 412 100 l 1,18,19
 225 100 l 1,20,21
 225 200 l 1,22,23
 188 200 l 1,24,25
 188 400 l 1,26,27
 225 400 l 1,28,29
 225 500 l 1,30,31
 338 500 l 1,32,33
 338 600 l 1,34,35
 150 600 l 1,36,37
 150 500 l 1,38,39
 112 500 l 1,40,41
 112 100 l 1,42,43
 150 100 l 1,44,45
 150 0 l 1,46,47
 375 0 l 1,48,49
 375 -100 l 1,50,51
 112 -100 l 1,52,53
 112 0 l 1,54,55
 75 0 l 1,56,57
 75 100 l 1,58,59
 38 100 l 1,60,61
 38 500 l 1,62,63
 75 500 l 1,64,65
 75 600 l 1,66,67
 112 600 l 1,8,9
EndSplineSet
Validated: 1
EndChar

StartChar: A
Encoding: 65 65 36
Width: 450
GlyphClass: 2
Flags: W
LayerCount: 2
Back
Fore
SplineSet
112 400 m 1,0,1
 112 300 l 1,2,3
 338 300 l 1,4,5
 338 400 l 1,6,7
 300 400 l 1,8,9
 300 500 l 1,10,11
 262 500 l 1,12,13
 262 600 l 1,14,15
 188 600 l 1,16,17
 188 500 l 1,18,19
 150 500 l 1,20,21
 150 400 l 1,22,23
 112 400 l 1,0,1
112 0 m 1,24,25
 38 0 l 1,26,27
 38 400 l 1,28,29
 75 400 l 1,30,31
 75 500 l 1,32,33
 112 500 l 1,34,35
 112 600 l 1,36,37
 150 600 l 1,38,39
 150 700 l 1,40,41
 299 700 l 1,42,43
 299 684 299 684 299.5 650 c 0
 300 616 300 616 300 600 c 1,44,45
 338 600 l 1,46,47
 338 500 l 1,48,49
 375 500 l 1,50,51
 375 400 l 1,52,53
 412 400 l 1,54,55
 412 0 l 1,56,57
 338 0 l 1,58,59
 338 200 l 1,60,61
 112 200 l 1,62,63
 112 0 l 1,24,25
EndSplineSet
Validated: 1
EndChar

StartChar: B
Encoding: 66 66 37
Width: 450
GlyphClass: 2
Flags: W
LayerCount: 2
Back
Fore
SplineSet
156 600 m 1,0,1
 156 400 l 1,2,3
 344 400 l 1,4,5
 344 600 l 1,6,7
 156 600 l 1,0,1
156 300 m 1,8,9
 156 100 l 1,10,11
 344 100 l 1,12,13
 344 300 l 1,14,15
 156 300 l 1,8,9
81 0 m 1,16,17
 81 700 l 1,18,19
 381 700 l 1,20,21
 381 600 l 1,22,23
 419 600 l 1,24,25
 419 400 l 1,26,27
 381 400 l 1,28,29
 381 300 l 1,30,31
 419 300 l 1,32,33
 419 100 l 1,34,35
 381 100 l 1,36,37
 381 0 l 1,38,39
 81 0 l 1,16,17
EndSplineSet
Validated: 1
EndChar

StartChar: C
Encoding: 67 67 38
Width: 450
GlyphClass: 2
Flags: W
LayerCount: 2
Back
Fore
SplineSet
156 700 m 1,0,1
 381 700 l 1,2,3
 381 600 l 1,4,5
 419 600 l 1,6,7
 419 500 l 1,8,9
 344 500 l 1,10,11
 344 600 l 1,12,13
 194 600 l 1,14,15
 194 500 l 1,16,17
 156 500 l 1,18,19
 156 200 l 1,20,21
 194 200 l 1,22,23
 194 100 l 1,24,25
 344 100 l 1,26,27
 344 200 l 1,28,29
 419 200 l 1,30,31
 419 100 l 1,32,33
 381 100 l 1,34,35
 381 0 l 1,36,37
 156 0 l 1,38,39
 156 100 l 1,40,41
 119 100 l 1,42,43
 119 200 l 1,44,45
 81 200 l 1,46,47
 81 500 l 1,48,49
 119 500 l 1,50,51
 119 600 l 1,52,53
 156 600 l 1,54,55
 156 700 l 1,0,1
EndSplineSet
Validated: 1
EndChar

StartChar: D
Encoding: 68 68 39
Width: 450
GlyphClass: 2
Flags: W
LayerCount: 2
Back
Fore
SplineSet
156 600 m 1,0,1
 156 100 l 1,2,3
 306 100 l 1,4,5
 306 200 l 1,6,7
 344 200 l 1,8,9
 344 500 l 1,10,11
 306 500 l 1,12,13
 306 600 l 1,14,15
 156 600 l 1,0,1
81 700 m 1,16,17
 344 700 l 1,18,19
 344 600 l 1,20,21
 381 600 l 1,22,23
 381 500 l 1,24,25
 419 500 l 1,26,27
 419 200 l 1,28,29
 381 200 l 1,30,31
 381 100 l 1,32,33
 344 100 l 1,34,35
 344 0 l 1,36,37
 81 0 l 1,38,39
 81 700 l 1,16,17
EndSplineSet
Validated: 1
EndChar

StartChar: E
Encoding: 69 69 40
Width: 450
GlyphClass: 2
Flags: W
LayerCount: 2
Back
Fore
SplineSet
419 600 m 1,0,1
 156 600 l 1,2,3
 156 400 l 1,4,5
 344 400 l 1,6,7
 344 300 l 1,8,9
 156 300 l 1,10,11
 156 100 l 1,12,13
 419 100 l 1,14,15
 419 0 l 1,16,17
 81 0 l 1,18,19
 81 700 l 1,20,21
 419 700 l 1,22,23
 419 600 l 1,0,1
EndSplineSet
Validated: 1
EndChar

StartChar: F
Encoding: 70 70 41
Width: 450
GlyphClass: 2
Flags: W
LayerCount: 2
Back
Fore
SplineSet
156 0 m 1,0,1
 81 0 l 1,2,3
 81 700 l 1,4,5
 419 700 l 1,6,7
 419 600 l 1,8,9
 156 600 l 1,10,11
 156 400 l 1,12,13
 344 400 l 1,14,15
 344 300 l 1,16,17
 156 300 l 1,18,19
 156 0 l 1,0,1
EndSplineSet
Validated: 1
EndChar

StartChar: G
Encoding: 71 71 42
Width: 450
GlyphClass: 2
Flags: W
LayerCount: 2
Back
Fore
SplineSet
344 600 m 1,0,1
 156 600 l 1,2,3
 156 100 l 1,4,5
 344 100 l 1,6,7
 344 200 l 1,8,9
 231 200 l 1,10,11
 231 300 l 1,12,13
 419 300 l 1,14,15
 419 100 l 1,16,17
 381 100 l 1,18,19
 381 0 l 1,20,21
 119 0 l 1,22,23
 119 100 l 1,24,25
 81 100 l 1,26,27
 81 600 l 1,28,29
 119 600 l 1,30,31
 119 700 l 1,32,33
 381 700 l 1,34,35
 381 600 l 1,36,37
 419 600 l 1,38,39
 419 500 l 1,40,41
 344 500 l 1,42,43
 344 600 l 1,0,1
EndSplineSet
Validated: 1
EndChar

StartChar: H
Encoding: 72 72 43
Width: 450
GlyphClass: 2
Flags: W
LayerCount: 2
Back
Fore
SplineSet
81 700 m 1,0,1
 156 700 l 1,2,3
 156 400 l 1,4,5
 344 400 l 1,6,7
 344 700 l 1,8,9
 419 700 l 1,10,11
 419 0 l 1,12,13
 344 0 l 1,14,15
 344 300 l 1,16,17
 156 300 l 1,18,19
 156 0 l 1,20,21
 81 0 l 1,22,23
 81 700 l 1,0,1
EndSplineSet
Validated: 1
EndChar

StartChar: I
Encoding: 73 73 44
Width: 450
GlyphClass: 2
Flags: W
LayerCount: 2
Back
Fore
SplineSet
75 700 m 1,0,1
 375 700 l 1,2,3
 375 600 l 1,4,5
 262 600 l 1,6,7
 262 100 l 1,8,9
 375 100 l 1,10,11
 375 0 l 1,12,13
 75 0 l 1,14,15
 75 100 l 1,16,17
 188 100 l 1,18,19
 188 600 l 1,20,21
 75 600 l 1,22,23
 75 700 l 1,0,1
EndSplineSet
Validated: 1
EndChar

StartChar: J
Encoding: 74 74 45
Width: 450
GlyphClass: 2
Flags: W
LayerCount: 2
Back
Fore
SplineSet
344 700 m 1,0,1
 419 700 l 1,2,3
 419 100 l 1,4,5
 381 100 l 1,6,7
 381 0 l 1,8,9
 119 0 l 1,10,11
 119 100 l 1,12,13
 81 100 l 1,14,15
 81 200 l 1,16,17
 156 200 l 1,18,19
 156 100 l 1,20,21
 344 100 l 1,22,23
 344 700 l 1,0,1
EndSplineSet
Validated: 1
EndChar

StartChar: K
Encoding: 75 75 46
Width: 450
GlyphClass: 2
Flags: W
LayerCount: 2
Back
Fore
SplineSet
81 700 m 1,0,1
 156 700 l 1,2,3
 156 400 l 1,4,5
 194 400 l 1,6,7
 194 500 l 1,8,9
 269 500 l 1,10,11
 269 600 l 1,12,13
 306 600 l 1,14,15
 306 700 l 1,16,17
 419 700 l 1,18,19
 419 600 l 1,20,21
 344 600 l 1,22,23
 344 500 l 1,24,25
 306 500 l 1,26,27
 306 400 l 1,28,29
 231 400 l 1,30,31
 231 300 l 1,32,33
 306 300 l 1,34,35
 306 200 l 1,36,37
 344 200 l 1,38,39
 344 100 l 1,40,41
 419 100 l 1,42,43
 419 0 l 1,44,45
 306 0 l 1,46,47
 306 100 l 1,48,49
 269 100 l 1,50,51
 269 200 l 1,52,53
 194 200 l 1,54,55
 194 300 l 1,56,57
 156 300 l 1,58,59
 156 0 l 1,60,61
 81 0 l 1,62,63
 81 700 l 1,0,1
EndSplineSet
Validated: 1
EndChar

StartChar: L
Encoding: 76 76 47
Width: 450
GlyphClass: 2
Flags: W
LayerCount: 2
Back
Fore
SplineSet
81 700 m 1,0,1
 156 700 l 1,2,3
 156 100 l 1,4,5
 419 100 l 1,6,7
 419 0 l 1,8,9
 81 0 l 1,10,11
 81 700 l 1,0,1
EndSplineSet
Validated: 1
EndChar

StartChar: M
Encoding: 77 77 48
Width: 450
GlyphClass: 2
Flags: W
LayerCount: 2
Back
Fore
SplineSet
112 0 m 1,0,1
 38 0 l 1,2,3
 38 700 l 1,4,5
 150 700 l 1,6,7
 150 600 l 1,8,9
 188 600 l 1,10,11
 188 500 l 1,12,13
 262 500 l 1,14,15
 262 600 l 1,16,17
 300 600 l 1,18,19
 300 700 l 1,20,21
 412 700 l 1,22,23
 412 0 l 1,24,25
 338 0 l 1,26,27
 338 500 l 1,28,29
 300 500 l 1,30,31
 300 400 l 1,32,33
 262 400 l 1,34,35
 262 300 l 1,36,37
 188 300 l 1,38,39
 188 400 l 1,40,41
 150 400 l 1,42,43
 150 500 l 1,44,45
 112 500 l 1,46,47
 112 0 l 1,0,1
EndSplineSet
Validated: 1
EndChar

StartChar: N
Encoding: 78 78 49
Width: 450
GlyphClass: 2
Flags: W
LayerCount: 2
Back
Fore
SplineSet
38 700 m 1,0,1
 150 700 l 1,2,3
 150 600 l 1,4,5
 188 600 l 1,6,7
 188 500 l 1,8,9
 225 500 l 1,10,11
 225 400 l 1,12,13
 262 400 l 1,14,15
 262 300 l 1,16,17
 300 300 l 1,18,19
 300 200 l 1,20,21
 338 200 l 1,22,23
 338 700 l 1,24,25
 412 700 l 1,26,27
 412 0 l 1,28,29
 300 0 l 1,30,31
 300 100 l 1,32,33
 262 100 l 1,34,35
 262 200 l 1,36,37
 225 200 l 1,38,39
 225 300 l 1,40,41
 188 300 l 1,42,43
 188 400 l 1,44,45
 150 400 l 1,46,47
 150 500 l 1,48,49
 112 500 l 1,50,51
 112 0 l 1,52,53
 38 0 l 1,54,55
 38 700 l 1,0,1
EndSplineSet
Validated: 1
EndChar

StartChar: O
Encoding: 79 79 50
Width: 450
GlyphClass: 2
Flags: W
LayerCount: 2
Back
Fore
SplineSet
300 100 m 1,0,1
 300 200 l 1,2,3
 338 200 l 1,4,5
 338 500 l 1,6,7
 300 500 l 1,8,9
 300 600 l 1,10,11
 150 600 l 1,12,13
 150 500 l 1,14,15
 112 500 l 1,16,17
 112 200 l 1,18,19
 150 200 l 1,20,21
 150 100 l 1,22,23
 300 100 l 1,0,1
338 0 m 1,24,25
 112 0 l 1,26,27
 112 100 l 1,28,29
 75 100 l 1,30,31
 75 200 l 1,32,33
 38 200 l 1,34,35
 38 500 l 1,36,37
 75 500 l 1,38,39
 75 600 l 1,40,41
 112 600 l 1,42,43
 112 700 l 1,44,45
 338 700 l 1,46,47
 338 600 l 1,48,49
 375 600 l 1,50,51
 375 500 l 1,52,53
 412 500 l 1,54,55
 412 200 l 1,56,57
 375 200 l 1,58,59
 375 100 l 1,60,61
 338 100 l 1,62,63
 338 0 l 1,24,25
EndSplineSet
Validated: 1
EndChar

StartChar: P
Encoding: 80 80 51
Width: 450
GlyphClass: 2
Flags: W
LayerCount: 2
Back
Fore
SplineSet
156 600 m 1,0,1
 156 400 l 1,2,3
 344 400 l 1,4,5
 344 600 l 1,6,7
 156 600 l 1,0,1
81 700 m 1,8,9
 381 700 l 1,10,11
 381 650 l 1,12,13
 419 650 l 1,14,15
 419 400 l 1,16,17
 381 400 l 1,18,19
 381 300 l 1,20,21
 156 300 l 1,22,23
 156 0 l 1,24,25
 81 0 l 1,26,27
 81 700 l 1,8,9
EndSplineSet
Validated: 1
EndChar

StartChar: Q
Encoding: 81 81 52
Width: 450
GlyphClass: 2
Flags: W
LayerCount: 2
Back
Fore
SplineSet
112 600 m 1,0,1
 112 100 l 1,2,3
 225 100 l 1,4,5
 225 200 l 1,6,7
 300 200 l 1,8,9
 300 100 l 1,10,11
 338 100 l 1,12,13
 338 600 l 1,14,15
 112 600 l 1,0,1
75 700 m 1,16,17
 375 700 l 1,18,19
 375 600 l 1,20,21
 412 600 l 1,22,23
 412 100 l 1,24,25
 375 100 l 1,26,27
 375 0 l 1,28,29
 338 0 l 1,30,31
 338 -100 l 1,32,33
 412 -100 l 1,34,35
 412 -200 l 1,36,37
 300 -200 l 1,38,39
 300 -100 l 1,40,41
 262 -100 l 1,42,43
 262 0 l 1,44,45
 75 0 l 1,46,47
 75 100 l 1,48,49
 38 100 l 1,50,51
 38 600 l 1,52,53
 75 600 l 1,54,55
 75 700 l 1,16,17
EndSplineSet
Validated: 1
EndChar

StartChar: R
Encoding: 82 82 53
Width: 450
GlyphClass: 2
Flags: W
LayerCount: 2
Back
Fore
SplineSet
156 600 m 1,0,1
 156 400 l 1,2,3
 344 400 l 1,4,5
 344 600 l 1,6,7
 156 600 l 1,0,1
81 700 m 1,8,9
 381 700 l 1,10,11
 381 650 l 1,12,13
 419 650 l 1,14,15
 419 400 l 1,16,17
 381 400 l 1,18,19
 381 300 l 1,20,21
 306 300 l 1,22,23
 306 200 l 1,24,25
 344 200 l 1,26,27
 344 100 l 1,28,29
 419 100 l 1,30,31
 419 0 l 1,32,33
 306 0 l 1,34,35
 306 100 l 1,36,37
 269 100 l 1,38,39
 269 200 l 1,40,41
 231 200 l 1,42,43
 231 300 l 1,44,45
 156 300 l 1,46,47
 156 0 l 1,48,49
 81 0 l 1,50,51
 81 700 l 1,8,9
EndSplineSet
Validated: 1
EndChar

StartChar: S
Encoding: 83 83 54
Width: 450
GlyphClass: 2
Flags: W
LayerCount: 2
Back
Fore
SplineSet
119 600 m 1,0,1
 119 700 l 1,2,3
 381 700 l 1,4,5
 381 600 l 1,6,7
 156 600 l 1,8,9
 156 400 l 1,10,11
 381 400 l 1,12,13
 381 300 l 1,14,15
 419 300 l 1,16,17
 419 100 l 1,18,19
 381 100 l 1,20,21
 381 0 l 1,22,23
 119 0 l 1,24,25
 119 100 l 1,26,27
 344 100 l 1,28,29
 344 300 l 1,30,31
 119 300 l 1,32,33
 119 400 l 1,34,35
 81 400 l 1,36,37
 81 600 l 1,38,39
 119 600 l 1,0,1
EndSplineSet
Validated: 1
EndChar

StartChar: T
Encoding: 84 84 55
Width: 450
GlyphClass: 2
Flags: W
LayerCount: 2
Back
Fore
SplineSet
38 700 m 1,0,1
 412 700 l 1,2,3
 412 600 l 1,4,5
 262 600 l 1,6,7
 262 0 l 1,8,9
 188 0 l 1,10,11
 188 600 l 1,12,13
 38 600 l 1,14,15
 38 700 l 1,0,1
EndSplineSet
Validated: 1
EndChar

StartChar: U
Encoding: 85 85 56
Width: 450
GlyphClass: 2
Flags: W
LayerCount: 2
Back
Fore
SplineSet
81 700 m 1,0,1
 156 700 l 1,2,3
 156 100 l 1,4,5
 344 100 l 1,6,7
 344 700 l 1,8,9
 419 700 l 1,10,11
 419 100 l 1,12,13
 381 100 l 1,14,15
 381 0 l 1,16,17
 119 0 l 1,18,19
 119 100 l 1,20,21
 81 100 l 1,22,23
 81 700 l 1,0,1
EndSplineSet
Validated: 1
EndChar

StartChar: V
Encoding: 86 86 57
Width: 450
GlyphClass: 2
Flags: W
LayerCount: 2
Back
Fore
SplineSet
88 700 m 1,0,1
 162 700 l 1,2,3
 162 500 l 1,4,5
 200 500 l 1,6,7
 200 300 l 1,8,9
 238 300 l 1,10,11
 238 200 l 1,12,13
 312 200 l 1,14,15
 312 300 l 1,16,17
 350 300 l 1,18,19
 350 500 l 1,20,21
 388 500 l 1,22,23
 388 700 l 1,24,25
 462 700 l 1,26,27
 462 500 l 1,28,29
 425 500 l 1,30,31
 425 300 l 1,32,33
 388 300 l 1,34,35
 388 200 l 1,36,37
 350 200 l 1,38,39
 350 100 l 1,40,41
 312 100 l 1,42,43
 312 0 l 1,44,45
 238 0 l 1,46,47
 238 100 l 1,48,49
 200 100 l 1,50,51
 200 200 l 1,52,53
 162 200 l 1,54,55
 162 300 l 1,56,57
 125 300 l 1,58,59
 125 500 l 1,60,61
 88 500 l 1,62,63
 88 700 l 1,0,1
EndSplineSet
Validated: 1
EndChar

StartChar: W
Encoding: 87 87 58
Width: 450
GlyphClass: 2
Flags: W
LayerCount: 2
Back
Fore
SplineSet
38 700 m 1,0,1
 112 700 l 1,2,3
 112 200 l 1,4,5
 150 200 l 1,6,7
 150 300 l 1,8,9
 188 300 l 1,10,11
 188 400 l 1,12,13
 262 400 l 1,14,15
 262 300 l 1,16,17
 300 300 l 1,18,19
 300 200 l 1,20,21
 338 200 l 1,22,23
 338 700 l 1,24,25
 412 700 l 1,26,27
 412 200 l 1,28,29
 375 200 l 1,30,31
 375 0 l 1,32,33
 300 0 l 1,34,35
 300 100 l 1,36,37
 262 100 l 1,38,39
 262 200 l 1,40,41
 188 200 l 1,42,43
 188 100 l 1,44,45
 150 100 l 1,46,47
 150 0 l 1,48,49
 75 0 l 1,50,51
 75 200 l 1,52,53
 38 200 l 1,54,55
 38 700 l 1,0,1
EndSplineSet
Validated: 1
EndChar

StartChar: X
Encoding: 88 88 59
Width: 450
GlyphClass: 2
Flags: W
LayerCount: 2
Back
Fore
SplineSet
75 700 m 1,0,1
 150 700 l 1,2,3
 150 600 l 1,4,5
 188 600 l 1,6,7
 188 500 l 1,8,9
 262 500 l 1,10,11
 262 600 l 1,12,13
 300 600 l 1,14,15
 300 700 l 1,16,17
 375 700 l 1,18,19
 375 600 l 1,20,21
 338 600 l 1,22,23
 338 500 l 1,24,25
 300 500 l 1,26,27
 300 400 l 1,28,29
 262 400 l 1,30,31
 262 300 l 1,32,33
 300 300 l 1,34,35
 300 200 l 1,36,37
 338 200 l 1,38,39
 338 100 l 1,40,41
 375 100 l 1,42,43
 375 0 l 1,44,45
 300 0 l 1,46,47
 300 100 l 1,48,49
 262 100 l 1,50,51
 262 200 l 1,52,53
 188 200 l 1,54,55
 188 100 l 1,56,57
 150 100 l 1,58,59
 150 0 l 1,60,61
 75 0 l 1,62,63
 75 100 l 1,64,65
 112 100 l 1,66,67
 112 200 l 1,68,69
 150 200 l 1,70,71
 150 300 l 1,72,73
 188 300 l 1,74,75
 188 400 l 1,76,77
 150 400 l 1,78,79
 150 500 l 1,80,81
 112 500 l 1,82,83
 112 600 l 1,84,85
 75 600 l 1,86,87
 75 700 l 1,0,1
EndSplineSet
Validated: 1
EndChar

StartChar: Y
Encoding: 89 89 60
Width: 450
GlyphClass: 2
Flags: W
LayerCount: 2
Back
Fore
SplineSet
38 700 m 1,0,1
 112 700 l 1,2,3
 112 600 l 1,4,5
 150 600 l 1,6,7
 150 500 l 1,8,9
 188 500 l 1,10,11
 188 400 l 1,12,13
 262 400 l 1,14,15
 262 500 l 1,16,17
 300 500 l 1,18,19
 300 600 l 1,20,21
 338 600 l 1,22,23
 338 700 l 1,24,25
 412 700 l 1,26,27
 412 600 l 1,28,29
 375 600 l 1,30,31
 375 500 l 1,32,33
 338 500 l 1,34,35
 338 400 l 1,36,37
 300 400 l 1,38,39
 300 300 l 1,40,41
 262 300 l 1,42,43
 262 0 l 1,44,45
 188 0 l 1,46,47
 188 300 l 1,48,49
 150 300 l 1,50,51
 150 400 l 1,52,53
 112 400 l 1,54,55
 112 500 l 1,56,57
 75 500 l 1,58,59
 75 600 l 1,60,61
 38 600 l 1,62,63
 38 700 l 1,0,1
EndSplineSet
Validated: 1
EndChar

StartChar: Z
Encoding: 90 90 61
Width: 450
GlyphClass: 2
Flags: W
LayerCount: 2
Back
Fore
SplineSet
75 700 m 1,0,1
 375 700 l 1,2,3
 375 600 l 1,4,5
 338 600 l 1,6,7
 338 500 l 1,8,9
 300 500 l 1,10,11
 300 400 l 1,12,13
 262 400 l 1,14,15
 262 300 l 1,16,17
 225 300 l 1,18,19
 225 200 l 1,20,21
 188 200 l 1,22,23
 188 100 l 1,24,25
 375 100 l 1,26,27
 375 0 l 1,28,29
 75 0 l 1,30,31
 75 100 l 1,32,33
 112 100 l 1,34,35
 112 200 l 1,36,37
 150 200 l 1,38,39
 150 300 l 1,40,41
 188 300 l 1,42,43
 188 400 l 1,44,45
 225 400 l 1,46,47
 225 500 l 1,48,49
 262 500 l 1,50,51
 262 600 l 1,52,53
 75 600 l 1,54,55
 75 700 l 1,0,1
EndSplineSet
Validated: 1
EndChar

StartChar: bracketleft
Encoding: 91 91 62
Width: 450
GlyphClass: 2
Flags: W
LayerCount: 2
Back
Fore
SplineSet
300 600 m 1,0,1
 225 600 l 1,2,3
 225 100 l 1,4,5
 300 100 l 1,6,7
 300 0 l 1,8,9
 150 0 l 1,10,11
 150 700 l 1,12,13
 300 700 l 1,14,15
 300 600 l 1,0,1
EndSplineSet
Validated: 1
EndChar

StartChar: backslash
Encoding: 92 92 63
Width: 450
GlyphClass: 2
Flags: W
LayerCount: 2
Back
Fore
SplineSet
75 600 m 1,0,1
 75 700 l 1,2,3
 150 700 l 1,4,5
 150 600 l 1,6,7
 188 600 l 1,8,9
 188 500 l 1,10,11
 225 500 l 1,12,13
 225 400 l 1,14,15
 262 400 l 1,16,17
 262 300 l 1,18,19
 300 300 l 1,20,21
 300 200 l 1,22,23
 338 200 l 1,24,25
 338 100 l 1,26,27
 375 100 l 1,28,29
 375 0 l 1,30,31
 300 0 l 1,32,33
 300 100 l 1,34,35
 262 100 l 1,36,37
 262 200 l 1,38,39
 225 200 l 1,40,41
 225 300 l 1,42,43
 188 300 l 1,44,45
 188 400 l 1,46,47
 150 400 l 1,48,49
 150 500 l 1,50,51
 112 500 l 1,52,53
 112 600 l 1,54,55
 75 600 l 1,0,1
EndSplineSet
Validated: 1
EndChar

StartChar: bracketright
Encoding: 93 93 64
Width: 450
GlyphClass: 2
Flags: W
LayerCount: 2
Back
Fore
SplineSet
150 700 m 1,0,1
 299 700 l 1,2,3
 299 584 299 584 299.5 350.5 c 0
 300 117 300 117 300 0 c 1,4,5
 150 0 l 1,6,7
 150 100 l 1,8,9
 225 100 l 1,10,11
 225 600 l 1,12,13
 150 600 l 1,14,15
 150 700 l 1,0,1
EndSplineSet
Validated: 1
EndChar

StartChar: asciicircum
Encoding: 94 94 65
Width: 450
GlyphClass: 2
Flags: W
LayerCount: 2
Back
Fore
SplineSet
119 400 m 1,0,1
 119 500 l 1,2,3
 156 500 l 1,4,5
 156 600 l 1,6,7
 194 600 l 1,8,9
 194 700 l 1,10,11
 306 700 l 1,12,13
 306 600 l 1,14,15
 344 600 l 1,16,17
 344 500 l 1,18,19
 381 500 l 1,20,21
 381 400 l 1,22,23
 306 400 l 1,24,25
 306 500 l 1,26,27
 269 500 l 1,28,29
 269 600 l 1,30,31
 231 600 l 1,32,33
 231 500 l 1,34,35
 194 500 l 1,36,37
 194 400 l 1,38,39
 119 400 l 1,0,1
EndSplineSet
Validated: 1
EndChar

StartChar: underscore
Encoding: 95 95 66
Width: 450
GlyphClass: 2
Flags: W
LayerCount: 2
Back
Fore
SplineSet
38 -100 m 1,0,1
 38 0 l 1,2,3
 412 0 l 1,4,5
 412 -100 l 1,6,7
 38 -100 l 1,0,1
EndSplineSet
Validated: 1
EndChar

StartChar: grave
Encoding: 96 96 67
Width: 450
GlyphClass: 2
Flags: W
LayerCount: 2
Back
Fore
SplineSet
100 700 m 1,0,1
 175 700 l 1,2,3
 175 600 l 1,4,5
 212 600 l 1,6,7
 212 500 l 1,8,9
 250 500 l 1,10,11
 250 400 l 1,12,13
 175 400 l 1,14,15
 175 500 l 1,16,17
 138 500 l 1,18,19
 138 600 l 1,20,21
 100 600 l 1,22,23
 100 700 l 1,0,1
EndSplineSet
Validated: 1
EndChar

StartChar: a
Encoding: 97 97 68
Width: 450
GlyphClass: 2
Flags: W
LayerCount: 2
Back
Fore
SplineSet
112 200 m 1,0,1
 112 100 l 1,2,3
 300 100 l 1,4,5
 300 200 l 1,6,7
 112 200 l 1,0,1
75 500 m 1,8,9
 338 500 l 1,10,11
 338 400 l 1,12,13
 375 400 l 1,14,15
 375 100 l 1,16,17
 412 100 l 1,18,19
 412 0 l 1,20,21
 75 0 l 1,22,23
 75 100 l 1,24,25
 38 100 l 1,26,27
 38 200 l 1,28,29
 75 200 l 1,30,31
 75 300 l 1,32,33
 300 300 l 1,34,35
 300 400 l 1,36,37
 75 400 l 1,38,39
 75 500 l 1,8,9
EndSplineSet
Validated: 1
EndChar

StartChar: b
Encoding: 98 98 69
Width: 450
GlyphClass: 2
Flags: W
LayerCount: 2
Back
Fore
SplineSet
344 400 m 1,0,1
 194 400 l 1,2,3
 194 300 l 1,4,5
 156 300 l 1,6,7
 156 100 l 1,8,9
 344 100 l 1,10,11
 344 400 l 1,0,1
81 700 m 1,12,13
 156 700 l 1,14,15
 156 400 l 1,16,17
 194 400 l 1,18,19
 194 500 l 1,20,21
 381 500 l 1,22,23
 381 400 l 1,24,25
 419 400 l 1,26,27
 419 100 l 1,28,29
 381 100 l 1,30,31
 381 0 l 1,32,33
 81 0 l 1,34,35
 81 700 l 1,12,13
EndSplineSet
Validated: 5
EndChar

StartChar: c
Encoding: 99 99 70
Width: 450
GlyphClass: 2
Flags: W
LayerCount: 2
Back
Fore
SplineSet
156 500 m 1,0,1
 419 500 l 1,2,3
 419 400 l 1,4,5
 194 400 l 1,6,7
 194 300 l 1,8,9
 156 300 l 1,10,11
 156 200 l 1,12,13
 194 200 l 1,14,15
 194 100 l 1,16,17
 419 100 l 1,18,19
 419 0 l 1,20,21
 156 0 l 1,22,23
 156 100 l 1,24,25
 119 100 l 1,26,27
 119 200 l 1,28,29
 81 200 l 1,30,31
 81 300 l 1,32,33
 119 300 l 1,34,35
 119 400 l 1,36,37
 156 400 l 1,38,39
 156 500 l 1,0,1
EndSplineSet
Validated: 1
EndChar

StartChar: d
Encoding: 100 100 71
Width: 450
GlyphClass: 2
Flags: W
LayerCount: 2
Back
Fore
SplineSet
156 100 m 1,0,1
 344 100 l 1,2,3
 344 300 l 1,4,5
 306 300 l 1,6,7
 306 400 l 1,8,9
 156 400 l 1,10,11
 156 100 l 1,0,1
344 700 m 1,12,13
 419 700 l 1,14,15
 419 0 l 1,16,17
 119 0 l 1,18,19
 119 100 l 1,20,21
 81 100 l 1,22,23
 81 400 l 1,24,25
 119 400 l 1,26,27
 119 500 l 1,28,29
 306 500 l 1,30,31
 306 400 l 1,32,33
 344 400 l 1,34,35
 344 700 l 1,12,13
EndSplineSet
Validated: 5
EndChar

StartChar: e
Encoding: 101 101 72
Width: 450
GlyphClass: 2
Flags: W
LayerCount: 2
Back
Fore
SplineSet
156 400 m 1,0,1
 156 300 l 1,2,3
 344 300 l 1,4,5
 344 400 l 1,6,7
 156 400 l 1,0,1
119 400 m 1,8,9
 119 500 l 1,10,11
 380 500 l 1,12,13
 380 484 380 484 380.5 450 c 0
 381 416 381 416 381 400 c 1,14,15
 419 400 l 1,16,17
 419 200 l 1,18,19
 156 200 l 1,20,21
 156 100 l 1,22,23
 381 100 l 1,24,25
 381 0 l 1,26,27
 119 0 l 1,28,29
 119 100 l 1,30,31
 81 100 l 1,32,33
 81 400 l 1,34,35
 119 400 l 1,8,9
EndSplineSet
Validated: 1
EndChar

StartChar: f
Encoding: 102 102 73
Width: 450
GlyphClass: 2
Flags: W
LayerCount: 2
Back
Fore
SplineSet
194 600 m 1,0,1
 194 700 l 1,2,3
 419 700 l 1,4,5
 419 600 l 1,6,7
 231 600 l 1,8,9
 231 400 l 1,10,11
 344 400 l 1,12,13
 344 300 l 1,14,15
 231 300 l 1,16,17
 231 0 l 1,18,19
 156 0 l 1,20,21
 156 300 l 1,22,23
 81 300 l 1,24,25
 81 400 l 1,26,27
 156 400 l 1,28,29
 156 600 l 1,30,31
 194 600 l 1,0,1
EndSplineSet
Validated: 1
EndChar

StartChar: g
Encoding: 103 103 74
Width: 450
GlyphClass: 2
Flags: W
LayerCount: 2
Back
Fore
SplineSet
156 400 m 1,0,1
 156 100 l 1,2,3
 306 100 l 1,4,5
 306 200 l 1,6,7
 344 200 l 1,8,9
 344 300 l 1,10,11
 306 300 l 1,12,13
 306 400 l 1,14,15
 156 400 l 1,0,1
119 400 m 1,16,17
 119 498 l 1,18,19
 150 498 150 498 212.5 499 c 0
 275 500 275 500 306 500 c 1,20,21
 306 400 l 1,22,23
 344 400 l 1,24,25
 344 500 l 1,26,27
 419 500 l 1,28,29
 419 -100 l 1,30,31
 381 -100 l 1,32,33
 381 -200 l 1,34,35
 119 -200 l 1,36,37
 119 -100 l 1,38,39
 344 -100 l 1,40,41
 344 100 l 1,42,43
 306 100 l 1,44,45
 306 0 l 1,46,47
 119 0 l 1,48,49
 119 100 l 1,50,51
 81 100 l 1,52,53
 81 400 l 1,54,55
 119 400 l 1,16,17
EndSplineSet
Validated: 5
EndChar

StartChar: h
Encoding: 104 104 75
Width: 450
GlyphClass: 2
Flags: W
LayerCount: 2
Back
Fore
SplineSet
81 700 m 1,0,1
 156 700 l 1,2,3
 156 400 l 1,4,5
 194 400 l 1,6,7
 194 500 l 1,8,9
 381 500 l 1,10,11
 381 400 l 1,12,13
 419 400 l 1,14,15
 419 0 l 1,16,17
 344 0 l 1,18,19
 344 400 l 1,20,21
 194 400 l 1,22,23
 194 300 l 1,24,25
 156 300 l 1,26,27
 156 0 l 1,28,29
 81 0 l 1,30,31
 81 700 l 1,0,1
EndSplineSet
Validated: 5
EndChar

StartChar: i
Encoding: 105 105 76
Width: 450
GlyphClass: 2
Flags: W
LayerCount: 2
Back
Fore
SplineSet
150 500 m 1,0,1
 262 500 l 1,2,3
 262 100 l 1,4,5
 338 100 l 1,6,7
 338 0 l 1,8,9
 112 0 l 1,10,11
 112 100 l 1,12,13
 188 100 l 1,14,15
 188 400 l 1,16,17
 150 400 l 1,18,19
 150 500 l 1,0,1
150 700 m 1,20,21
 262 700 l 1,22,23
 262 600 l 1,24,25
 150 600 l 1,26,27
 150 700 l 1,20,21
EndSplineSet
Validated: 1
EndChar

StartChar: j
Encoding: 106 106 77
Width: 450
GlyphClass: 2
Flags: W
LayerCount: 2
Back
Fore
SplineSet
306 400 m 1,0,1
 306 500 l 1,2,3
 419 500 l 1,4,5
 419 -100 l 1,6,7
 381 -100 l 1,8,9
 381 -200 l 1,10,11
 119 -200 l 1,12,13
 119 -100 l 1,14,15
 81 -100 l 1,16,17
 81 0 l 1,18,19
 156 0 l 1,20,21
 156 -100 l 1,22,23
 344 -100 l 1,24,25
 344 400 l 1,26,27
 306 400 l 1,0,1
306 700 m 1,28,29
 418 700 l 1,30,31
 418 684 418 684 418.5 650 c 0
 419 616 419 616 419 600 c 1,32,33
 306 600 l 1,34,35
 306 700 l 1,28,29
EndSplineSet
Validated: 1
EndChar

StartChar: k
Encoding: 107 107 78
Width: 450
GlyphClass: 2
Flags: W
LayerCount: 2
Back
Fore
SplineSet
75 700 m 1,0,1
 150 700 l 1,2,3
 150 300 l 1,4,5
 225 300 l 1,6,7
 225 400 l 1,8,9
 262 400 l 1,10,11
 262 500 l 1,12,13
 375 500 l 1,14,15
 375 400 l 1,16,17
 300 400 l 1,18,19
 300 300 l 1,20,21
 262 300 l 1,22,23
 262 200 l 1,24,25
 300 200 l 1,26,27
 300 100 l 1,28,29
 375 100 l 1,30,31
 375 0 l 1,32,33
 262 0 l 1,34,35
 262 100 l 1,36,37
 225 100 l 1,38,39
 225 200 l 1,40,41
 150 200 l 1,42,43
 150 0 l 1,44,45
 75 0 l 1,46,47
 75 700 l 1,0,1
EndSplineSet
Validated: 1
EndChar

StartChar: l
Encoding: 108 108 79
Width: 450
GlyphClass: 2
Flags: W
LayerCount: 2
Back
Fore
SplineSet
112 750 m 1,0,1
 262 750 l 1,2,3
 262 100 l 1,4,5
 375 100 l 1,6,7
 375 0 l 1,8,9
 75 0 l 1,10,11
 75 100 l 1,12,13
 188 100 l 1,14,15
 188 650 l 1,16,17
 112 650 l 1,18,19
 112 750 l 1,0,1
EndSplineSet
Validated: 1
EndChar

StartChar: m
Encoding: 109 109 80
Width: 450
GlyphClass: 2
Flags: W
LayerCount: 2
Back
Fore
SplineSet
38 0 m 1,0,1
 38 500 l 1,2,3
 374 500 l 1,4,5
 374 484 374 484 374.5 450 c 0
 375 416 375 416 375 400 c 1,6,7
 412 400 l 1,8,9
 412 0 l 1,10,11
 338 0 l 1,12,13
 338 400 l 1,14,15
 262 400 l 1,16,17
 262 0 l 1,18,19
 188 0 l 1,20,21
 188 400 l 1,22,23
 112 400 l 1,24,25
 112 0 l 1,26,27
 38 0 l 1,0,1
EndSplineSet
Validated: 1
EndChar

StartChar: n
Encoding: 110 110 81
Width: 450
GlyphClass: 2
Flags: W
LayerCount: 2
Back
Fore
SplineSet
81 0 m 1,0,1
 81 500 l 1,2,3
 156 500 l 1,4,5
 156 400 l 1,6,7
 194 400 l 1,8,9
 194 500 l 1,10,11
 381 500 l 1,12,13
 381 400 l 1,14,15
 419 400 l 1,16,17
 419 0 l 1,18,19
 344 0 l 1,20,21
 344 400 l 1,22,23
 194 400 l 1,24,25
 194 300 l 1,26,27
 156 300 l 1,28,29
 156 0 l 1,30,31
 81 0 l 1,0,1
EndSplineSet
Validated: 5
EndChar

StartChar: o
Encoding: 111 111 82
Width: 450
GlyphClass: 2
Flags: W
LayerCount: 2
Back
Fore
SplineSet
156 400 m 1,0,1
 156 100 l 1,2,3
 344 100 l 1,4,5
 344 400 l 1,6,7
 156 400 l 1,0,1
119 500 m 1,8,9
 381 500 l 1,10,11
 381 400 l 1,12,13
 419 400 l 1,14,15
 419 100 l 1,16,17
 381 100 l 1,18,19
 381 0 l 1,20,21
 119 0 l 1,22,23
 119 100 l 1,24,25
 81 100 l 1,26,27
 81 400 l 1,28,29
 119 400 l 1,30,31
 119 500 l 1,8,9
EndSplineSet
Validated: 1
EndChar

StartChar: p
Encoding: 112 112 83
Width: 450
GlyphClass: 2
Flags: W
LayerCount: 2
Back
Fore
SplineSet
194 300 m 1,0,1
 156 300 l 1,2,3
 156 200 l 1,4,5
 194 200 l 1,6,7
 194 100 l 1,8,9
 344 100 l 1,10,11
 344 400 l 1,12,13
 194 400 l 1,14,15
 194 300 l 1,0,1
81 500 m 1,16,17
 156 500 l 1,18,19
 156 400 l 1,20,21
 194 400 l 1,22,23
 194 500 l 1,24,25
 381 500 l 1,26,27
 381 400 l 1,28,29
 419 400 l 1,30,31
 419 100 l 1,32,33
 381 100 l 1,34,35
 381 0 l 1,36,37
 194 0 l 1,38,39
 194 100 l 1,40,41
 156 100 l 1,42,43
 156 -200 l 1,44,45
 81 -200 l 1,46,47
 81 500 l 1,16,17
EndSplineSet
Validated: 5
EndChar

StartChar: q
Encoding: 113 113 84
Width: 450
GlyphClass: 2
Flags: W
LayerCount: 2
Back
Fore
SplineSet
156 400 m 1,0,1
 156 100 l 1,2,3
 306 100 l 1,4,5
 306 200 l 1,6,7
 344 200 l 1,8,9
 344 300 l 1,10,11
 306 300 l 1,12,13
 306 400 l 1,14,15
 156 400 l 1,0,1
119 500 m 1,16,17
 306 500 l 1,18,19
 306 400 l 1,20,21
 344 400 l 1,22,23
 344 500 l 1,24,25
 419 500 l 1,26,27
 419 -200 l 1,28,29
 344 -200 l 1,30,31
 344 100 l 1,32,33
 306 100 l 1,34,35
 306 0 l 1,36,37
 119 0 l 1,38,39
 119 100 l 1,40,41
 81 100 l 1,42,43
 81 400 l 1,44,45
 119 400 l 1,46,47
 119 500 l 1,16,17
EndSplineSet
Validated: 5
EndChar

StartChar: r
Encoding: 114 114 85
Width: 450
GlyphClass: 2
Flags: W
LayerCount: 2
Back
Fore
SplineSet
81 0 m 1,0,1
 81 500 l 1,2,3
 156 500 l 1,4,5
 156 400 l 1,6,7
 231 400 l 1,8,9
 231 500 l 1,10,11
 419 500 l 1,12,13
 419 400 l 1,14,15
 231 400 l 1,16,17
 231 300 l 1,18,19
 156 300 l 1,20,21
 156 0 l 1,22,23
 81 0 l 1,0,1
EndSplineSet
Validated: 5
EndChar

StartChar: s
Encoding: 115 115 86
Width: 450
GlyphClass: 2
Flags: W
LayerCount: 2
Back
Fore
SplineSet
381 400 m 1,0,1
 156 400 l 1,2,3
 156 300 l 1,4,5
 381 300 l 1,6,7
 381 200 l 1,8,9
 419 200 l 1,10,11
 419 100 l 1,12,13
 381 100 l 1,14,15
 381 0 l 1,16,17
 119 0 l 1,18,19
 119 100 l 1,20,21
 344 100 l 1,22,23
 344 200 l 1,24,25
 119 200 l 1,26,27
 119 300 l 1,28,29
 81 300 l 1,30,31
 81 400 l 1,32,33
 119 400 l 1,34,35
 119 500 l 1,36,37
 381 500 l 1,38,39
 381 400 l 1,0,1
EndSplineSet
Validated: 1
EndChar

StartChar: t
Encoding: 116 116 87
Width: 450
GlyphClass: 2
Flags: W
LayerCount: 2
Back
Fore
SplineSet
156 700 m 1,0,1
 231 700 l 1,2,3
 231 500 l 1,4,5
 344 500 l 1,6,7
 344 400 l 1,8,9
 231 400 l 1,10,11
 231 100 l 1,12,13
 419 100 l 1,14,15
 419 0 l 1,16,17
 194 0 l 1,18,19
 194 100 l 1,20,21
 156 100 l 1,22,23
 156 400 l 1,24,25
 81 400 l 1,26,27
 81 500 l 1,28,29
 156 500 l 1,30,31
 156 700 l 1,0,1
EndSplineSet
Validated: 1
EndChar

StartChar: u
Encoding: 117 117 88
Width: 450
GlyphClass: 2
Flags: W
LayerCount: 2
Back
Fore
SplineSet
81 500 m 1,0,1
 156 500 l 1,2,3
 156 100 l 1,4,5
 306 100 l 1,6,7
 306 200 l 1,8,9
 344 200 l 1,10,11
 344 500 l 1,12,13
 419 500 l 1,14,15
 419 0 l 1,16,17
 344 0 l 1,18,19
 344 100 l 1,20,21
 306 100 l 1,22,23
 306 0 l 1,24,25
 119 0 l 1,26,27
 119 100 l 1,28,29
 81 100 l 1,30,31
 81 500 l 1,0,1
EndSplineSet
Validated: 5
EndChar

StartChar: v
Encoding: 118 118 89
Width: 450
GlyphClass: 2
Flags: W
LayerCount: 2
Back
Fore
SplineSet
38 500 m 1,0,1
 112 500 l 1,2,3
 112 400 l 1,4,5
 150 400 l 1,6,7
 150 300 l 1,8,9
 188 300 l 1,10,11
 188 200 l 1,12,13
 262 200 l 1,14,15
 262 300 l 1,16,17
 300 300 l 1,18,19
 300 400 l 1,20,21
 338 400 l 1,22,23
 338 500 l 1,24,25
 412 500 l 1,26,27
 412 400 l 1,28,29
 375 400 l 1,30,31
 375 300 l 1,32,33
 338 300 l 1,34,35
 338 200 l 1,36,37
 300 200 l 1,38,39
 300 100 l 1,40,41
 262 100 l 1,42,43
 262 0 l 1,44,45
 188 0 l 1,46,47
 188 100 l 1,48,49
 150 100 l 1,50,51
 150 200 l 1,52,53
 112 200 l 1,54,55
 112 300 l 1,56,57
 75 300 l 1,58,59
 75 400 l 1,60,61
 38 400 l 1,62,63
 38 500 l 1,0,1
EndSplineSet
Validated: 1
EndChar

StartChar: w
Encoding: 119 119 90
Width: 450
GlyphClass: 2
Flags: W
LayerCount: 2
Back
Fore
SplineSet
338 500 m 1,0,1
 412 500 l 1,2,3
 412 200 l 1,4,5
 375 200 l 1,6,7
 375 100 l 1,8,9
 338 100 l 1,10,11
 338 0 l 1,12,13
 262 0 l 1,14,15
 262 100 l 1,16,17
 188 100 l 1,18,19
 188 0 l 1,20,21
 112 0 l 1,22,23
 112 100 l 1,24,25
 75 100 l 1,26,27
 75 200 l 1,28,29
 38 200 l 1,30,31
 38 500 l 1,32,33
 112 500 l 1,34,35
 112 200 l 1,36,37
 150 200 l 1,38,39
 150 100 l 1,40,41
 188 100 l 1,42,43
 188 400 l 1,44,45
 262 400 l 1,46,47
 262 100 l 1,48,49
 300 100 l 1,50,51
 300 200 l 1,52,53
 338 200 l 1,54,55
 338 500 l 1,0,1
EndSplineSet
Validated: 5
EndChar

StartChar: x
Encoding: 120 120 91
Width: 450
GlyphClass: 2
Flags: W
LayerCount: 2
Back
Fore
SplineSet
38 500 m 1,0,1
 150 500 l 1,2,3
 150 400 l 1,4,5
 188 400 l 1,6,7
 188 300 l 1,8,9
 262 300 l 1,10,11
 262 400 l 1,12,13
 300 400 l 1,14,15
 300 500 l 1,16,17
 412 500 l 1,18,19
 412 400 l 1,20,21
 338 400 l 1,22,23
 338 300 l 1,24,25
 300 300 l 1,26,27
 300 200 l 1,28,29
 338 200 l 1,30,31
 338 100 l 1,32,33
 412 100 l 1,34,35
 412 0 l 1,36,37
 300 0 l 1,38,39
 300 100 l 1,40,41
 262 100 l 1,42,43
 262 200 l 1,44,45
 188 200 l 1,46,47
 188 100 l 1,48,49
 150 100 l 1,50,51
 150 0 l 1,52,53
 38 0 l 1,54,55
 38 100 l 1,56,57
 112 100 l 1,58,59
 112 200 l 1,60,61
 150 200 l 1,62,63
 150 300 l 1,64,65
 112 300 l 1,66,67
 112 400 l 1,68,69
 38 400 l 1,70,71
 38 500 l 1,0,1
EndSplineSet
Validated: 1
EndChar

StartChar: y
Encoding: 121 121 92
Width: 450
GlyphClass: 2
Flags: W
LayerCount: 2
Back
Fore
SplineSet
81 500 m 1,0,1
 156 500 l 1,2,3
 156 400 l 1,4,5
 194 400 l 1,6,7
 194 300 l 1,8,9
 231 300 l 1,10,11
 231 200 l 1,12,13
 269 200 l 1,14,15
 269 300 l 1,16,17
 306 300 l 1,18,19
 306 400 l 1,20,21
 344 400 l 1,22,23
 344 500 l 1,24,25
 419 500 l 1,26,27
 419 400 l 1,28,29
 381 400 l 1,30,31
 381 300 l 1,32,33
 344 300 l 1,34,35
 344 200 l 1,36,37
 306 200 l 1,38,39
 306 100 l 1,40,41
 269 100 l 1,42,43
 269 0 l 1,44,45
 231 0 l 1,46,47
 231 -100 l 1,48,49
 194 -100 l 1,50,51
 194 -200 l 1,52,53
 81 -200 l 1,54,55
 81 -100 l 1,56,57
 156 -100 l 1,58,59
 156 0 l 1,60,61
 194 0 l 1,62,63
 194 200 l 1,64,65
 156 200 l 1,66,67
 156 300 l 1,68,69
 119 300 l 1,70,71
 119 400 l 1,72,73
 81 400 l 1,74,75
 81 500 l 1,0,1
EndSplineSet
Validated: 1
EndChar

StartChar: z
Encoding: 122 122 93
Width: 450
GlyphClass: 2
Flags: W
LayerCount: 2
Back
Fore
SplineSet
75 500 m 1,0,1
 375 500 l 1,2,3
 375 400 l 1,4,5
 300 400 l 1,6,7
 300 300 l 1,8,9
 262 300 l 1,10,11
 262 200 l 1,12,13
 225 200 l 1,14,15
 225 100 l 1,16,17
 375 100 l 1,18,19
 375 0 l 1,20,21
 75 0 l 1,22,23
 75 100 l 1,24,25
 150 100 l 1,26,27
 150 200 l 1,28,29
 188 200 l 1,30,31
 188 300 l 1,32,33
 225 300 l 1,34,35
 225 400 l 1,36,37
 75 400 l 1,38,39
 75 500 l 1,0,1
EndSplineSet
Validated: 1
EndChar

StartChar: braceleft
Encoding: 123 123 94
Width: 450
GlyphClass: 2
Flags: W
LayerCount: 2
Back
Fore
SplineSet
338 700 m 1,0,1
 338 600 l 1,2,3
 262 600 l 1,4,5
 262 400 l 1,6,7
 225 400 l 1,8,9
 225 300 l 1,10,11
 262 300 l 1,12,13
 262 100 l 1,14,15
 338 100 l 1,16,17
 338 0 l 1,18,19
 225 0 l 1,20,21
 225 100 l 1,22,23
 188 100 l 1,24,25
 188 300 l 1,26,27
 112 300 l 1,28,29
 112 400 l 1,30,31
 188 400 l 1,32,33
 188 600 l 1,34,35
 225 600 l 1,36,37
 225 700 l 1,38,39
 338 700 l 1,0,1
EndSplineSet
Validated: 1
EndChar

StartChar: bar
Encoding: 124 124 95
Width: 450
GlyphClass: 2
Flags: W
LayerCount: 2
Back
Fore
SplineSet
188 700 m 1,0,1
 262 700 l 1,2,3
 262 0 l 1,4,5
 188 0 l 1,6,7
 188 700 l 1,0,1
EndSplineSet
Validated: 1
EndChar

StartChar: braceright
Encoding: 125 125 96
Width: 450
GlyphClass: 2
Flags: W
LayerCount: 2
Back
Fore
SplineSet
112 700 m 1,0,1
 225 700 l 1,2,3
 225 600 l 1,4,5
 262 600 l 1,6,7
 262 400 l 1,8,9
 338 400 l 1,10,11
 338 300 l 1,12,13
 262 300 l 1,14,15
 262 100 l 1,16,17
 225 100 l 1,18,19
 225 0 l 1,20,21
 112 0 l 1,22,23
 112 100 l 1,24,25
 188 100 l 1,26,27
 188 300 l 1,28,29
 225 300 l 1,30,31
 225 400 l 1,32,33
 188 400 l 1,34,35
 188 600 l 1,36,37
 112 600 l 1,38,39
 112 700 l 1,0,1
EndSplineSet
Validated: 1
EndChar

StartChar: asciitilde
Encoding: 126 126 97
Width: 450
GlyphClass: 2
Flags: W
LayerCount: 2
Back
Fore
SplineSet
81 600 m 1,0,1
 119 600 l 1,2,3
 119 700 l 1,4,5
 269 700 l 1,6,7
 269 600 l 1,8,9
 344 600 l 1,10,11
 344 700 l 1,12,13
 419 700 l 1,14,15
 419 600 l 1,16,17
 381 600 l 1,18,19
 381 500 l 1,20,21
 231 500 l 1,22,23
 231 600 l 1,24,25
 156 600 l 1,26,27
 156 500 l 1,28,29
 144 500 144 500 119 500.5 c 0
 94 501 94 501 81 501 c 1,30,31
 81 600 l 1,0,1
EndSplineSet
Validated: 1
EndChar

StartChar: exclamdown
Encoding: 161 161 111
Width: 450
GlyphClass: 2
Flags: W
LayerCount: 2
Back
Fore
SplineSet
188 500 m 1,0,1
 262 500 l 1,2,3
 262 0 l 1,4,5
 188 0 l 1,6,7
 188 500 l 1,0,1
262 600 m 1,8,9
 188 600 l 1,10,11
 188 700 l 1,12,13
 262 700 l 1,14,15
 262 600 l 1,8,9
EndSplineSet
Validated: 1
EndChar

StartChar: cent
Encoding: 162 162 112
Width: 450
GlyphClass: 2
Flags: W
LayerCount: 2
Back
Fore
SplineSet
156 500 m 1,0,1
 419 500 l 1,2,3
 419 400 l 1,4,5
 194 400 l 1,6,7
 194 300 l 1,8,9
 156 300 l 1,10,11
 156 200 l 1,12,13
 194 200 l 1,14,15
 194 100 l 1,16,17
 419 100 l 1,18,19
 419 0 l 1,20,21
 156 0 l 1,22,23
 156 100 l 1,24,25
 119 100 l 1,26,27
 119 200 l 1,28,29
 81 200 l 1,30,31
 81 300 l 1,32,33
 119 300 l 1,34,35
 119 400 l 1,36,37
 156 400 l 1,38,39
 156 500 l 1,0,1
EndSplineSet
Validated: 1
EndChar

StartChar: sterling
Encoding: 163 163 113
Width: 450
GlyphClass: 2
Flags: W
LayerCount: 2
Back
Fore
SplineSet
81 0 m 1,0,1
 81 100 l 1,2,3
 119 100 l 1,4,5
 119 200 l 1,6,7
 156 200 l 1,8,9
 156 300 l 1,10,11
 81 300 l 1,12,13
 81 400 l 1,14,15
 156 400 l 1,16,17
 156 600 l 1,18,19
 194 600 l 1,20,21
 194 700 l 1,22,23
 344 700 l 1,24,25
 344 600 l 1,26,27
 381 600 l 1,28,29
 381 500 l 1,30,31
 306 500 l 1,32,33
 306 600 l 1,34,35
 231 600 l 1,36,37
 231 400 l 1,38,39
 306 400 l 1,40,41
 306 300 l 1,42,43
 231 300 l 1,44,45
 231 200 l 1,46,47
 194 200 l 1,48,49
 194 100 l 1,50,51
 419 100 l 1,52,53
 419 0 l 1,54,55
 81 0 l 1,0,1
EndSplineSet
Validated: 1
EndChar

StartChar: currency
Encoding: 164 164 114
Width: 450
GlyphClass: 2
Flags: W
LayerCount: 2
Back
Fore
SplineSet
150 300 m 1,0,1
 300 300 l 1,2,3
 300 500 l 1,4,5
 150 500 l 1,6,7
 150 300 l 1,0,1
0 700 m 1,8,9
 0 800 l 1,10,11
 75 800 l 1,12,13
 75 700 l 1,14,15
 112 700 l 1,16,17
 112 600 l 1,18,19
 338 600 l 1,20,21
 338 700 l 1,22,23
 375 700 l 1,24,25
 375 800 l 1,26,27
 450 800 l 1,28,29
 450 700 l 1,30,31
 412 700 l 1,32,33
 412 600 l 1,34,35
 375 600 l 1,36,37
 375 200 l 1,38,39
 412 200 l 1,40,41
 412 100 l 1,42,43
 450 100 l 1,44,45
 450 0 l 1,46,47
 375 0 l 1,48,49
 375 100 l 1,50,51
 338 100 l 1,52,53
 338 200 l 1,54,55
 112 200 l 1,56,57
 112 100 l 1,58,59
 75 100 l 1,60,61
 75 0 l 1,62,63
 0 0 l 1,64,65
 0 100 l 1,66,67
 38 100 l 1,68,69
 38 200 l 1,70,71
 75 200 l 1,72,73
 75 600 l 1,74,75
 38 600 l 1,76,77
 38 700 l 1,78,79
 0 700 l 1,8,9
EndSplineSet
Validated: 1
EndChar

StartChar: yen
Encoding: 165 165 115
Width: 450
GlyphClass: 2
Flags: W
LayerCount: 2
Back
Fore
SplineSet
75 600 m 1,0,1
 75 700 l 1,2,3
 150 700 l 1,4,5
 150 600 l 1,6,7
 188 600 l 1,8,9
 188 500 l 1,10,11
 262 500 l 1,12,13
 262 600 l 1,14,15
 300 600 l 1,16,17
 300 700 l 1,18,19
 375 700 l 1,20,21
 375 600 l 1,22,23
 338 600 l 1,24,25
 338 500 l 1,26,27
 300 500 l 1,28,29
 300 400 l 1,30,31
 262 400 l 1,32,33
 262 300 l 1,34,35
 412 300 l 1,36,37
 412 200 l 1,38,39
 262 200 l 1,40,41
 262 0 l 1,42,43
 188 0 l 1,44,45
 188 200 l 1,46,47
 38 200 l 1,48,49
 38 300 l 1,50,51
 188 300 l 1,52,53
 188 400 l 1,54,55
 150 400 l 1,56,57
 150 500 l 1,58,59
 112 500 l 1,60,61
 112 600 l 1,62,63
 75 600 l 1,0,1
EndSplineSet
Validated: 1
EndChar

StartChar: brokenbar
Encoding: 166 166 116
Width: 450
GlyphClass: 2
Flags: W
LayerCount: 2
Back
Fore
SplineSet
188 700 m 1,0,1
 262 700 l 1,2,3
 262 0 l 1,4,5
 188 0 l 1,6,7
 188 700 l 1,0,1
EndSplineSet
Validated: 1
EndChar

StartChar: section
Encoding: 167 167 117
Width: 450
GlyphClass: 2
Flags: W
LayerCount: 2
Back
Fore
SplineSet
262 400 m 1,0,1
 188 400 l 1,2,3
 188 300 l 1,4,5
 262 300 l 1,6,7
 262 400 l 1,0,1
338 500 m 1,8,9
 338 600 l 1,10,11
 225 600 l 1,12,13
 225 500 l 1,14,15
 300 500 l 1,16,17
 300 400 l 1,18,19
 338 400 l 1,20,21
 338 300 l 1,22,23
 300 300 l 1,24,25
 300 100 l 1,26,27
 262 100 l 1,28,29
 262 0 l 1,30,31
 75 0 l 1,32,33
 75 100 l 1,34,35
 38 100 l 1,36,37
 38 200 l 1,38,39
 112 200 l 1,40,41
 112 100 l 1,42,43
 225 100 l 1,44,45
 225 200 l 1,46,47
 150 200 l 1,48,49
 150 300 l 1,50,51
 112 300 l 1,52,53
 112 400 l 1,54,55
 150 400 l 1,56,57
 150 600 l 1,58,59
 188 600 l 1,60,61
 188 700 l 1,62,63
 375 700 l 1,64,65
 375 600 l 1,66,67
 412 600 l 1,68,69
 412 500 l 1,70,71
 338 500 l 1,8,9
EndSplineSet
Validated: 1
EndChar

StartChar: copyright
Encoding: 169 169 118
Width: 450
GlyphClass: 2
Flags: W
LayerCount: 2
Back
Fore
SplineSet
150 400 m 1,0,1
 150 500 l 1,2,3
 300 500 l 1,4,5
 300 400 l 1,6,7
 188 400 l 1,8,9
 188 300 l 1,10,11
 300 300 l 1,12,13
 300 200 l 1,14,15
 150 200 l 1,16,17
 150 300 l 1,18,19
 112 300 l 1,20,21
 112 400 l 1,22,23
 150 400 l 1,0,1
112 500 m 1,24,25
 75 500 l 1,26,27
 75 200 l 1,28,29
 112 200 l 1,30,31
 112 100 l 1,32,33
 338 100 l 1,34,35
 338 200 l 1,36,37
 375 200 l 1,38,39
 375 500 l 1,40,41
 338 500 l 1,42,43
 338 600 l 1,44,45
 112 600 l 1,46,47
 112 500 l 1,24,25
75 600 m 1,48,49
 75 700 l 1,50,51
 375 700 l 1,52,53
 375 600 l 1,54,55
 412 600 l 1,56,57
 412 500 l 1,58,59
 450 500 l 1,60,61
 450 200 l 1,62,63
 412 200 l 1,64,65
 412 100 l 1,66,67
 375 100 l 1,68,69
 375 0 l 1,70,71
 75 0 l 1,72,73
 75 100 l 1,74,75
 38 100 l 1,76,77
 38 200 l 1,78,79
 0 200 l 1,80,81
 0 500 l 1,82,83
 38 500 l 1,84,85
 38 600 l 1,86,87
 75 600 l 1,48,49
EndSplineSet
Validated: 1
EndChar

StartChar: guillemotleft
Encoding: 171 171 120
Width: 450
GlyphClass: 2
Flags: W
LayerCount: 2
Back
Fore
SplineSet
338 0 m 1,0,1
 338 100 l 1,2,3
 262 100 l 1,4,5
 262 200 l 1,6,7
 225 200 l 1,8,9
 225 300 l 1,10,11
 262 300 l 1,12,13
 262 400 l 1,14,15
 338 400 l 1,16,17
 338 500 l 1,18,19
 450 500 l 1,20,21
 450 400 l 1,22,23
 375 400 l 1,24,25
 375 300 l 1,26,27
 300 300 l 1,28,29
 300 200 l 1,30,31
 375 200 l 1,32,33
 375 100 l 1,34,35
 450 100 l 1,36,37
 450 0 l 1,38,39
 338 0 l 1,0,1
225 0 m 1,40,41
 112 0 l 1,42,43
 112 100 l 1,44,45
 38 100 l 1,46,47
 38 200 l 1,48,49
 0 200 l 1,50,51
 0 300 l 1,52,53
 38 300 l 1,54,55
 38 400 l 1,56,57
 112 400 l 1,58,59
 112 500 l 1,60,61
 225 500 l 1,62,63
 225 400 l 1,64,65
 150 400 l 1,66,67
 150 300 l 1,68,69
 75 300 l 1,70,71
 75 200 l 1,72,73
 150 200 l 1,74,75
 150 100 l 1,76,77
 225 100 l 1,78,79
 225 0 l 1,40,41
EndSplineSet
Validated: 1
EndChar

StartChar: logicalnot
Encoding: 172 172 121
Width: 450
GlyphClass: 2
Flags: W
LayerCount: 2
Back
Fore
SplineSet
38 -100 m 1,0,1
 38 0 l 1,2,3
 412 0 l 1,4,5
 412 -100 l 1,6,7
 38 -100 l 1,0,1
EndSplineSet
Validated: 1
EndChar

StartChar: registered
Encoding: 174 174 123
Width: 450
GlyphClass: 2
Flags: W
LayerCount: 2
Back
Fore
SplineSet
150 200 m 1,0,1
 150 500 l 1,2,3
 300 500 l 1,4,5
 300 400 l 1,6,7
 262 400 l 1,8,9
 262 300 l 1,10,11
 338 300 l 1,12,13
 338 200 l 1,14,15
 262 200 l 1,16,17
 262 300 l 1,18,19
 225 300 l 1,20,21
 225 200 l 1,22,23
 150 200 l 1,0,1
112 500 m 1,24,25
 75 500 l 1,26,27
 75 200 l 1,28,29
 112 200 l 1,30,31
 112 100 l 1,32,33
 338 100 l 1,34,35
 338 200 l 1,36,37
 375 200 l 1,38,39
 375 500 l 1,40,41
 338 500 l 1,42,43
 338 600 l 1,44,45
 112 600 l 1,46,47
 112 500 l 1,24,25
75 600 m 1,48,49
 75 700 l 1,50,51
 375 700 l 1,52,53
 375 600 l 1,54,55
 412 600 l 1,56,57
 412 500 l 1,58,59
 450 500 l 1,60,61
 450 200 l 1,62,63
 412 200 l 1,64,65
 412 100 l 1,66,67
 375 100 l 1,68,69
 375 0 l 1,70,71
 75 0 l 1,72,73
 75 100 l 1,74,75
 38 100 l 1,76,77
 38 200 l 1,78,79
 0 200 l 1,80,81
 0 500 l 1,82,83
 38 500 l 1,84,85
 38 600 l 1,86,87
 75 600 l 1,48,49
EndSplineSet
Validated: 5
EndChar

StartChar: degree
Encoding: 176 176 124
Width: 450
GlyphClass: 2
Flags: W
LayerCount: 2
Back
Fore
SplineSet
188 600 m 1,0,1
 188 500 l 1,2,3
 262 500 l 1,4,5
 262 600 l 1,6,7
 188 600 l 1,0,1
150 600 m 1,8,9
 150 700 l 1,10,11
 300 700 l 1,12,13
 300 600 l 1,14,15
 338 600 l 1,16,17
 338 500 l 1,18,19
 300 500 l 1,20,21
 300 400 l 1,22,23
 150 400 l 1,24,25
 150 500 l 1,26,27
 112 500 l 1,28,29
 112 600 l 1,30,31
 150 600 l 1,8,9
EndSplineSet
Validated: 1
EndChar

StartChar: plusminus
Encoding: 177 177 125
Width: 450
GlyphClass: 2
Flags: W
LayerCount: 2
Back
Fore
SplineSet
75 200 m 1,0,1
 375 200 l 1,2,3
 375 101 l 1,4,5
 325 101 325 101 225 100.5 c 0
 125 100 125 100 75 100 c 1,6,7
 75 200 l 1,0,1
75 550 m 1,8,9
 188 550 l 1,10,11
 188 700 l 1,12,13
 262 700 l 1,14,15
 262 550 l 1,16,17
 281 550 281 550 318.5 550.5 c 0
 356 551 356 551 375 551 c 1,18,19
 375 450 l 1,20,21
 262 450 l 1,22,23
 262 300 l 1,24,25
 188 300 l 1,26,27
 188 451 l 1,28,29
 75 451 l 1,30,31
 75 550 l 1,8,9
EndSplineSet
Validated: 1
EndChar

StartChar: uni00B2
Encoding: 178 178 126
Width: 450
GlyphClass: 2
Flags: W
LayerCount: 2
Back
Fore
SplineSet
150 700 m 1,0,1
 150 800 l 1,2,3
 300 800 l 1,4,5
 300 700 l 1,6,7
 338 700 l 1,8,9
 338 600 l 1,10,11
 300 600 l 1,12,13
 300 500 l 1,14,15
 225 500 l 1,16,17
 225 400 l 1,18,19
 338 400 l 1,20,21
 338 300 l 1,22,23
 112 300 l 1,24,25
 112 400 l 1,26,27
 150 400 l 1,28,29
 150 500 l 1,30,31
 225 500 l 1,32,33
 225 600 l 1,34,35
 262 600 l 1,36,37
 262 700 l 1,38,39
 188 700 l 1,40,41
 188 600 l 1,42,43
 112 600 l 1,44,45
 112 700 l 1,46,47
 150 700 l 1,0,1
EndSplineSet
Validated: 5
EndChar

StartChar: uni00B3
Encoding: 179 179 127
Width: 450
GlyphClass: 2
Flags: W
LayerCount: 2
Back
Fore
SplineSet
112 700 m 1,0,1
 112 800 l 1,2,3
 338 800 l 1,4,5
 338 600 l 1,6,7
 300 600 l 1,8,9
 300 500 l 1,10,11
 338 500 l 1,12,13
 338 400 l 1,14,15
 300 400 l 1,16,17
 300 300 l 1,18,19
 112 300 l 1,20,21
 112 400 l 1,22,23
 262 400 l 1,24,25
 262 500 l 1,26,27
 188 500 l 1,28,29
 188 600 l 1,30,31
 262 600 l 1,32,33
 262 700 l 1,34,35
 112 700 l 1,0,1
EndSplineSet
Validated: 1
EndChar

StartChar: acute
Encoding: 180 180 128
Width: 450
GlyphClass: 2
Flags: W
LayerCount: 2
Back
Fore
SplineSet
175 600 m 1,0,1
 175 700 l 1,2,3
 250 700 l 1,4,5
 250 600 l 1,6,7
 212 600 l 1,8,9
 212 500 l 1,10,11
 175 500 l 1,12,13
 175 400 l 1,14,15
 100 400 l 1,16,17
 100 500 l 1,18,19
 138 500 l 1,20,21
 138 600 l 1,22,23
 175 600 l 1,0,1
EndSplineSet
Validated: 1
EndChar

StartChar: mu
Encoding: 181 181 129
Width: 450
GlyphClass: 2
Flags: W
LayerCount: 2
Back
Fore
SplineSet
81 -200 m 1,0,1
 81 500 l 1,2,3
 156 500 l 1,4,5
 156 200 l 1,6,7
 194 200 l 1,8,9
 194 100 l 1,10,11
 306 100 l 1,12,13
 306 200 l 1,14,15
 344 200 l 1,16,17
 344 500 l 1,18,19
 419 500 l 1,20,21
 419 0 l 1,22,23
 344 0 l 1,24,25
 344 100 l 1,26,27
 306 100 l 1,28,29
 306 0 l 1,30,31
 194 0 l 1,32,33
 194 100 l 1,34,35
 156 100 l 1,36,37
 156 -200 l 1,38,39
 81 -200 l 1,0,1
EndSplineSet
Validated: 5
EndChar

StartChar: periodcentered
Encoding: 183 183 131
Width: 450
GlyphClass: 2
Flags: W
LayerCount: 2
Back
Fore
SplineSet
175 600 m 1,0,1
 175 700 l 1,2,3
 250 700 l 1,4,5
 250 600 l 1,6,7
 212 600 l 1,8,9
 212 500 l 1,10,11
 175 500 l 1,12,13
 175 400 l 1,14,15
 100 400 l 1,16,17
 100 500 l 1,18,19
 138 500 l 1,20,21
 138 600 l 1,22,23
 175 600 l 1,0,1
EndSplineSet
Validated: 1
EndChar

StartChar: uni00B9
Encoding: 185 185 132
Width: 450
GlyphClass: 2
Flags: W
LayerCount: 2
Back
Fore
SplineSet
231 700 m 1,0,1
 231 800 l 1,2,3
 306 800 l 1,4,5
 306 400 l 1,6,7
 231 400 l 1,8,9
 231 600 l 1,10,11
 194 600 l 1,12,13
 194 700 l 1,14,15
 231 700 l 1,0,1
EndSplineSet
Validated: 1
EndChar

StartChar: guillemotright
Encoding: 187 187 133
Width: 450
GlyphClass: 2
Flags: W
LayerCount: 2
Back
Fore
SplineSet
225 400 m 1,0,1
 225 500 l 1,2,3
 338 500 l 1,4,5
 338 400 l 1,6,7
 412 400 l 1,8,9
 412 300 l 1,10,11
 450 300 l 1,12,13
 450 200 l 1,14,15
 412 200 l 1,16,17
 412 100 l 1,18,19
 338 100 l 1,20,21
 338 0 l 1,22,23
 225 0 l 1,24,25
 225 100 l 1,26,27
 300 100 l 1,28,29
 300 200 l 1,30,31
 338 200 l 1,32,33
 338 300 l 1,34,35
 300 300 l 1,36,37
 300 400 l 1,38,39
 225 400 l 1,0,1
0 400 m 1,40,41
 0 500 l 1,42,43
 112 500 l 1,44,45
 112 400 l 1,46,47
 188 400 l 1,48,49
 188 300 l 1,50,51
 225 300 l 1,52,53
 225 200 l 1,54,55
 188 200 l 1,56,57
 188 100 l 1,58,59
 112 100 l 1,60,61
 112 0 l 1,62,63
 0 0 l 1,64,65
 0 100 l 1,66,67
 75 100 l 1,68,69
 75 200 l 1,70,71
 112 200 l 1,72,73
 112 300 l 1,74,75
 75 300 l 1,76,77
 75 400 l 1,78,79
 0 400 l 1,40,41
EndSplineSet
Validated: 1
EndChar

StartChar: onequarter
Encoding: 188 188 134
Width: 450
GlyphClass: 2
Flags: W
LayerCount: 2
Back
Fore
SplineSet
262 200 m 1,0,1
 262 300 l 1,2,3
 338 300 l 1,4,5
 338 200 l 1,6,7
 300 200 l 1,8,9
 300 100 l 1,10,11
 262 100 l 1,12,13
 262 0 l 1,14,15
 338 0 l 1,16,17
 338 100 l 1,18,19
 412 100 l 1,20,21
 412 -200 l 1,22,23
 338 -200 l 1,24,25
 338 -100 l 1,26,27
 188 -100 l 1,28,29
 188 100 l 1,30,31
 225 100 l 1,32,33
 225 200 l 1,34,35
 262 200 l 1,0,1
75 600 m 1,36,37
 75 700 l 1,38,39
 150 700 l 1,40,41
 150 200 l 1,42,43
 75 200 l 1,44,45
 75 500 l 1,46,47
 38 500 l 1,48,49
 38 600 l 1,50,51
 75 600 l 1,36,37
EndSplineSet
Validated: 1
EndChar

StartChar: onehalf
Encoding: 189 189 135
Width: 450
GlyphClass: 2
Flags: W
LayerCount: 2
Back
Fore
SplineSet
188 100 m 1,0,1
 188 200 l 1,2,3
 225 200 l 1,4,5
 225 300 l 1,6,7
 375 300 l 1,8,9
 375 200 l 1,10,11
 412 200 l 1,12,13
 412 100 l 1,14,15
 375 100 l 1,16,17
 375 0 l 1,18,19
 300 0 l 1,20,21
 300 -100 l 1,22,23
 412 -100 l 1,24,25
 412 -200 l 1,26,27
 188 -200 l 1,28,29
 188 -100 l 1,30,31
 225 -100 l 1,32,33
 225 0 l 1,34,35
 300 0 l 1,36,37
 300 100 l 1,38,39
 338 100 l 1,40,41
 338 200 l 1,42,43
 262 200 l 1,44,45
 262 100 l 1,46,47
 188 100 l 1,0,1
75 600 m 1,48,49
 75 700 l 1,50,51
 150 700 l 1,52,53
 150 200 l 1,54,55
 75 200 l 1,56,57
 75 500 l 1,58,59
 38 500 l 1,60,61
 38 600 l 1,62,63
 75 600 l 1,48,49
EndSplineSet
Validated: 5
EndChar

StartChar: threequarters
Encoding: 190 190 136
Width: 450
GlyphClass: 2
Flags: W
LayerCount: 2
Back
Fore
SplineSet
306 200 m 1,0,1
 306 300 l 1,2,3
 381 300 l 1,4,5
 381 200 l 1,6,7
 344 200 l 1,8,9
 344 100 l 1,10,11
 306 100 l 1,12,13
 306 0 l 1,14,15
 381 0 l 1,16,17
 381 100 l 1,18,19
 456 100 l 1,20,21
 456 -200 l 1,22,23
 381 -200 l 1,24,25
 381 -100 l 1,26,27
 231 -100 l 1,28,29
 231 100 l 1,30,31
 269 100 l 1,32,33
 269 200 l 1,34,35
 306 200 l 1,0,1
44 600 m 1,36,37
 44 700 l 1,38,39
 231 700 l 1,40,41
 231 500 l 1,42,43
 194 500 l 1,44,45
 194 400 l 1,46,47
 231 400 l 1,48,49
 231 300 l 1,50,51
 194 300 l 1,52,53
 194 200 l 1,54,55
 44 200 l 1,56,57
 44 300 l 1,58,59
 156 300 l 1,60,61
 156 400 l 1,62,63
 81 400 l 1,64,65
 81 500 l 1,66,67
 156 500 l 1,68,69
 156 600 l 1,70,71
 44 600 l 1,36,37
EndSplineSet
Validated: 1
EndChar

StartChar: questiondown
Encoding: 191 191 137
Width: 450
GlyphClass: 2
Flags: W
LayerCount: 2
Back
Fore
SplineSet
194 600 m 1,0,1
 194 700 l 1,2,3
 269 700 l 1,4,5
 269 600 l 1,6,7
 194 600 l 1,0,1
119 0 m 1,8,9
 119 100 l 1,10,11
 81 100 l 1,12,13
 81 300 l 1,14,15
 119 300 l 1,16,17
 119 400 l 1,18,19
 194 400 l 1,20,21
 194 500 l 1,22,23
 269 500 l 1,24,25
 269 400 l 1,26,27
 194 400 l 1,28,29
 194 300 l 1,30,31
 156 300 l 1,32,33
 156 100 l 1,34,35
 344 100 l 1,36,37
 344 300 l 1,38,39
 419 300 l 1,40,41
 419 100 l 1,42,43
 381 100 l 1,44,45
 381 0 l 1,46,47
 119 0 l 1,8,9
EndSplineSet
Validated: 5
EndChar

StartChar: Agrave
Encoding: 192 192 138
Width: 450
GlyphClass: 2
Flags: W
LayerCount: 2
Back
Fore
SplineSet
262 700 m 1,0,1
 262 800 l 1,2,3
 338 800 l 1,4,5
 338 700 l 1,6,7
 262 700 l 1,0,1
112 700 m 1,8,9
 112 800 l 1,10,11
 188 800 l 1,12,13
 188 700 l 1,14,15
 112 700 l 1,8,9
112 300 m 1,16,17
 338 300 l 1,18,19
 338 400 l 1,20,21
 300 400 l 1,22,23
 300 416 300 416 299.5 450 c 0
 299 484 299 484 299 500 c 1,24,25
 150 500 l 1,26,27
 150 484 150 484 149.5 450 c 0
 149 416 149 416 149 400 c 1,28,29
 112 400 l 1,30,31
 112 300 l 1,16,17
38 0 m 1,32,33
 38 400 l 1,34,35
 75 400 l 1,36,37
 75 500 l 1,38,39
 112 500 l 1,40,41
 112 600 l 1,42,43
 338 600 l 1,44,45
 338 500 l 1,46,47
 375 500 l 1,48,49
 375 400 l 1,50,51
 412 400 l 1,52,53
 412 0 l 1,54,55
 338 0 l 1,56,57
 338 200 l 1,58,59
 112 200 l 1,60,61
 112 0 l 1,62,63
 38 0 l 1,32,33
EndSplineSet
Validated: 1
EndChar

StartChar: Aacute
Encoding: 193 193 139
Width: 450
GlyphClass: 2
Flags: W
LayerCount: 2
Back
Fore
SplineSet
262 700 m 1,0,1
 262 800 l 1,2,3
 338 800 l 1,4,5
 338 700 l 1,6,7
 262 700 l 1,0,1
112 700 m 1,8,9
 112 800 l 1,10,11
 188 800 l 1,12,13
 188 700 l 1,14,15
 112 700 l 1,8,9
112 300 m 1,16,17
 338 300 l 1,18,19
 338 400 l 1,20,21
 300 400 l 1,22,23
 300 416 300 416 299.5 450 c 0
 299 484 299 484 299 500 c 1,24,25
 150 500 l 1,26,27
 150 484 150 484 149.5 450 c 0
 149 416 149 416 149 400 c 1,28,29
 112 400 l 1,30,31
 112 300 l 1,16,17
38 0 m 1,32,33
 38 400 l 1,34,35
 75 400 l 1,36,37
 75 500 l 1,38,39
 112 500 l 1,40,41
 112 600 l 1,42,43
 338 600 l 1,44,45
 338 500 l 1,46,47
 375 500 l 1,48,49
 375 400 l 1,50,51
 412 400 l 1,52,53
 412 0 l 1,54,55
 338 0 l 1,56,57
 338 200 l 1,58,59
 112 200 l 1,60,61
 112 0 l 1,62,63
 38 0 l 1,32,33
EndSplineSet
Validated: 1
EndChar

StartChar: Acircumflex
Encoding: 194 194 140
Width: 450
GlyphClass: 2
Flags: W
LayerCount: 2
Back
Fore
SplineSet
188 600 m 1,0,1
 262 600 l 1,2,3
 262 700 l 1,4,5
 188 700 l 1,6,7
 188 600 l 1,0,1
112 300 m 1,8,9
 338 300 l 1,10,11
 338 400 l 1,12,13
 300 400 l 1,14,15
 300 500 l 1,16,17
 150 500 l 1,18,19
 150 400 l 1,20,21
 112 400 l 1,22,23
 112 300 l 1,8,9
338 500 m 1,24,25
 375 500 l 1,26,27
 375 400 l 1,28,29
 412 400 l 1,30,31
 412 0 l 1,32,33
 338 0 l 1,34,35
 338 200 l 1,36,37
 112 200 l 1,38,39
 112 0 l 1,40,41
 38 0 l 1,42,43
 38 400 l 1,44,45
 75 400 l 1,46,47
 75 500 l 1,48,49
 112 500 l 1,50,51
 112 800 l 1,52,53
 338 800 l 1,54,55
 338 500 l 1,24,25
EndSplineSet
Validated: 1
EndChar

StartChar: Atilde
Encoding: 195 195 141
Width: 450
GlyphClass: 2
Flags: W
LayerCount: 2
Back
Fore
SplineSet
112 700 m 1,0,1
 112 800 l 1,2,3
 338 800 l 1,4,5
 338 700 l 1,6,7
 112 700 l 1,0,1
112 300 m 1,8,9
 338 300 l 1,10,11
 338 400 l 1,12,13
 300 400 l 1,14,15
 300 500 l 1,16,17
 150 500 l 1,18,19
 150 400 l 1,20,21
 112 400 l 1,22,23
 112 300 l 1,8,9
38 0 m 1,24,25
 38 400 l 1,26,27
 75 400 l 1,28,29
 75 500 l 1,30,31
 112 500 l 1,32,33
 112 600 l 1,34,35
 338 600 l 1,36,37
 338 500 l 1,38,39
 375 500 l 1,40,41
 375 400 l 1,42,43
 412 400 l 1,44,45
 412 0 l 1,46,47
 338 0 l 1,48,49
 338 200 l 1,50,51
 112 200 l 1,52,53
 112 0 l 1,54,55
 38 0 l 1,24,25
EndSplineSet
Validated: 1
EndChar

StartChar: Adieresis
Encoding: 196 196 142
Width: 450
GlyphClass: 2
Flags: W
LayerCount: 2
Back
Fore
SplineSet
262 700 m 1,0,1
 262 800 l 1,2,3
 338 800 l 1,4,5
 338 700 l 1,6,7
 262 700 l 1,0,1
112 700 m 1,8,9
 112 800 l 1,10,11
 188 800 l 1,12,13
 188 700 l 1,14,15
 112 700 l 1,8,9
112 300 m 1,16,17
 338 300 l 1,18,19
 338 400 l 1,20,21
 300 400 l 1,22,23
 300 500 l 1,24,25
 150 500 l 1,26,27
 150 400 l 1,28,29
 112 400 l 1,30,31
 112 300 l 1,16,17
38 0 m 1,32,33
 38 400 l 1,34,35
 75 400 l 1,36,37
 75 500 l 1,38,39
 112 500 l 1,40,41
 112 600 l 1,42,43
 338 600 l 1,44,45
 338 500 l 1,46,47
 375 500 l 1,48,49
 375 400 l 1,50,51
 412 400 l 1,52,53
 412 0 l 1,54,55
 338 0 l 1,56,57
 338 200 l 1,58,59
 112 200 l 1,60,61
 112 0 l 1,62,63
 38 0 l 1,32,33
EndSplineSet
Validated: 1
EndChar

StartChar: Aring
Encoding: 197 197 143
Width: 450
GlyphClass: 2
Flags: W
LayerCount: 2
Back
Fore
SplineSet
262 600 m 1,0,1
 262 700 l 1,2,3
 188 700 l 1,4,5
 188 600 l 1,6,7
 262 600 l 1,0,1
112 300 m 1,8,9
 338 300 l 1,10,11
 338 400 l 1,12,13
 300 400 l 1,14,15
 300 500 l 1,16,17
 150 500 l 1,18,19
 150 400 l 1,20,21
 112 400 l 1,22,23
 112 300 l 1,8,9
338 500 m 1,24,25
 375 500 l 1,26,27
 375 400 l 1,28,29
 412 400 l 1,30,31
 412 0 l 1,32,33
 338 0 l 1,34,35
 338 200 l 1,36,37
 112 200 l 1,38,39
 112 0 l 1,40,41
 38 0 l 1,42,43
 38 400 l 1,44,45
 75 400 l 1,46,47
 75 500 l 1,48,49
 112 500 l 1,50,51
 112 700 l 1,52,53
 150 700 l 1,54,55
 150 800 l 1,56,57
 300 800 l 1,58,59
 300 700 l 1,60,61
 338 700 l 1,62,63
 338 500 l 1,24,25
EndSplineSet
Validated: 1
EndChar

StartChar: AE
Encoding: 198 198 144
Width: 450
GlyphClass: 2
Flags: W
LayerCount: 2
Back
Fore
SplineSet
188 600 m 1,0,1
 188 500 l 1,2,3
 150 500 l 1,4,5
 150 400 l 1,6,7
 112 400 l 1,8,9
 112 300 l 1,10,11
 225 300 l 1,12,13
 225 600 l 1,14,15
 188 600 l 1,0,1
112 200 m 1,16,17
 112 0 l 1,18,19
 38 0 l 1,20,21
 38 400 l 1,22,23
 75 400 l 1,24,25
 75 500 l 1,26,27
 112 500 l 1,28,29
 112 600 l 1,30,31
 150 600 l 1,32,33
 150 700 l 1,34,35
 412 700 l 1,36,37
 412 600 l 1,38,39
 300 600 l 1,40,41
 300 400 l 1,42,43
 412 400 l 1,44,45
 412 300 l 1,46,47
 300 300 l 1,48,49
 300 100 l 1,50,51
 412 100 l 1,52,53
 412 0 l 1,54,55
 225 0 l 1,56,57
 225 200 l 1,58,59
 112 200 l 1,16,17
EndSplineSet
Validated: 1
EndChar

StartChar: Ccedilla
Encoding: 199 199 145
Width: 450
GlyphClass: 2
Flags: W
LayerCount: 2
Back
Fore
SplineSet
156 700 m 1,0,1
 381 700 l 1,2,3
 381 600 l 1,4,5
 419 600 l 1,6,7
 419 500 l 1,8,9
 344 500 l 1,10,11
 344 600 l 1,12,13
 194 600 l 1,14,15
 194 500 l 1,16,17
 156 500 l 1,18,19
 156 200 l 1,20,21
 194 200 l 1,22,23
 194 100 l 1,24,25
 344 100 l 1,26,27
 344 200 l 1,28,29
 419 200 l 1,30,31
 419 100 l 1,32,33
 381 100 l 1,34,35
 381 0 l 1,36,37
 156 0 l 1,38,39
 156 100 l 1,40,41
 119 100 l 1,42,43
 119 200 l 1,44,45
 81 200 l 1,46,47
 81 500 l 1,48,49
 119 500 l 1,50,51
 119 600 l 1,52,53
 156 600 l 1,54,55
 156 700 l 1,0,1
EndSplineSet
Validated: 1
EndChar

StartChar: Egrave
Encoding: 200 200 146
Width: 450
GlyphClass: 2
Flags: W
LayerCount: 2
Back
Fore
SplineSet
306 700 m 1,0,1
 306 800 l 1,2,3
 381 800 l 1,4,5
 381 700 l 1,6,7
 306 700 l 1,0,1
119 700 m 1,8,9
 119 800 l 1,10,11
 194 800 l 1,12,13
 194 700 l 1,14,15
 119 700 l 1,8,9
419 500 m 1,16,17
 156 500 l 1,18,19
 156 400 l 1,20,21
 344 400 l 1,22,23
 344 300 l 1,24,25
 156 300 l 1,26,27
 156 100 l 1,28,29
 419 100 l 1,30,31
 419 0 l 1,32,33
 81 0 l 1,34,35
 81 600 l 1,36,37
 419 600 l 1,38,39
 419 500 l 1,16,17
EndSplineSet
Validated: 1
EndChar

StartChar: Eacute
Encoding: 201 201 147
Width: 450
GlyphClass: 2
Flags: W
LayerCount: 2
Back
Fore
SplineSet
306 700 m 1,0,1
 306 800 l 1,2,3
 381 800 l 1,4,5
 381 700 l 1,6,7
 306 700 l 1,0,1
119 700 m 1,8,9
 119 800 l 1,10,11
 194 800 l 1,12,13
 194 700 l 1,14,15
 119 700 l 1,8,9
419 500 m 1,16,17
 156 500 l 1,18,19
 156 400 l 1,20,21
 344 400 l 1,22,23
 344 300 l 1,24,25
 156 300 l 1,26,27
 156 100 l 1,28,29
 419 100 l 1,30,31
 419 0 l 1,32,33
 81 0 l 1,34,35
 81 600 l 1,36,37
 419 600 l 1,38,39
 419 500 l 1,16,17
EndSplineSet
Validated: 1
EndChar

StartChar: Ecircumflex
Encoding: 202 202 148
Width: 450
GlyphClass: 2
Flags: W
LayerCount: 2
Back
Fore
SplineSet
306 700 m 1,0,1
 306 800 l 1,2,3
 381 800 l 1,4,5
 381 700 l 1,6,7
 306 700 l 1,0,1
119 700 m 1,8,9
 119 800 l 1,10,11
 194 800 l 1,12,13
 194 700 l 1,14,15
 119 700 l 1,8,9
419 500 m 1,16,17
 156 500 l 1,18,19
 156 400 l 1,20,21
 344 400 l 1,22,23
 344 300 l 1,24,25
 156 300 l 1,26,27
 156 100 l 1,28,29
 419 100 l 1,30,31
 419 0 l 1,32,33
 81 0 l 1,34,35
 81 600 l 1,36,37
 419 600 l 1,38,39
 419 500 l 1,16,17
EndSplineSet
Validated: 1
EndChar

StartChar: Edieresis
Encoding: 203 203 149
Width: 450
GlyphClass: 2
Flags: W
LayerCount: 2
Back
Fore
SplineSet
306 700 m 1,0,1
 306 800 l 1,2,3
 381 800 l 1,4,5
 381 700 l 1,6,7
 306 700 l 1,0,1
119 700 m 1,8,9
 119 800 l 1,10,11
 194 800 l 1,12,13
 194 700 l 1,14,15
 119 700 l 1,8,9
419 500 m 1,16,17
 156 500 l 1,18,19
 156 400 l 1,20,21
 344 400 l 1,22,23
 344 300 l 1,24,25
 156 300 l 1,26,27
 156 100 l 1,28,29
 419 100 l 1,30,31
 419 0 l 1,32,33
 81 0 l 1,34,35
 81 600 l 1,36,37
 419 600 l 1,38,39
 419 500 l 1,16,17
EndSplineSet
Validated: 1
EndChar

StartChar: Igrave
Encoding: 204 204 150
Width: 450
GlyphClass: 2
Flags: W
LayerCount: 2
Back
Fore
SplineSet
75 700 m 1,0,1
 375 700 l 1,2,3
 375 600 l 1,4,5
 262 600 l 1,6,7
 262 100 l 1,8,9
 375 100 l 1,10,11
 375 0 l 1,12,13
 75 0 l 1,14,15
 75 100 l 1,16,17
 188 100 l 1,18,19
 188 600 l 1,20,21
 75 600 l 1,22,23
 75 700 l 1,0,1
EndSplineSet
Validated: 1
EndChar

StartChar: Iacute
Encoding: 205 205 151
Width: 450
GlyphClass: 2
Flags: W
LayerCount: 2
Back
Fore
SplineSet
75 700 m 1,0,1
 375 700 l 1,2,3
 375 600 l 1,4,5
 262 600 l 1,6,7
 262 100 l 1,8,9
 375 100 l 1,10,11
 375 0 l 1,12,13
 75 0 l 1,14,15
 75 100 l 1,16,17
 188 100 l 1,18,19
 188 600 l 1,20,21
 75 600 l 1,22,23
 75 700 l 1,0,1
EndSplineSet
Validated: 1
EndChar

StartChar: Icircumflex
Encoding: 206 206 152
Width: 450
GlyphClass: 2
Flags: W
LayerCount: 2
Back
Fore
SplineSet
75 700 m 1,0,1
 375 700 l 1,2,3
 375 600 l 1,4,5
 262 600 l 1,6,7
 262 100 l 1,8,9
 375 100 l 1,10,11
 375 0 l 1,12,13
 75 0 l 1,14,15
 75 100 l 1,16,17
 188 100 l 1,18,19
 188 600 l 1,20,21
 75 600 l 1,22,23
 75 700 l 1,0,1
EndSplineSet
Validated: 1
EndChar

StartChar: Idieresis
Encoding: 207 207 153
Width: 450
GlyphClass: 2
Flags: W
LayerCount: 2
Back
Fore
SplineSet
75 700 m 1,0,1
 375 700 l 1,2,3
 375 600 l 1,4,5
 262 600 l 1,6,7
 262 100 l 1,8,9
 375 100 l 1,10,11
 375 0 l 1,12,13
 75 0 l 1,14,15
 75 100 l 1,16,17
 188 100 l 1,18,19
 188 600 l 1,20,21
 75 600 l 1,22,23
 75 700 l 1,0,1
EndSplineSet
Validated: 1
EndChar

StartChar: Eth
Encoding: 208 208 154
Width: 450
GlyphClass: 2
Flags: W
LayerCount: 2
Back
Fore
SplineSet
156 600 m 1,0,1
 156 100 l 1,2,3
 306 100 l 1,4,5
 306 200 l 1,6,7
 344 200 l 1,8,9
 344 500 l 1,10,11
 306 500 l 1,12,13
 306 600 l 1,14,15
 156 600 l 1,0,1
81 700 m 1,16,17
 344 700 l 1,18,19
 344 600 l 1,20,21
 381 600 l 1,22,23
 381 500 l 1,24,25
 419 500 l 1,26,27
 419 200 l 1,28,29
 381 200 l 1,30,31
 381 100 l 1,32,33
 344 100 l 1,34,35
 344 0 l 1,36,37
 81 0 l 1,38,39
 81 700 l 1,16,17
EndSplineSet
Validated: 1
EndChar

StartChar: Ntilde
Encoding: 209 209 155
Width: 450
GlyphClass: 2
Flags: W
LayerCount: 2
Back
Fore
SplineSet
112 700 m 1,0,1
 112 800 l 1,2,3
 338 800 l 1,4,5
 338 700 l 1,6,7
 112 700 l 1,0,1
38 0 m 1,8,9
 38 600 l 1,10,11
 188 600 l 1,12,13
 188 500 l 1,14,15
 225 500 l 1,16,17
 225 400 l 1,18,19
 262 400 l 1,20,21
 262 200 l 1,22,23
 300 200 l 1,24,25
 300 100 l 1,26,27
 338 100 l 1,28,29
 338 600 l 1,30,31
 412 600 l 1,32,33
 412 0 l 1,34,35
 262 0 l 1,36,37
 262 100 l 1,38,39
 225 100 l 1,40,41
 225 200 l 1,42,43
 188 200 l 1,44,45
 188 400 l 1,46,47
 150 400 l 1,48,49
 150 500 l 1,50,51
 112 500 l 1,52,53
 112 0 l 1,54,55
 38 0 l 1,8,9
EndSplineSet
Validated: 1
EndChar

StartChar: Ograve
Encoding: 210 210 156
Width: 450
GlyphClass: 2
Flags: W
LayerCount: 2
Back
Fore
SplineSet
150 500 m 1,0,1
 150 400 l 1,2,3
 112 400 l 1,4,5
 112 200 l 1,6,7
 150 200 l 1,8,9
 150 100 l 1,10,11
 300 100 l 1,12,13
 300 200 l 1,14,15
 338 200 l 1,16,17
 338 400 l 1,18,19
 300 400 l 1,20,21
 300 500 l 1,22,23
 150 500 l 1,0,1
338 500 m 1,24,25
 375 500 l 1,26,27
 375 400 l 1,28,29
 412 400 l 1,30,31
 412 200 l 1,32,33
 375 200 l 1,34,35
 375 100 l 1,36,37
 338 100 l 1,38,39
 338 0 l 1,40,41
 112 0 l 1,42,43
 112 100 l 1,44,45
 75 100 l 1,46,47
 75 200 l 1,48,49
 38 200 l 1,50,51
 38 400 l 1,52,53
 75 400 l 1,54,55
 75 500 l 1,56,57
 112 500 l 1,58,59
 112 600 l 1,60,61
 188 600 l 1,62,63
 188 700 l 1,64,65
 150 700 l 1,66,67
 150 800 l 1,68,69
 225 800 l 1,70,71
 225 700 l 1,72,73
 262 700 l 1,74,75
 262 600 l 1,76,77
 338 600 l 1,78,79
 338 500 l 1,24,25
EndSplineSet
Validated: 1
EndChar

StartChar: Oacute
Encoding: 211 211 157
Width: 450
GlyphClass: 2
Flags: W
LayerCount: 2
Back
Fore
SplineSet
150 500 m 1,0,1
 150 400 l 1,2,3
 112 400 l 1,4,5
 112 200 l 1,6,7
 150 200 l 1,8,9
 150 100 l 1,10,11
 300 100 l 1,12,13
 300 200 l 1,14,15
 338 200 l 1,16,17
 338 400 l 1,18,19
 300 400 l 1,20,21
 300 500 l 1,22,23
 150 500 l 1,0,1
338 500 m 1,24,25
 375 500 l 1,26,27
 375 400 l 1,28,29
 412 400 l 1,30,31
 412 200 l 1,32,33
 375 200 l 1,34,35
 375 100 l 1,36,37
 338 100 l 1,38,39
 338 0 l 1,40,41
 112 0 l 1,42,43
 112 100 l 1,44,45
 75 100 l 1,46,47
 75 200 l 1,48,49
 38 200 l 1,50,51
 38 400 l 1,52,53
 75 400 l 1,54,55
 75 500 l 1,56,57
 112 500 l 1,58,59
 112 600 l 1,60,61
 188 600 l 1,62,63
 188 700 l 1,64,65
 225 700 l 1,66,67
 225 800 l 1,68,69
 300 800 l 1,70,71
 300 700 l 1,72,73
 262 700 l 1,74,75
 262 600 l 1,76,77
 338 600 l 1,78,79
 338 500 l 1,24,25
EndSplineSet
Validated: 1
EndChar

StartChar: Ocircumflex
Encoding: 212 212 158
Width: 450
GlyphClass: 2
Flags: W
LayerCount: 2
Back
Fore
SplineSet
150 500 m 1,0,1
 150 400 l 1,2,3
 112 400 l 1,4,5
 112 200 l 1,6,7
 150 200 l 1,8,9
 150 100 l 1,10,11
 300 100 l 1,12,13
 300 200 l 1,14,15
 338 200 l 1,16,17
 338 400 l 1,18,19
 300 400 l 1,20,21
 300 500 l 1,22,23
 150 500 l 1,0,1
112 600 m 1,24,25
 338 600 l 1,26,27
 338 500 l 1,28,29
 375 500 l 1,30,31
 375 400 l 1,32,33
 412 400 l 1,34,35
 412 200 l 1,36,37
 375 200 l 1,38,39
 375 100 l 1,40,41
 338 100 l 1,42,43
 338 0 l 1,44,45
 112 0 l 1,46,47
 112 100 l 1,48,49
 75 100 l 1,50,51
 75 200 l 1,52,53
 38 200 l 1,54,55
 38 400 l 1,56,57
 75 400 l 1,58,59
 75 500 l 1,60,61
 112 500 l 1,62,63
 112 600 l 1,24,25
188 700 m 1,64,65
 188 800 l 1,66,67
 262 800 l 1,68,69
 262 700 l 1,70,71
 188 700 l 1,64,65
EndSplineSet
Validated: 1
EndChar

StartChar: Otilde
Encoding: 213 213 159
Width: 450
GlyphClass: 2
Flags: W
LayerCount: 2
Back
Fore
SplineSet
150 500 m 1,0,1
 150 400 l 1,2,3
 112 400 l 1,4,5
 112 200 l 1,6,7
 150 200 l 1,8,9
 150 100 l 1,10,11
 300 100 l 1,12,13
 300 200 l 1,14,15
 338 200 l 1,16,17
 338 400 l 1,18,19
 300 400 l 1,20,21
 300 500 l 1,22,23
 150 500 l 1,0,1
112 600 m 1,24,25
 338 600 l 1,26,27
 338 500 l 1,28,29
 375 500 l 1,30,31
 375 400 l 1,32,33
 412 400 l 1,34,35
 412 200 l 1,36,37
 375 200 l 1,38,39
 375 100 l 1,40,41
 338 100 l 1,42,43
 338 0 l 1,44,45
 112 0 l 1,46,47
 112 100 l 1,48,49
 75 100 l 1,50,51
 75 200 l 1,52,53
 38 200 l 1,54,55
 38 400 l 1,56,57
 75 400 l 1,58,59
 75 500 l 1,60,61
 112 500 l 1,62,63
 112 600 l 1,24,25
112 700 m 1,64,65
 112 800 l 1,66,67
 338 800 l 1,68,69
 338 700 l 1,70,71
 112 700 l 1,64,65
EndSplineSet
Validated: 1
EndChar

StartChar: Odieresis
Encoding: 214 214 160
Width: 450
GlyphClass: 2
Flags: W
LayerCount: 2
Back
Fore
SplineSet
150 500 m 1,0,1
 150 400 l 1,2,3
 112 400 l 1,4,5
 112 200 l 1,6,7
 150 200 l 1,8,9
 150 100 l 1,10,11
 300 100 l 1,12,13
 300 200 l 1,14,15
 338 200 l 1,16,17
 338 400 l 1,18,19
 300 400 l 1,20,21
 300 500 l 1,22,23
 150 500 l 1,0,1
112 600 m 1,24,25
 338 600 l 1,26,27
 338 500 l 1,28,29
 375 500 l 1,30,31
 375 400 l 1,32,33
 412 400 l 1,34,35
 412 200 l 1,36,37
 375 200 l 1,38,39
 375 100 l 1,40,41
 338 100 l 1,42,43
 338 0 l 1,44,45
 112 0 l 1,46,47
 112 100 l 1,48,49
 75 100 l 1,50,51
 75 200 l 1,52,53
 38 200 l 1,54,55
 38 400 l 1,56,57
 75 400 l 1,58,59
 75 500 l 1,60,61
 112 500 l 1,62,63
 112 600 l 1,24,25
262 700 m 1,64,65
 262 800 l 1,66,67
 338 800 l 1,68,69
 338 700 l 1,70,71
 262 700 l 1,64,65
112 700 m 1,72,73
 112 800 l 1,74,75
 188 800 l 1,76,77
 188 700 l 1,78,79
 112 700 l 1,72,73
EndSplineSet
Validated: 1
EndChar

StartChar: multiply
Encoding: 215 215 161
Width: 450
GlyphClass: 2
Flags: W
LayerCount: 2
Back
Fore
SplineSet
112 200 m 1,0,1
 112 300 l 1,2,3
 188 300 l 1,4,5
 188 400 l 1,6,7
 112 400 l 1,8,9
 112 500 l 1,10,11
 188 500 l 1,12,13
 188 400 l 1,14,15
 262 400 l 1,16,17
 262 500 l 1,18,19
 338 500 l 1,20,21
 338 400 l 1,22,23
 262 400 l 1,24,25
 262 300 l 1,26,27
 338 300 l 1,28,29
 338 200 l 1,30,31
 262 200 l 1,32,33
 262 300 l 1,34,35
 188 300 l 1,36,37
 188 200 l 1,38,39
 112 200 l 1,0,1
EndSplineSet
Validated: 5
EndChar

StartChar: Oslash
Encoding: 216 216 162
Width: 450
GlyphClass: 2
Flags: W
LayerCount: 2
Back
Fore
SplineSet
300 100 m 1,0,1
 300 200 l 1,2,3
 338 200 l 1,4,5
 338 500 l 1,6,7
 300 500 l 1,8,9
 300 600 l 1,10,11
 150 600 l 1,12,13
 150 500 l 1,14,15
 112 500 l 1,16,17
 112 200 l 1,18,19
 150 200 l 1,20,21
 150 100 l 1,22,23
 300 100 l 1,0,1
338 0 m 1,24,25
 112 0 l 1,26,27
 112 100 l 1,28,29
 75 100 l 1,30,31
 75 200 l 1,32,33
 38 200 l 1,34,35
 38 500 l 1,36,37
 75 500 l 1,38,39
 75 600 l 1,40,41
 112 600 l 1,42,43
 112 700 l 1,44,45
 338 700 l 1,46,47
 338 600 l 1,48,49
 375 600 l 1,50,51
 375 500 l 1,52,53
 412 500 l 1,54,55
 412 200 l 1,56,57
 375 200 l 1,58,59
 375 100 l 1,60,61
 338 100 l 1,62,63
 338 0 l 1,24,25
EndSplineSet
Validated: 1
EndChar

StartChar: Ugrave
Encoding: 217 217 163
Width: 450
GlyphClass: 2
Flags: W
LayerCount: 2
Back
Fore
SplineSet
231 600 m 1,0,1
 231 700 l 1,2,3
 194 700 l 1,4,5
 194 800 l 1,6,7
 269 800 l 1,8,9
 269 700 l 1,10,11
 306 700 l 1,12,13
 306 600 l 1,14,15
 231 600 l 1,0,1
81 600 m 1,16,17
 156 600 l 1,18,19
 156 100 l 1,20,21
 344 100 l 1,22,23
 344 600 l 1,24,25
 419 600 l 1,26,27
 419 100 l 1,28,29
 381 100 l 1,30,31
 381 0 l 1,32,33
 119 0 l 1,34,35
 119 100 l 1,36,37
 81 100 l 1,38,39
 81 600 l 1,16,17
EndSplineSet
Validated: 1
EndChar

StartChar: Uacute
Encoding: 218 218 164
Width: 450
GlyphClass: 2
Flags: W
LayerCount: 2
Back
Fore
SplineSet
81 600 m 1,0,1
 156 600 l 1,2,3
 156 100 l 1,4,5
 344 100 l 1,6,7
 344 600 l 1,8,9
 419 600 l 1,10,11
 419 100 l 1,12,13
 381 100 l 1,14,15
 381 0 l 1,16,17
 119 0 l 1,18,19
 119 100 l 1,20,21
 81 100 l 1,22,23
 81 600 l 1,0,1
EndSplineSet
Validated: 1
EndChar

StartChar: Ucircumflex
Encoding: 219 219 165
Width: 450
GlyphClass: 2
Flags: W
LayerCount: 2
Back
Fore
SplineSet
306 800 m 1,0,1
 381 800 l 1,2,3
 381 700 l 1,4,5
 306 700 l 1,6,7
 306 800 l 1,0,1
119 700 m 1,8,9
 119 800 l 1,10,11
 194 800 l 1,12,13
 194 700 l 1,14,15
 119 700 l 1,8,9
81 600 m 1,16,17
 156 600 l 1,18,19
 156 100 l 1,20,21
 344 100 l 1,22,23
 344 600 l 1,24,25
 419 600 l 1,26,27
 419 100 l 1,28,29
 381 100 l 1,30,31
 381 0 l 1,32,33
 119 0 l 1,34,35
 119 100 l 1,36,37
 81 100 l 1,38,39
 81 600 l 1,16,17
EndSplineSet
Validated: 1
EndChar

StartChar: Udieresis
Encoding: 220 220 166
Width: 450
GlyphClass: 2
Flags: W
LayerCount: 2
Back
Fore
SplineSet
306 800 m 1,0,1
 381 800 l 1,2,3
 381 700 l 1,4,5
 306 700 l 1,6,7
 306 800 l 1,0,1
119 700 m 1,8,9
 119 800 l 1,10,11
 194 800 l 1,12,13
 194 700 l 1,14,15
 119 700 l 1,8,9
81 600 m 1,16,17
 156 600 l 1,18,19
 156 100 l 1,20,21
 344 100 l 1,22,23
 344 600 l 1,24,25
 419 600 l 1,26,27
 419 100 l 1,28,29
 381 100 l 1,30,31
 381 0 l 1,32,33
 119 0 l 1,34,35
 119 100 l 1,36,37
 81 100 l 1,38,39
 81 600 l 1,16,17
EndSplineSet
Validated: 1
EndChar

StartChar: germandbls
Encoding: 223 223 167
Width: 450
GlyphClass: 2
Flags: W
LayerCount: 2
Back
Fore
SplineSet
156 600 m 1,0,1
 156 700 l 1,2,3
 344 700 l 1,4,5
 344 600 l 1,6,7
 381 600 l 1,8,9
 381 400 l 1,10,11
 344 400 l 1,12,13
 344 300 l 1,14,15
 419 300 l 1,16,17
 419 100 l 1,18,19
 381 100 l 1,20,21
 381 0 l 1,22,23
 194 0 l 1,24,25
 194 100 l 1,26,27
 344 100 l 1,28,29
 344 300 l 1,30,31
 231 300 l 1,32,33
 231 400 l 1,34,35
 306 400 l 1,36,37
 306 600 l 1,38,39
 194 600 l 1,40,41
 194 500 l 1,42,43
 156 500 l 1,44,45
 156 0 l 1,46,47
 81 0 l 1,48,49
 81 500 l 1,50,51
 119 500 l 1,52,53
 119 600 l 1,54,55
 156 600 l 1,0,1
EndSplineSet
Validated: 5
EndChar

StartChar: agrave
Encoding: 224 224 168
Width: 450
GlyphClass: 2
Flags: W
LayerCount: 2
Back
Fore
SplineSet
188 600 m 1,0,1
 188 700 l 1,2,3
 150 700 l 1,4,5
 150 800 l 1,6,7
 225 800 l 1,8,9
 225 700 l 1,10,11
 262 700 l 1,12,13
 262 600 l 1,14,15
 188 600 l 1,0,1
112 200 m 1,16,17
 112 100 l 1,18,19
 300 100 l 1,20,21
 300 200 l 1,22,23
 112 200 l 1,16,17
75 500 m 1,24,25
 338 500 l 1,26,27
 338 400 l 1,28,29
 375 400 l 1,30,31
 375 100 l 1,32,33
 412 100 l 1,34,35
 412 0 l 1,36,37
 75 0 l 1,38,39
 75 100 l 1,40,41
 38 100 l 1,42,43
 38 200 l 1,44,45
 75 200 l 1,46,47
 75 300 l 1,48,49
 300 300 l 1,50,51
 300 400 l 1,52,53
 75 400 l 1,54,55
 75 500 l 1,24,25
EndSplineSet
Validated: 1
EndChar

StartChar: aacute
Encoding: 225 225 169
Width: 450
GlyphClass: 2
Flags: W
LayerCount: 2
Back
Fore
SplineSet
150 600 m 1,0,1
 150 700 l 1,2,3
 188 700 l 1,4,5
 188 800 l 1,6,7
 262 800 l 1,8,9
 262 700 l 1,10,11
 225 700 l 1,12,13
 225 600 l 1,14,15
 150 600 l 1,0,1
112 200 m 1,16,17
 112 100 l 1,18,19
 300 100 l 1,20,21
 300 200 l 1,22,23
 112 200 l 1,16,17
75 500 m 1,24,25
 338 500 l 1,26,27
 338 400 l 1,28,29
 375 400 l 1,30,31
 375 100 l 1,32,33
 412 100 l 1,34,35
 412 0 l 1,36,37
 75 0 l 1,38,39
 75 100 l 1,40,41
 38 100 l 1,42,43
 38 200 l 1,44,45
 75 200 l 1,46,47
 75 300 l 1,48,49
 300 300 l 1,50,51
 300 400 l 1,52,53
 75 400 l 1,54,55
 75 500 l 1,24,25
EndSplineSet
Validated: 1
EndChar

StartChar: acircumflex
Encoding: 226 226 170
Width: 450
GlyphClass: 2
Flags: W
LayerCount: 2
Back
Fore
SplineSet
112 600 m 1,0,1
 112 700 l 1,2,3
 150 700 l 1,4,5
 150 800 l 1,6,7
 262 800 l 1,8,9
 262 700 l 1,10,11
 300 700 l 1,12,13
 300 600 l 1,14,15
 225 600 l 1,16,17
 225 700 l 1,18,19
 188 700 l 1,20,21
 188 600 l 1,22,23
 112 600 l 1,0,1
112 200 m 1,24,25
 112 100 l 1,26,27
 300 100 l 1,28,29
 300 200 l 1,30,31
 112 200 l 1,24,25
75 500 m 1,32,33
 338 500 l 1,34,35
 338 400 l 1,36,37
 375 400 l 1,38,39
 375 100 l 1,40,41
 412 100 l 1,42,43
 412 0 l 1,44,45
 75 0 l 1,46,47
 75 100 l 1,48,49
 38 100 l 1,50,51
 38 200 l 1,52,53
 75 200 l 1,54,55
 75 300 l 1,56,57
 300 300 l 1,58,59
 300 400 l 1,60,61
 75 400 l 1,62,63
 75 500 l 1,32,33
EndSplineSet
Validated: 1
EndChar

StartChar: atilde
Encoding: 227 227 171
Width: 450
GlyphClass: 2
Flags: W
LayerCount: 2
Back
Fore
SplineSet
75 600 m 1,0,1
 75 700 l 1,2,3
 112 700 l 1,4,5
 112 800 l 1,6,7
 225 800 l 1,8,9
 225 700 l 1,10,11
 262 700 l 1,12,13
 262 800 l 1,14,15
 338 800 l 1,16,17
 338 700 l 1,18,19
 300 700 l 1,20,21
 300 600 l 1,22,23
 188 600 l 1,24,25
 188 700 l 1,26,27
 150 700 l 1,28,29
 150 600 l 1,30,31
 75 600 l 1,0,1
112 200 m 1,32,33
 112 100 l 1,34,35
 300 100 l 1,36,37
 300 200 l 1,38,39
 112 200 l 1,32,33
75 500 m 1,40,41
 338 500 l 1,42,43
 338 400 l 1,44,45
 375 400 l 1,46,47
 375 100 l 1,48,49
 412 100 l 1,50,51
 412 0 l 1,52,53
 75 0 l 1,54,55
 75 100 l 1,56,57
 38 100 l 1,58,59
 38 200 l 1,60,61
 75 200 l 1,62,63
 75 300 l 1,64,65
 300 300 l 1,66,67
 300 400 l 1,68,69
 75 400 l 1,70,71
 75 500 l 1,40,41
EndSplineSet
Validated: 1
EndChar

StartChar: adieresis
Encoding: 228 228 172
Width: 450
GlyphClass: 2
Flags: W
LayerCount: 2
Back
Fore
SplineSet
262 600 m 1,0,1
 262 700 l 1,2,3
 338 700 l 1,4,5
 338 600 l 1,6,7
 262 600 l 1,0,1
112 600 m 1,8,9
 112 700 l 1,10,11
 188 700 l 1,12,13
 188 600 l 1,14,15
 112 600 l 1,8,9
112 200 m 1,16,17
 112 100 l 1,18,19
 300 100 l 1,20,21
 300 200 l 1,22,23
 112 200 l 1,16,17
75 500 m 1,24,25
 338 500 l 1,26,27
 338 400 l 1,28,29
 375 400 l 1,30,31
 375 100 l 1,32,33
 412 100 l 1,34,35
 412 0 l 1,36,37
 75 0 l 1,38,39
 75 100 l 1,40,41
 38 100 l 1,42,43
 38 200 l 1,44,45
 75 200 l 1,46,47
 75 300 l 1,48,49
 300 300 l 1,50,51
 300 400 l 1,52,53
 75 400 l 1,54,55
 75 500 l 1,24,25
EndSplineSet
Validated: 1
EndChar

StartChar: aring
Encoding: 229 229 173
Width: 450
GlyphClass: 2
Flags: W
LayerCount: 2
Back
Fore
SplineSet
262 600 m 1,0,1
 262 700 l 1,2,3
 338 700 l 1,4,5
 338 600 l 1,6,7
 262 600 l 1,0,1
112 600 m 1,8,9
 112 700 l 1,10,11
 188 700 l 1,12,13
 188 600 l 1,14,15
 112 600 l 1,8,9
112 200 m 1,16,17
 112 100 l 1,18,19
 300 100 l 1,20,21
 300 200 l 1,22,23
 112 200 l 1,16,17
75 500 m 1,24,25
 338 500 l 1,26,27
 338 400 l 1,28,29
 375 400 l 1,30,31
 375 100 l 1,32,33
 412 100 l 1,34,35
 412 0 l 1,36,37
 75 0 l 1,38,39
 75 100 l 1,40,41
 38 100 l 1,42,43
 38 200 l 1,44,45
 75 200 l 1,46,47
 75 300 l 1,48,49
 300 300 l 1,50,51
 300 400 l 1,52,53
 75 400 l 1,54,55
 75 500 l 1,24,25
EndSplineSet
Validated: 1
EndChar

StartChar: ae
Encoding: 230 230 174
Width: 450
GlyphClass: 2
Flags: W
LayerCount: 2
Back
Fore
SplineSet
306 300 m 1,0,1
 381 300 l 1,2,3
 381 400 l 1,4,5
 306 400 l 1,6,7
 306 300 l 1,0,1
119 100 m 1,8,9
 194 100 l 1,10,11
 194 200 l 1,12,13
 119 200 l 1,14,15
 119 100 l 1,8,9
81 0 m 1,16,17
 81 100 l 1,18,19
 44 100 l 1,20,21
 44 200 l 1,22,23
 81 200 l 1,24,25
 81 300 l 1,26,27
 194 300 l 1,28,29
 194 400 l 1,30,31
 81 400 l 1,32,33
 81 500 l 1,34,35
 231 500 l 1,36,37
 231 400 l 1,38,39
 306 400 l 1,40,41
 306 500 l 1,42,43
 419 500 l 1,44,45
 419 400 l 1,46,47
 456 400 l 1,48,49
 456 200 l 1,50,51
 306 200 l 1,52,53
 306 100 l 1,54,55
 456 100 l 1,56,57
 456 0 l 1,58,59
 269 0 l 1,60,61
 269 100 l 1,62,63
 231 100 l 1,64,65
 231 0 l 1,66,67
 81 0 l 1,16,17
EndSplineSet
Validated: 5
EndChar

StartChar: ccedilla
Encoding: 231 231 175
Width: 450
GlyphClass: 2
Flags: W
LayerCount: 2
Back
Fore
SplineSet
156 100 m 1,0,1
 119 100 l 1,2,3
 119 200 l 1,4,5
 81 200 l 1,6,7
 81 300 l 1,8,9
 119 300 l 1,10,11
 119 400 l 1,12,13
 156 400 l 1,14,15
 156 500 l 1,16,17
 419 500 l 1,18,19
 419 400 l 1,20,21
 194 400 l 1,22,23
 194 300 l 1,24,25
 156 300 l 1,26,27
 156 200 l 1,28,29
 194 200 l 1,30,31
 194 100 l 1,32,33
 419 100 l 1,34,35
 419 0 l 1,36,37
 306 0 l 1,38,39
 306 -100 l 1,40,41
 381 -100 l 1,42,43
 381 -200 l 1,44,45
 269 -200 l 1,46,47
 269 -100 l 1,48,49
 231 -100 l 1,50,51
 231 0 l 1,52,53
 156 0 l 1,54,55
 156 100 l 1,0,1
EndSplineSet
Validated: 1
EndChar

StartChar: egrave
Encoding: 232 232 176
Width: 450
GlyphClass: 2
Flags: W
LayerCount: 2
Back
Fore
SplineSet
156 400 m 1,0,1
 156 300 l 1,2,3
 344 300 l 1,4,5
 344 400 l 1,6,7
 156 400 l 1,0,1
119 400 m 1,8,9
 119 500 l 1,10,11
 380 500 l 1,12,13
 380 484 380 484 380.5 450 c 0
 381 416 381 416 381 400 c 1,14,15
 419 400 l 1,16,17
 419 200 l 1,18,19
 156 200 l 1,20,21
 156 100 l 1,22,23
 381 100 l 1,24,25
 381 0 l 1,26,27
 119 0 l 1,28,29
 119 100 l 1,30,31
 81 100 l 1,32,33
 81 400 l 1,34,35
 119 400 l 1,8,9
EndSplineSet
Validated: 1
EndChar

StartChar: eacute
Encoding: 233 233 177
Width: 450
GlyphClass: 2
Flags: W
LayerCount: 2
Back
Fore
SplineSet
194 600 m 1,0,1
 194 700 l 1,2,3
 231 700 l 1,4,5
 231 800 l 1,6,7
 306 800 l 1,8,9
 306 700 l 1,10,11
 269 700 l 1,12,13
 269 600 l 1,14,15
 194 600 l 1,0,1
156 400 m 1,16,17
 156 300 l 1,18,19
 344 300 l 1,20,21
 344 400 l 1,22,23
 156 400 l 1,16,17
119 400 m 1,24,25
 119 500 l 1,26,27
 380 500 l 1,28,29
 380 484 380 484 380.5 450 c 0
 381 416 381 416 381 400 c 1,30,31
 419 400 l 1,32,33
 419 200 l 1,34,35
 156 200 l 1,36,37
 156 100 l 1,38,39
 381 100 l 1,40,41
 381 0 l 1,42,43
 119 0 l 1,44,45
 119 100 l 1,46,47
 81 100 l 1,48,49
 81 400 l 1,50,51
 119 400 l 1,24,25
EndSplineSet
Validated: 1
EndChar

StartChar: ecircumflex
Encoding: 234 234 178
Width: 450
GlyphClass: 2
Flags: W
LayerCount: 2
Back
Fore
SplineSet
156 600 m 1,0,1
 156 700 l 1,2,3
 194 700 l 1,4,5
 194 800 l 1,6,7
 306 800 l 1,8,9
 306 700 l 1,10,11
 344 700 l 1,12,13
 344 600 l 1,14,15
 269 600 l 1,16,17
 269 700 l 1,18,19
 231 700 l 1,20,21
 231 600 l 1,22,23
 156 600 l 1,0,1
156 400 m 1,24,25
 156 300 l 1,26,27
 344 300 l 1,28,29
 344 400 l 1,30,31
 156 400 l 1,24,25
119 400 m 1,32,33
 119 500 l 1,34,35
 380 500 l 1,36,37
 380 484 380 484 380.5 450 c 0
 381 416 381 416 381 400 c 1,38,39
 419 400 l 1,40,41
 419 200 l 1,42,43
 156 200 l 1,44,45
 156 100 l 1,46,47
 381 100 l 1,48,49
 381 0 l 1,50,51
 119 0 l 1,52,53
 119 100 l 1,54,55
 81 100 l 1,56,57
 81 400 l 1,58,59
 119 400 l 1,32,33
EndSplineSet
Validated: 1
EndChar

StartChar: edieresis
Encoding: 235 235 179
Width: 450
GlyphClass: 2
Flags: W
LayerCount: 2
Back
Fore
SplineSet
306 700 m 1,0,1
 381 700 l 1,2,3
 381 600 l 1,4,5
 306 600 l 1,6,7
 306 700 l 1,0,1
119 700 m 1,8,9
 194 700 l 1,10,11
 194 600 l 1,12,13
 119 600 l 1,14,15
 119 700 l 1,8,9
156 400 m 1,16,17
 156 300 l 1,18,19
 344 300 l 1,20,21
 344 400 l 1,22,23
 156 400 l 1,16,17
119 400 m 1,24,25
 119 416 119 416 119.5 450 c 0
 120 484 120 484 120 500 c 1,26,27
 380 500 l 1,28,29
 380 484 380 484 380.5 450 c 0
 381 416 381 416 381 400 c 1,30,31
 419 400 l 1,32,33
 419 200 l 1,34,35
 156 200 l 1,36,37
 156 100 l 1,38,39
 381 100 l 1,40,41
 381 0 l 1,42,43
 119 0 l 1,44,45
 119 100 l 1,46,47
 81 100 l 1,48,49
 81 400 l 1,50,51
 119 400 l 1,24,25
EndSplineSet
Validated: 1
EndChar

StartChar: igrave
Encoding: 236 236 180
Width: 450
GlyphClass: 2
Flags: W
LayerCount: 2
Back
Fore
SplineSet
188 600 m 1,0,1
 188 700 l 1,2,3
 150 700 l 1,4,5
 150 800 l 1,6,7
 225 800 l 1,8,9
 225 700 l 1,10,11
 262 700 l 1,12,13
 262 600 l 1,14,15
 188 600 l 1,0,1
150 500 m 1,16,17
 262 500 l 1,18,19
 262 100 l 1,20,21
 338 100 l 1,22,23
 338 0 l 1,24,25
 112 0 l 1,26,27
 112 100 l 1,28,29
 188 100 l 1,30,31
 188 400 l 1,32,33
 150 400 l 1,34,35
 150 500 l 1,16,17
EndSplineSet
Validated: 1
EndChar

StartChar: iacute
Encoding: 237 237 181
Width: 450
GlyphClass: 2
Flags: W
LayerCount: 2
Back
Fore
SplineSet
150 500 m 1,0,1
 262 500 l 1,2,3
 262 100 l 1,4,5
 338 100 l 1,6,7
 338 0 l 1,8,9
 112 0 l 1,10,11
 112 100 l 1,12,13
 188 100 l 1,14,15
 188 400 l 1,16,17
 150 400 l 1,18,19
 150 500 l 1,0,1
EndSplineSet
Validated: 1
EndChar

StartChar: icircumflex
Encoding: 238 238 182
Width: 450
GlyphClass: 2
Flags: W
LayerCount: 2
Back
Fore
SplineSet
112 600 m 1,0,1
 112 700 l 1,2,3
 150 700 l 1,4,5
 150 800 l 1,6,7
 262 800 l 1,8,9
 262 700 l 1,10,11
 300 700 l 1,12,13
 300 600 l 1,14,15
 225 600 l 1,16,17
 225 700 l 1,18,19
 188 700 l 1,20,21
 188 600 l 1,22,23
 112 600 l 1,0,1
150 500 m 1,24,25
 262 500 l 1,26,27
 262 100 l 1,28,29
 338 100 l 1,30,31
 338 0 l 1,32,33
 112 0 l 1,34,35
 112 100 l 1,36,37
 188 100 l 1,38,39
 188 400 l 1,40,41
 150 400 l 1,42,43
 150 500 l 1,24,25
EndSplineSet
Validated: 1
EndChar

StartChar: idieresis
Encoding: 239 239 183
Width: 450
GlyphClass: 2
Flags: W
LayerCount: 2
Back
Fore
SplineSet
150 500 m 1,0,1
 262 500 l 1,2,3
 262 100 l 1,4,5
 338 100 l 1,6,7
 338 0 l 1,8,9
 112 0 l 1,10,11
 112 100 l 1,12,13
 188 100 l 1,14,15
 188 400 l 1,16,17
 150 400 l 1,18,19
 150 500 l 1,0,1
150 700 m 1,20,21
 262 700 l 1,22,23
 262 600 l 1,24,25
 150 600 l 1,26,27
 150 700 l 1,20,21
EndSplineSet
Validated: 1
EndChar

StartChar: eth
Encoding: 240 240 184
Width: 450
GlyphClass: 2
Flags: W
LayerCount: 2
Back
Fore
SplineSet
150 100 m 1,0,1
 262 100 l 1,2,3
 262 200 l 1,4,5
 300 200 l 1,6,7
 300 300 l 1,8,9
 225 300 l 1,10,11
 225 400 l 1,12,13
 150 400 l 1,14,15
 150 300 l 1,16,17
 112 300 l 1,18,19
 112 200 l 1,20,21
 150 200 l 1,22,23
 150 100 l 1,0,1
112 0 m 1,24,25
 112 100 l 1,26,27
 75 100 l 1,28,29
 75 200 l 1,30,31
 38 200 l 1,32,33
 38 300 l 1,34,35
 75 300 l 1,36,37
 75 400 l 1,38,39
 112 400 l 1,40,41
 112 500 l 1,42,43
 262 500 l 1,44,45
 262 400 l 1,46,47
 300 400 l 1,48,49
 300 500 l 1,50,51
 262 500 l 1,52,53
 262 600 l 1,54,55
 188 600 l 1,56,57
 188 700 l 1,58,59
 412 700 l 1,60,61
 412 600 l 1,62,63
 338 600 l 1,64,65
 338 500 l 1,66,67
 375 500 l 1,68,69
 375 200 l 1,70,71
 338 200 l 1,72,73
 338 100 l 1,74,75
 300 100 l 1,76,77
 300 0 l 1,78,79
 112 0 l 1,24,25
EndSplineSet
Validated: 5
EndChar

StartChar: ntilde
Encoding: 241 241 185
Width: 450
GlyphClass: 2
Flags: W
LayerCount: 2
Back
Fore
SplineSet
119 600 m 1,0,1
 119 700 l 1,2,3
 156 700 l 1,4,5
 156 800 l 1,6,7
 269 800 l 1,8,9
 269 700 l 1,10,11
 306 700 l 1,12,13
 306 800 l 1,14,15
 381 800 l 1,16,17
 381 700 l 1,18,19
 344 700 l 1,20,21
 344 600 l 1,22,23
 231 600 l 1,24,25
 231 700 l 1,26,27
 194 700 l 1,28,29
 194 600 l 1,30,31
 119 600 l 1,0,1
81 0 m 1,32,33
 81 500 l 1,34,35
 156 500 l 1,36,37
 156 400 l 1,38,39
 194 400 l 1,40,41
 194 500 l 1,42,43
 381 500 l 1,44,45
 381 400 l 1,46,47
 419 400 l 1,48,49
 419 0 l 1,50,51
 344 0 l 1,52,53
 344 400 l 1,54,55
 194 400 l 1,56,57
 194 300 l 1,58,59
 156 300 l 1,60,61
 156 0 l 1,62,63
 81 0 l 1,32,33
EndSplineSet
Validated: 5
EndChar

StartChar: ograve
Encoding: 242 242 186
Width: 450
GlyphClass: 2
Flags: W
LayerCount: 2
Back
Fore
SplineSet
156 400 m 1,0,1
 156 100 l 1,2,3
 344 100 l 1,4,5
 344 400 l 1,6,7
 156 400 l 1,0,1
119 500 m 1,8,9
 381 500 l 1,10,11
 381 400 l 1,12,13
 419 400 l 1,14,15
 419 100 l 1,16,17
 381 100 l 1,18,19
 381 0 l 1,20,21
 119 0 l 1,22,23
 119 100 l 1,24,25
 81 100 l 1,26,27
 81 400 l 1,28,29
 119 400 l 1,30,31
 119 500 l 1,8,9
EndSplineSet
Validated: 1
EndChar

StartChar: oacute
Encoding: 243 243 187
Width: 450
GlyphClass: 2
Flags: W
LayerCount: 2
Back
Fore
SplineSet
194 600 m 1,0,1
 194 700 l 1,2,3
 231 700 l 1,4,5
 231 800 l 1,6,7
 306 800 l 1,8,9
 306 700 l 1,10,11
 269 700 l 1,12,13
 269 600 l 1,14,15
 194 600 l 1,0,1
156 400 m 1,16,17
 156 100 l 1,18,19
 344 100 l 1,20,21
 344 400 l 1,22,23
 156 400 l 1,16,17
119 500 m 1,24,25
 381 500 l 1,26,27
 381 400 l 1,28,29
 419 400 l 1,30,31
 419 100 l 1,32,33
 381 100 l 1,34,35
 381 0 l 1,36,37
 119 0 l 1,38,39
 119 100 l 1,40,41
 81 100 l 1,42,43
 81 400 l 1,44,45
 119 400 l 1,46,47
 119 500 l 1,24,25
EndSplineSet
Validated: 1
EndChar

StartChar: ocircumflex
Encoding: 244 244 188
Width: 450
GlyphClass: 2
Flags: W
LayerCount: 2
Back
Fore
SplineSet
156 600 m 1,0,1
 156 700 l 1,2,3
 194 700 l 1,4,5
 194 800 l 1,6,7
 306 800 l 1,8,9
 306 700 l 1,10,11
 344 700 l 1,12,13
 344 600 l 1,14,15
 269 600 l 1,16,17
 269 700 l 1,18,19
 231 700 l 1,20,21
 231 600 l 1,22,23
 156 600 l 1,0,1
156 400 m 1,24,25
 156 100 l 1,26,27
 344 100 l 1,28,29
 344 400 l 1,30,31
 156 400 l 1,24,25
119 500 m 1,32,33
 381 500 l 1,34,35
 381 400 l 1,36,37
 419 400 l 1,38,39
 419 100 l 1,40,41
 381 100 l 1,42,43
 381 0 l 1,44,45
 119 0 l 1,46,47
 119 100 l 1,48,49
 81 100 l 1,50,51
 81 400 l 1,52,53
 119 400 l 1,54,55
 119 500 l 1,32,33
EndSplineSet
Validated: 1
EndChar

StartChar: otilde
Encoding: 245 245 189
Width: 450
GlyphClass: 2
Flags: W
LayerCount: 2
Back
Fore
SplineSet
119 600 m 1,0,1
 119 700 l 1,2,3
 156 700 l 1,4,5
 156 800 l 1,6,7
 269 800 l 1,8,9
 269 700 l 1,10,11
 306 700 l 1,12,13
 306 800 l 1,14,15
 381 800 l 1,16,17
 381 700 l 1,18,19
 344 700 l 1,20,21
 344 600 l 1,22,23
 231 600 l 1,24,25
 231 700 l 1,26,27
 194 700 l 1,28,29
 194 600 l 1,30,31
 119 600 l 1,0,1
156 400 m 1,32,33
 156 100 l 1,34,35
 344 100 l 1,36,37
 344 400 l 1,38,39
 156 400 l 1,32,33
119 500 m 1,40,41
 381 500 l 1,42,43
 381 400 l 1,44,45
 419 400 l 1,46,47
 419 100 l 1,48,49
 381 100 l 1,50,51
 381 0 l 1,52,53
 119 0 l 1,54,55
 119 100 l 1,56,57
 81 100 l 1,58,59
 81 400 l 1,60,61
 119 400 l 1,62,63
 119 500 l 1,40,41
EndSplineSet
Validated: 1
EndChar

StartChar: odieresis
Encoding: 246 246 190
Width: 450
GlyphClass: 2
Flags: W
LayerCount: 2
Back
Fore
SplineSet
306 600 m 1,0,1
 306 700 l 1,2,3
 381 700 l 1,4,5
 381 600 l 1,6,7
 306 600 l 1,0,1
119 600 m 1,8,9
 119 700 l 1,10,11
 194 700 l 1,12,13
 194 600 l 1,14,15
 119 600 l 1,8,9
156 400 m 1,16,17
 156 100 l 1,18,19
 344 100 l 1,20,21
 344 400 l 1,22,23
 156 400 l 1,16,17
119 500 m 1,24,25
 381 500 l 1,26,27
 381 400 l 1,28,29
 419 400 l 1,30,31
 419 100 l 1,32,33
 381 100 l 1,34,35
 381 0 l 1,36,37
 119 0 l 1,38,39
 119 100 l 1,40,41
 81 100 l 1,42,43
 81 400 l 1,44,45
 119 400 l 1,46,47
 119 500 l 1,24,25
EndSplineSet
Validated: 1
EndChar

StartChar: divide
Encoding: 247 247 191
Width: 450
GlyphClass: 2
Flags: W
LayerCount: 2
Back
Fore
SplineSet
188 100 m 1,0,1
 188 200 l 1,2,3
 262 200 l 1,4,5
 262 100 l 1,6,7
 188 100 l 1,0,1
75 300 m 1,8,9
 75 400 l 1,10,11
 375 400 l 1,12,13
 375 300 l 1,14,15
 75 300 l 1,8,9
188 500 m 1,16,17
 188 600 l 1,18,19
 262 600 l 1,20,21
 262 500 l 1,22,23
 188 500 l 1,16,17
EndSplineSet
Validated: 1
EndChar

StartChar: oslash
Encoding: 248 248 192
Width: 450
GlyphClass: 2
Flags: W
LayerCount: 2
Back
Fore
SplineSet
156 400 m 1,0,1
 156 100 l 1,2,3
 344 100 l 1,4,5
 344 400 l 1,6,7
 156 400 l 1,0,1
119 500 m 1,8,9
 381 500 l 1,10,11
 381 400 l 1,12,13
 419 400 l 1,14,15
 419 100 l 1,16,17
 381 100 l 1,18,19
 381 0 l 1,20,21
 119 0 l 1,22,23
 119 100 l 1,24,25
 81 100 l 1,26,27
 81 400 l 1,28,29
 119 400 l 1,30,31
 119 500 l 1,8,9
EndSplineSet
Validated: 1
EndChar

StartChar: ugrave
Encoding: 249 249 193
Width: 450
GlyphClass: 2
Flags: W
LayerCount: 2
Back
Fore
SplineSet
81 500 m 1,0,1
 156 500 l 1,2,3
 156 100 l 1,4,5
 306 100 l 1,6,7
 306 200 l 1,8,9
 344 200 l 1,10,11
 344 500 l 1,12,13
 419 500 l 1,14,15
 419 0 l 1,16,17
 344 0 l 1,18,19
 344 100 l 1,20,21
 306 100 l 1,22,23
 306 0 l 1,24,25
 119 0 l 1,26,27
 119 100 l 1,28,29
 81 100 l 1,30,31
 81 500 l 1,0,1
EndSplineSet
Validated: 5
EndChar

StartChar: uacute
Encoding: 250 250 194
Width: 450
GlyphClass: 2
Flags: W
LayerCount: 2
Back
Fore
SplineSet
194 600 m 1,0,1
 194 700 l 1,2,3
 231 700 l 1,4,5
 231 800 l 1,6,7
 306 800 l 1,8,9
 306 700 l 1,10,11
 269 700 l 1,12,13
 269 600 l 1,14,15
 194 600 l 1,0,1
81 500 m 1,16,17
 156 500 l 1,18,19
 156 100 l 1,20,21
 306 100 l 1,22,23
 306 200 l 1,24,25
 344 200 l 1,26,27
 344 500 l 1,28,29
 419 500 l 1,30,31
 419 0 l 1,32,33
 344 0 l 1,34,35
 344 100 l 1,36,37
 306 100 l 1,38,39
 306 0 l 1,40,41
 119 0 l 1,42,43
 119 100 l 1,44,45
 81 100 l 1,46,47
 81 500 l 1,16,17
EndSplineSet
Validated: 5
EndChar

StartChar: ucircumflex
Encoding: 251 251 195
Width: 450
GlyphClass: 2
Flags: W
LayerCount: 2
Back
Fore
SplineSet
156 600 m 1,0,1
 156 700 l 1,2,3
 194 700 l 1,4,5
 194 800 l 1,6,7
 306 800 l 1,8,9
 306 700 l 1,10,11
 344 700 l 1,12,13
 344 600 l 1,14,15
 269 600 l 1,16,17
 269 700 l 1,18,19
 231 700 l 1,20,21
 231 600 l 1,22,23
 156 600 l 1,0,1
81 500 m 1,24,25
 156 500 l 1,26,27
 156 100 l 1,28,29
 306 100 l 1,30,31
 306 200 l 1,32,33
 344 200 l 1,34,35
 344 500 l 1,36,37
 419 500 l 1,38,39
 419 0 l 1,40,41
 344 0 l 1,42,43
 344 100 l 1,44,45
 306 100 l 1,46,47
 306 0 l 1,48,49
 119 0 l 1,50,51
 119 100 l 1,52,53
 81 100 l 1,54,55
 81 500 l 1,24,25
EndSplineSet
Validated: 5
EndChar

StartChar: udieresis
Encoding: 252 252 196
Width: 450
GlyphClass: 2
Flags: W
LayerCount: 2
Back
Fore
SplineSet
81 500 m 1,0,1
 156 500 l 1,2,3
 156 100 l 1,4,5
 306 100 l 1,6,7
 306 200 l 1,8,9
 344 200 l 1,10,11
 344 500 l 1,12,13
 419 500 l 1,14,15
 419 0 l 1,16,17
 344 0 l 1,18,19
 344 100 l 1,20,21
 306 100 l 1,22,23
 306 0 l 1,24,25
 119 0 l 1,26,27
 119 100 l 1,28,29
 81 100 l 1,30,31
 81 500 l 1,0,1
EndSplineSet
Validated: 5
EndChar

StartChar: yacute
Encoding: 253 253 197
Width: 450
GlyphClass: 2
Flags: W
LayerCount: 2
Back
Fore
SplineSet
194 600 m 1,0,1
 194 700 l 1,2,3
 231 700 l 1,4,5
 231 800 l 1,6,7
 306 800 l 1,8,9
 306 700 l 1,10,11
 269 700 l 1,12,13
 269 600 l 1,14,15
 194 600 l 1,0,1
81 500 m 1,16,17
 156 500 l 1,18,19
 156 400 l 1,20,21
 194 400 l 1,22,23
 194 300 l 1,24,25
 231 300 l 1,26,27
 231 200 l 1,28,29
 269 200 l 1,30,31
 269 300 l 1,32,33
 306 300 l 1,34,35
 306 400 l 1,36,37
 344 400 l 1,38,39
 344 500 l 1,40,41
 419 500 l 1,42,43
 419 400 l 1,44,45
 381 400 l 1,46,47
 381 300 l 1,48,49
 344 300 l 1,50,51
 344 200 l 1,52,53
 306 200 l 1,54,55
 306 100 l 1,56,57
 269 100 l 1,58,59
 269 0 l 1,60,61
 231 0 l 1,62,63
 231 -100 l 1,64,65
 194 -100 l 1,66,67
 194 -200 l 1,68,69
 81 -200 l 1,70,71
 81 -100 l 1,72,73
 156 -100 l 1,74,75
 156 0 l 1,76,77
 194 0 l 1,78,79
 194 200 l 1,80,81
 156 200 l 1,82,83
 156 300 l 1,84,85
 119 300 l 1,86,87
 119 400 l 1,88,89
 81 400 l 1,90,91
 81 500 l 1,16,17
EndSplineSet
Validated: 1
EndChar

StartChar: ydieresis
Encoding: 255 255 198
Width: 450
GlyphClass: 2
Flags: W
LayerCount: 2
Back
Fore
SplineSet
194 600 m 1,0,1
 194 700 l 1,2,3
 231 700 l 1,4,5
 231 800 l 1,6,7
 306 800 l 1,8,9
 306 700 l 1,10,11
 269 700 l 1,12,13
 269 600 l 1,14,15
 194 600 l 1,0,1
81 500 m 1,16,17
 156 500 l 1,18,19
 156 400 l 1,20,21
 194 400 l 1,22,23
 194 300 l 1,24,25
 231 300 l 1,26,27
 231 200 l 1,28,29
 269 200 l 1,30,31
 269 300 l 1,32,33
 306 300 l 1,34,35
 306 400 l 1,36,37
 344 400 l 1,38,39
 344 500 l 1,40,41
 419 500 l 1,42,43
 419 400 l 1,44,45
 381 400 l 1,46,47
 381 300 l 1,48,49
 344 300 l 1,50,51
 344 200 l 1,52,53
 306 200 l 1,54,55
 306 100 l 1,56,57
 269 100 l 1,58,59
 269 0 l 1,60,61
 231 0 l 1,62,63
 231 -100 l 1,64,65
 194 -100 l 1,66,67
 194 -200 l 1,68,69
 81 -200 l 1,70,71
 81 -100 l 1,72,73
 156 -100 l 1,74,75
 156 0 l 1,76,77
 194 0 l 1,78,79
 194 200 l 1,80,81
 156 200 l 1,82,83
 156 300 l 1,84,85
 119 300 l 1,86,87
 119 400 l 1,88,89
 81 400 l 1,90,91
 81 500 l 1,16,17
EndSplineSet
Validated: 1
EndChar

StartChar: Ccircumflex
Encoding: 264 264 199
Width: 450
GlyphClass: 2
Flags: W
LayerCount: 2
Back
Fore
SplineSet
156 700 m 1,0,1
 156 800 l 1,2,3
 381 800 l 1,4,5
 381 700 l 1,6,7
 156 700 l 1,0,1
156 600 m 1,8,9
 381 600 l 1,10,11
 381 500 l 1,12,13
 419 500 l 1,14,15
 419 400 l 1,16,17
 344 400 l 1,18,19
 344 500 l 1,20,21
 194 500 l 1,22,23
 194 400 l 1,24,25
 156 400 l 1,26,27
 156 200 l 1,28,29
 194 200 l 1,30,31
 194 100 l 1,32,33
 344 100 l 1,34,35
 344 200 l 1,36,37
 419 200 l 1,38,39
 419 100 l 1,40,41
 381 100 l 1,42,43
 381 0 l 1,44,45
 156 0 l 1,46,47
 156 100 l 1,48,49
 119 100 l 1,50,51
 119 200 l 1,52,53
 81 200 l 1,54,55
 81 400 l 1,56,57
 119 400 l 1,58,59
 119 500 l 1,60,61
 156 500 l 1,62,63
 156 600 l 1,8,9
EndSplineSet
Validated: 1
EndChar

StartChar: ccircumflex
Encoding: 265 265 200
Width: 450
GlyphClass: 2
Flags: W
LayerCount: 2
Back
Fore
SplineSet
194 600 m 1,0,1
 194 700 l 1,2,3
 231 700 l 1,4,5
 231 800 l 1,6,7
 344 800 l 1,8,9
 344 700 l 1,10,11
 381 700 l 1,12,13
 381 600 l 1,14,15
 306 600 l 1,16,17
 306 700 l 1,18,19
 269 700 l 1,20,21
 269 600 l 1,22,23
 194 600 l 1,0,1
156 500 m 1,24,25
 419 500 l 1,26,27
 419 400 l 1,28,29
 194 400 l 1,30,31
 194 300 l 1,32,33
 156 300 l 1,34,35
 156 200 l 1,36,37
 194 200 l 1,38,39
 194 100 l 1,40,41
 419 100 l 1,42,43
 419 0 l 1,44,45
 156 0 l 1,46,47
 156 100 l 1,48,49
 119 100 l 1,50,51
 119 200 l 1,52,53
 81 200 l 1,54,55
 81 300 l 1,56,57
 119 300 l 1,58,59
 119 400 l 1,60,61
 156 400 l 1,62,63
 156 500 l 1,24,25
EndSplineSet
Validated: 1
EndChar

StartChar: Cdotaccent
Encoding: 266 266 201
Width: 450
GlyphClass: 2
Flags: W
LayerCount: 2
Back
Fore
SplineSet
231 700 m 1,0,1
 231 800 l 1,2,3
 306 800 l 1,4,5
 306 700 l 1,6,7
 231 700 l 1,0,1
156 600 m 1,8,9
 381 600 l 1,10,11
 381 500 l 1,12,13
 419 500 l 1,14,15
 419 400 l 1,16,17
 344 400 l 1,18,19
 344 500 l 1,20,21
 194 500 l 1,22,23
 194 400 l 1,24,25
 156 400 l 1,26,27
 156 200 l 1,28,29
 194 200 l 1,30,31
 194 100 l 1,32,33
 344 100 l 1,34,35
 344 200 l 1,36,37
 419 200 l 1,38,39
 419 100 l 1,40,41
 381 100 l 1,42,43
 381 0 l 1,44,45
 156 0 l 1,46,47
 156 100 l 1,48,49
 119 100 l 1,50,51
 119 200 l 1,52,53
 81 200 l 1,54,55
 81 400 l 1,56,57
 119 400 l 1,58,59
 119 500 l 1,60,61
 156 500 l 1,62,63
 156 600 l 1,8,9
EndSplineSet
Validated: 1
EndChar

StartChar: cdotaccent
Encoding: 267 267 202
Width: 450
GlyphClass: 2
Flags: W
LayerCount: 2
Back
Fore
SplineSet
231 600 m 1,0,1
 231 700 l 1,2,3
 306 700 l 1,4,5
 306 600 l 1,6,7
 231 600 l 1,0,1
156 500 m 1,8,9
 419 500 l 1,10,11
 419 400 l 1,12,13
 194 400 l 1,14,15
 194 300 l 1,16,17
 156 300 l 1,18,19
 156 200 l 1,20,21
 194 200 l 1,22,23
 194 100 l 1,24,25
 419 100 l 1,26,27
 419 0 l 1,28,29
 156 0 l 1,30,31
 156 100 l 1,32,33
 119 100 l 1,34,35
 119 200 l 1,36,37
 81 200 l 1,38,39
 81 300 l 1,40,41
 119 300 l 1,42,43
 119 400 l 1,44,45
 156 400 l 1,46,47
 156 500 l 1,8,9
EndSplineSet
Validated: 1
EndChar

StartChar: Ccaron
Encoding: 268 268 203
Width: 450
GlyphClass: 2
Flags: W
LayerCount: 2
Back
Fore
SplineSet
156 500 m 1,0,1
 156 600 l 1,2,3
 194 600 l 1,4,5
 194 700 l 1,6,7
 156 700 l 1,8,9
 156 800 l 1,10,11
 231 800 l 1,12,13
 231 700 l 1,14,15
 269 700 l 1,16,17
 269 800 l 1,18,19
 344 800 l 1,20,21
 344 700 l 1,22,23
 306 700 l 1,24,25
 306 600 l 1,26,27
 381 600 l 1,28,29
 381 500 l 1,30,31
 419 500 l 1,32,33
 419 400 l 1,34,35
 344 400 l 1,36,37
 344 500 l 1,38,39
 194 500 l 1,40,41
 194 400 l 1,42,43
 156 400 l 1,44,45
 156 200 l 1,46,47
 194 200 l 1,48,49
 194 100 l 1,50,51
 344 100 l 1,52,53
 344 200 l 1,54,55
 419 200 l 1,56,57
 419 100 l 1,58,59
 381 100 l 1,60,61
 381 0 l 1,62,63
 156 0 l 1,64,65
 156 100 l 1,66,67
 119 100 l 1,68,69
 119 200 l 1,70,71
 81 200 l 1,72,73
 81 400 l 1,74,75
 119 400 l 1,76,77
 119 500 l 1,78,79
 156 500 l 1,0,1
EndSplineSet
Validated: 1
EndChar

StartChar: ccaron
Encoding: 269 269 204
Width: 450
GlyphClass: 2
Flags: W
LayerCount: 2
Back
Fore
SplineSet
194 700 m 1,0,1
 194 800 l 1,2,3
 269 800 l 1,4,5
 269 700 l 1,6,7
 306 700 l 1,8,9
 306 800 l 1,10,11
 381 800 l 1,12,13
 381 700 l 1,14,15
 344 700 l 1,16,17
 344 600 l 1,18,19
 231 600 l 1,20,21
 231 700 l 1,22,23
 194 700 l 1,0,1
156 500 m 1,24,25
 419 500 l 1,26,27
 419 400 l 1,28,29
 194 400 l 1,30,31
 194 300 l 1,32,33
 156 300 l 1,34,35
 156 200 l 1,36,37
 194 200 l 1,38,39
 194 100 l 1,40,41
 419 100 l 1,42,43
 419 0 l 1,44,45
 156 0 l 1,46,47
 156 100 l 1,48,49
 119 100 l 1,50,51
 119 200 l 1,52,53
 81 200 l 1,54,55
 81 300 l 1,56,57
 119 300 l 1,58,59
 119 400 l 1,60,61
 156 400 l 1,62,63
 156 500 l 1,24,25
EndSplineSet
Validated: 1
EndChar

StartChar: Dcaron
Encoding: 270 270 205
Width: 450
GlyphClass: 2
Flags: W
LayerCount: 2
Back
Fore
SplineSet
156 500 m 1,0,1
 156 100 l 1,2,3
 306 100 l 1,4,5
 306 200 l 1,6,7
 344 200 l 1,8,9
 344 400 l 1,10,11
 306 400 l 1,12,13
 306 500 l 1,14,15
 156 500 l 1,0,1
344 500 m 1,16,17
 381 500 l 1,18,19
 381 400 l 1,20,21
 419 400 l 1,22,23
 419 200 l 1,24,25
 381 200 l 1,26,27
 381 100 l 1,28,29
 344 100 l 1,30,31
 344 0 l 1,32,33
 81 0 l 1,34,35
 81 600 l 1,36,37
 156 600 l 1,38,39
 156 700 l 1,40,41
 119 700 l 1,42,43
 119 800 l 1,44,45
 194 800 l 1,46,47
 194 700 l 1,48,49
 231 700 l 1,50,51
 231 800 l 1,52,53
 306 800 l 1,54,55
 306 700 l 1,56,57
 269 700 l 1,58,59
 269 600 l 1,60,61
 344 600 l 1,62,63
 344 500 l 1,16,17
EndSplineSet
Validated: 1
EndChar

StartChar: dcaron
Encoding: 271 271 206
Width: 450
GlyphClass: 2
Flags: W
LayerCount: 2
Back
Fore
SplineSet
381 600 m 1,0,1
 381 800 l 1,2,3
 456 800 l 1,4,5
 456 600 l 1,6,7
 381 600 l 1,0,1
119 100 m 1,8,9
 269 100 l 1,10,11
 269 300 l 1,12,13
 231 300 l 1,14,15
 231 400 l 1,16,17
 119 400 l 1,18,19
 119 100 l 1,8,9
269 700 m 1,20,21
 344 700 l 1,22,23
 344 0 l 1,24,25
 81 0 l 1,26,27
 81 100 l 1,28,29
 44 100 l 1,30,31
 44 400 l 1,32,33
 81 400 l 1,34,35
 81 500 l 1,36,37
 231 500 l 1,38,39
 231 400 l 1,40,41
 269 400 l 1,42,43
 269 700 l 1,20,21
EndSplineSet
Validated: 5
EndChar

StartChar: Dcroat
Encoding: 272 272 207
Width: 450
GlyphClass: 2
Flags: W
LayerCount: 2
Back
Fore
SplineSet
294 100 m 1,0,1
 294 200 l 1,2,3
 331 200 l 1,4,5
 331 500 l 1,6,7
 294 500 l 1,8,9
 294 600 l 1,10,11
 144 600 l 1,12,13
 144 400 l 1,14,15
 219 400 l 1,16,17
 219 300 l 1,18,19
 144 300 l 1,20,21
 144 100 l 1,22,23
 294 100 l 1,0,1
69 700 m 1,24,25
 331 700 l 1,26,27
 331 600 l 1,28,29
 369 600 l 1,30,31
 369 500 l 1,32,33
 406 500 l 1,34,35
 406 200 l 1,36,37
 369 200 l 1,38,39
 369 100 l 1,40,41
 331 100 l 1,42,43
 331 0 l 1,44,45
 69 0 l 1,46,47
 69 300 l 1,48,49
 -6 300 l 1,50,51
 -6 400 l 1,52,53
 69 400 l 1,54,55
 69 700 l 1,24,25
EndSplineSet
Validated: 1
EndChar

StartChar: dcroat
Encoding: 273 273 208
Width: 450
GlyphClass: 2
Flags: W
LayerCount: 2
Back
Fore
SplineSet
119 100 m 1,0,1
 306 100 l 1,2,3
 306 300 l 1,4,5
 119 300 l 1,6,7
 119 100 l 1,0,1
81 0 m 1,8,9
 81 100 l 1,10,11
 44 100 l 1,12,13
 44 300 l 1,14,15
 81 300 l 1,16,17
 81 400 l 1,18,19
 306 400 l 1,20,21
 306 500 l 1,22,23
 231 500 l 1,24,25
 231 600 l 1,26,27
 306 600 l 1,28,29
 306 700 l 1,30,31
 381 700 l 1,32,33
 381 600 l 1,34,35
 456 600 l 1,36,37
 456 500 l 1,38,39
 381 500 l 1,40,41
 381 0 l 1,42,43
 81 0 l 1,8,9
EndSplineSet
Validated: 1
EndChar

StartChar: IJ
Encoding: 306 306 209
Width: 450
GlyphClass: 2
Flags: W
LayerCount: 2
Back
Fore
SplineSet
375 700 m 1,0,1
 450 700 l 1,2,3
 450 100 l 1,4,5
 412 100 l 1,6,7
 412 0 l 1,8,9
 262 0 l 1,10,11
 262 100 l 1,12,13
 225 100 l 1,14,15
 225 200 l 1,16,17
 300 200 l 1,18,19
 300 100 l 1,20,21
 375 100 l 1,22,23
 375 700 l 1,0,1
0 700 m 1,24,25
 225 700 l 1,26,27
 225 600 l 1,28,29
 150 600 l 1,30,31
 150 100 l 1,32,33
 225 100 l 1,34,35
 225 0 l 1,36,37
 0 0 l 1,38,39
 0 100 l 1,40,41
 75 100 l 1,42,43
 75 600 l 1,44,45
 0 600 l 1,46,47
 0 700 l 1,24,25
EndSplineSet
Validated: 5
EndChar

StartChar: ij
Encoding: 307 307 210
Width: 450
GlyphClass: 2
Flags: W
LayerCount: 2
Back
Fore
SplineSet
412 600 m 1,0,1
 412 700 l 1,2,3
 300 700 l 1,4,5
 300 600 l 1,6,7
 412 600 l 1,0,1
150 600 m 1,8,9
 150 700 l 1,10,11
 38 700 l 1,12,13
 38 600 l 1,14,15
 150 600 l 1,8,9
188 0 m 1,16,17
 262 0 l 1,18,19
 262 -100 l 1,20,21
 338 -100 l 1,22,23
 338 400 l 1,24,25
 300 400 l 1,26,27
 300 500 l 1,28,29
 412 500 l 1,30,31
 412 -100 l 1,32,33
 375 -100 l 1,34,35
 375 -200 l 1,36,37
 225 -200 l 1,38,39
 225 -100 l 1,40,41
 188 -100 l 1,42,43
 188 0 l 1,16,17
38 0 m 1,44,45
 38 100 l 1,46,47
 75 100 l 1,48,49
 75 400 l 1,50,51
 38 400 l 1,52,53
 38 500 l 1,54,55
 150 500 l 1,56,57
 150 100 l 1,58,59
 188 100 l 1,60,61
 188 0 l 1,62,63
 38 0 l 1,44,45
EndSplineSet
Validated: 5
EndChar

StartChar: Rcaron
Encoding: 344 344 211
Width: 450
GlyphClass: 2
Flags: W
LayerCount: 2
Back
Fore
SplineSet
156 400 m 1,0,1
 344 400 l 1,2,3
 344 500 l 1,4,5
 156 500 l 1,6,7
 156 400 l 1,0,1
81 0 m 1,8,9
 81 600 l 1,10,11
 194 600 l 1,12,13
 194 700 l 1,14,15
 156 700 l 1,16,17
 156 800 l 1,18,19
 231 800 l 1,20,21
 231 700 l 1,22,23
 269 700 l 1,24,25
 269 800 l 1,26,27
 344 800 l 1,28,29
 344 700 l 1,30,31
 306 700 l 1,32,33
 306 600 l 1,34,35
 381 600 l 1,36,37
 381 500 l 1,38,39
 419 500 l 1,40,41
 419 400 l 1,42,43
 381 400 l 1,44,45
 381 300 l 1,46,47
 306 300 l 1,48,49
 306 200 l 1,50,51
 344 200 l 1,52,53
 344 100 l 1,54,55
 419 100 l 1,56,57
 419 0 l 1,58,59
 306 0 l 1,60,61
 306 100 l 1,62,63
 269 100 l 1,64,65
 269 200 l 1,66,67
 231 200 l 1,68,69
 231 300 l 1,70,71
 156 300 l 1,72,73
 156 0 l 1,74,75
 81 0 l 1,8,9
EndSplineSet
Validated: 1
EndChar

StartChar: rcaron
Encoding: 345 345 212
Width: 450
GlyphClass: 2
Flags: W
LayerCount: 2
Back
Fore
SplineSet
81 0 m 1,0,1
 81 500 l 1,2,3
 156 500 l 1,4,5
 156 400 l 1,6,7
 231 400 l 1,8,9
 231 500 l 1,10,11
 419 500 l 1,12,13
 419 400 l 1,14,15
 231 400 l 1,16,17
 231 300 l 1,18,19
 156 300 l 1,20,21
 156 0 l 1,22,23
 81 0 l 1,0,1
EndSplineSet
Validated: 5
EndChar

StartChar: Scaron
Encoding: 352 352 213
Width: 450
GlyphClass: 2
Flags: W
LayerCount: 2
Back
Fore
SplineSet
81 400 m 1,0,1
 81 500 l 1,2,3
 119 500 l 1,4,5
 119 600 l 1,6,7
 194 600 l 1,8,9
 194 700 l 1,10,11
 156 700 l 1,12,13
 156 800 l 1,14,15
 231 800 l 1,16,17
 231 700 l 1,18,19
 269 700 l 1,20,21
 269 800 l 1,22,23
 344 800 l 1,24,25
 344 700 l 1,26,27
 306 700 l 1,28,29
 306 600 l 1,30,31
 381 600 l 1,32,33
 381 500 l 1,34,35
 194 500 l 1,36,37
 194 400 l 1,38,39
 269 400 l 1,40,41
 269 300 l 1,42,43
 381 300 l 1,44,45
 381 200 l 1,46,47
 419 200 l 1,48,49
 419 100 l 1,50,51
 381 100 l 1,52,53
 381 0 l 1,54,55
 119 0 l 1,56,57
 119 100 l 1,58,59
 306 100 l 1,60,61
 306 200 l 1,62,63
 231 200 l 1,64,65
 231 300 l 1,66,67
 119 300 l 1,68,69
 119 400 l 1,70,71
 81 400 l 1,0,1
EndSplineSet
Validated: 1
EndChar

StartChar: scaron
Encoding: 353 353 214
Width: 450
GlyphClass: 2
Flags: W
LayerCount: 2
Back
Fore
SplineSet
156 700 m 1,0,1
 156 800 l 1,2,3
 231 800 l 1,4,5
 231 700 l 1,6,7
 269 700 l 1,8,9
 269 800 l 1,10,11
 344 800 l 1,12,13
 344 700 l 1,14,15
 306 700 l 1,16,17
 306 600 l 1,18,19
 194 600 l 1,20,21
 194 700 l 1,22,23
 156 700 l 1,0,1
381 400 m 1,24,25
 156 400 l 1,26,27
 156 300 l 1,28,29
 381 300 l 1,30,31
 381 200 l 1,32,33
 419 200 l 1,34,35
 419 100 l 1,36,37
 381 100 l 1,38,39
 381 0 l 1,40,41
 119 0 l 1,42,43
 119 100 l 1,44,45
 344 100 l 1,46,47
 344 200 l 1,48,49
 119 200 l 1,50,51
 119 300 l 1,52,53
 81 300 l 1,54,55
 81 400 l 1,56,57
 119 400 l 1,58,59
 119 500 l 1,60,61
 381 500 l 1,62,63
 381 400 l 1,24,25
EndSplineSet
Validated: 1
EndChar

StartChar: Tcaron
Encoding: 356 356 215
Width: 450
GlyphClass: 2
Flags: W
LayerCount: 2
Back
Fore
SplineSet
38 600 m 1,0,1
 150 600 l 1,2,3
 150 700 l 1,4,5
 112 700 l 1,6,7
 112 800 l 1,8,9
 188 800 l 1,10,11
 188 700 l 1,12,13
 262 700 l 1,14,15
 262 800 l 1,16,17
 338 800 l 1,18,19
 338 700 l 1,20,21
 300 700 l 1,22,23
 300 600 l 1,24,25
 412 600 l 1,26,27
 412 500 l 1,28,29
 262 500 l 1,30,31
 262 0 l 1,32,33
 188 0 l 1,34,35
 188 500 l 1,36,37
 38 500 l 1,38,39
 38 600 l 1,0,1
EndSplineSet
Validated: 1
EndChar

StartChar: tcaron
Encoding: 357 357 216
Width: 450
GlyphClass: 2
Flags: W
LayerCount: 2
Back
Fore
SplineSet
344 600 m 1,0,1
 344 800 l 1,2,3
 419 800 l 1,4,5
 419 600 l 1,6,7
 344 600 l 1,0,1
156 700 m 1,8,9
 231 700 l 1,10,11
 231 500 l 1,12,13
 344 500 l 1,14,15
 344 400 l 1,16,17
 231 400 l 1,18,19
 231 100 l 1,20,21
 419 100 l 1,22,23
 419 0 l 1,24,25
 194 0 l 1,26,27
 194 100 l 1,28,29
 156 100 l 1,30,31
 156 400 l 1,32,33
 81 400 l 1,34,35
 81 500 l 1,36,37
 156 500 l 1,38,39
 156 700 l 1,8,9
EndSplineSet
Validated: 1
EndChar

StartChar: Uring
Encoding: 366 366 217
Width: 450
GlyphClass: 2
Flags: W
LayerCount: 2
Back
Fore
SplineSet
194 600 m 1,0,1
 194 800 l 1,2,3
 306 800 l 1,4,5
 306 600 l 1,6,7
 194 600 l 1,0,1
81 600 m 1,8,9
 156 600 l 1,10,11
 156 100 l 1,12,13
 344 100 l 1,14,15
 344 600 l 1,16,17
 419 600 l 1,18,19
 419 100 l 1,20,21
 381 100 l 1,22,23
 381 0 l 1,24,25
 119 0 l 1,26,27
 119 100 l 1,28,29
 81 100 l 1,30,31
 81 600 l 1,8,9
EndSplineSet
Validated: 1
EndChar

StartChar: uring
Encoding: 367 367 218
Width: 450
GlyphClass: 2
Flags: W
LayerCount: 2
Back
Fore
SplineSet
231 600 m 1,0,1
 269 600 l 1,2,3
 269 700 l 1,4,5
 231 700 l 1,6,7
 231 600 l 1,0,1
194 500 m 1,8,9
 194 600 l 1,10,11
 156 600 l 1,12,13
 156 700 l 1,14,15
 194 700 l 1,16,17
 194 800 l 1,18,19
 306 800 l 1,20,21
 306 700 l 1,22,23
 344 700 l 1,24,25
 344 600 l 1,26,27
 306 600 l 1,28,29
 306 500 l 1,30,31
 194 500 l 1,8,9
81 500 m 1,32,33
 156 500 l 1,34,35
 156 100 l 1,36,37
 306 100 l 1,38,39
 306 200 l 1,40,41
 344 200 l 1,42,43
 344 500 l 1,44,45
 419 500 l 1,46,47
 419 0 l 1,48,49
 344 0 l 1,50,51
 344 100 l 1,52,53
 306 100 l 1,54,55
 306 0 l 1,56,57
 119 0 l 1,58,59
 119 100 l 1,60,61
 81 100 l 1,62,63
 81 500 l 1,32,33
EndSplineSet
Validated: 5
EndChar

StartChar: Uhungarumlaut
Encoding: 368 368 219
Width: 450
GlyphClass: 2
Flags: W
LayerCount: 2
Back
Fore
SplineSet
269 600 m 1,0,1
 269 700 l 1,2,3
 306 700 l 1,4,5
 306 800 l 1,6,7
 381 800 l 1,8,9
 381 700 l 1,10,11
 344 700 l 1,12,13
 344 600 l 1,14,15
 269 600 l 1,0,1
119 600 m 1,16,17
 119 700 l 1,18,19
 156 700 l 1,20,21
 156 800 l 1,22,23
 231 800 l 1,24,25
 231 700 l 1,26,27
 194 700 l 1,28,29
 194 600 l 1,30,31
 119 600 l 1,16,17
81 100 m 1,32,33
 81 500 l 1,34,35
 156 500 l 1,36,37
 156 100 l 1,38,39
 344 100 l 1,40,41
 344 500 l 1,42,43
 419 500 l 1,44,45
 419 100 l 1,46,47
 381 100 l 1,48,49
 381 0 l 1,50,51
 119 0 l 1,52,53
 119 100 l 1,54,55
 81 100 l 1,32,33
EndSplineSet
Validated: 1
EndChar

StartChar: uhungarumlaut
Encoding: 369 369 220
Width: 450
GlyphClass: 2
Flags: W
LayerCount: 2
Back
Fore
SplineSet
269 600 m 1,0,1
 269 700 l 1,2,3
 306 700 l 1,4,5
 306 800 l 1,6,7
 381 800 l 1,8,9
 381 700 l 1,10,11
 344 700 l 1,12,13
 344 600 l 1,14,15
 269 600 l 1,0,1
119 600 m 1,16,17
 119 700 l 1,18,19
 156 700 l 1,20,21
 156 800 l 1,22,23
 231 800 l 1,24,25
 231 700 l 1,26,27
 194 700 l 1,28,29
 194 600 l 1,30,31
 119 600 l 1,16,17
81 500 m 1,32,33
 156 500 l 1,34,35
 156 100 l 1,36,37
 306 100 l 1,38,39
 306 200 l 1,40,41
 344 200 l 1,42,43
 344 500 l 1,44,45
 419 500 l 1,46,47
 419 0 l 1,48,49
 344 0 l 1,50,51
 344 100 l 1,52,53
 306 100 l 1,54,55
 306 0 l 1,56,57
 119 0 l 1,58,59
 119 100 l 1,60,61
 81 100 l 1,62,63
 81 500 l 1,32,33
EndSplineSet
Validated: 5
EndChar

StartChar: Zacute
Encoding: 377 377 221
Width: 450
GlyphClass: 2
Flags: W
LayerCount: 2
Back
Fore
SplineSet
188 600 m 1,0,1
 188 700 l 1,2,3
 225 700 l 1,4,5
 225 800 l 1,6,7
 300 800 l 1,8,9
 300 700 l 1,10,11
 262 700 l 1,12,13
 262 600 l 1,14,15
 188 600 l 1,0,1
75 500 m 1,16,17
 375 500 l 1,18,19
 375 400 l 1,20,21
 300 400 l 1,22,23
 300 300 l 1,24,25
 262 300 l 1,26,27
 262 200 l 1,28,29
 225 200 l 1,30,31
 225 100 l 1,32,33
 375 100 l 1,34,35
 375 0 l 1,36,37
 75 0 l 1,38,39
 75 100 l 1,40,41
 150 100 l 1,42,43
 150 200 l 1,44,45
 188 200 l 1,46,47
 188 300 l 1,48,49
 225 300 l 1,50,51
 225 400 l 1,52,53
 75 400 l 1,54,55
 75 500 l 1,16,17
EndSplineSet
Validated: 1
EndChar

StartChar: zacute
Encoding: 378 378 222
Width: 450
GlyphClass: 2
Flags: W
LayerCount: 2
Back
Fore
SplineSet
188 600 m 1,0,1
 188 700 l 1,2,3
 225 700 l 1,4,5
 225 800 l 1,6,7
 300 800 l 1,8,9
 300 700 l 1,10,11
 262 700 l 1,12,13
 262 600 l 1,14,15
 188 600 l 1,0,1
75 500 m 1,16,17
 375 500 l 1,18,19
 375 400 l 1,20,21
 300 400 l 1,22,23
 300 300 l 1,24,25
 262 300 l 1,26,27
 262 200 l 1,28,29
 225 200 l 1,30,31
 225 100 l 1,32,33
 375 100 l 1,34,35
 375 0 l 1,36,37
 75 0 l 1,38,39
 75 100 l 1,40,41
 150 100 l 1,42,43
 150 200 l 1,44,45
 188 200 l 1,46,47
 188 300 l 1,48,49
 225 300 l 1,50,51
 225 400 l 1,52,53
 75 400 l 1,54,55
 75 500 l 1,16,17
EndSplineSet
Validated: 1
EndChar

StartChar: Zcaron
Encoding: 381 381 223
Width: 450
GlyphClass: 2
Flags: W
LayerCount: 2
Back
Fore
SplineSet
75 0 m 1,0,1
 75 100 l 1,2,3
 112 100 l 1,4,5
 112 200 l 1,6,7
 150 200 l 1,8,9
 150 300 l 1,10,11
 188 300 l 1,12,13
 188 400 l 1,14,15
 225 400 l 1,16,17
 225 500 l 1,18,19
 75 500 l 1,20,21
 75 600 l 1,22,23
 188 600 l 1,24,25
 188 700 l 1,26,27
 150 700 l 1,28,29
 150 800 l 1,30,31
 225 800 l 1,32,33
 225 700 l 1,34,35
 262 700 l 1,36,37
 262 800 l 1,38,39
 338 800 l 1,40,41
 338 700 l 1,42,43
 300 700 l 1,44,45
 300 600 l 1,46,47
 375 600 l 1,48,49
 375 500 l 1,50,51
 300 500 l 1,52,53
 300 400 l 1,54,55
 262 400 l 1,56,57
 262 300 l 1,58,59
 225 300 l 1,60,61
 225 200 l 1,62,63
 188 200 l 1,64,65
 188 100 l 1,66,67
 375 100 l 1,68,69
 375 0 l 1,70,71
 75 0 l 1,0,1
EndSplineSet
Validated: 1
EndChar

StartChar: zcaron
Encoding: 382 382 224
Width: 450
GlyphClass: 2
Flags: W
LayerCount: 2
Back
Fore
SplineSet
112 700 m 1,0,1
 112 800 l 1,2,3
 188 800 l 1,4,5
 188 700 l 1,6,7
 225 700 l 1,8,9
 225 800 l 1,10,11
 300 800 l 1,12,13
 300 700 l 1,14,15
 262 700 l 1,16,17
 262 600 l 1,18,19
 150 600 l 1,20,21
 150 700 l 1,22,23
 112 700 l 1,0,1
75 500 m 1,24,25
 375 500 l 1,26,27
 375 400 l 1,28,29
 300 400 l 1,30,31
 300 300 l 1,32,33
 262 300 l 1,34,35
 262 200 l 1,36,37
 225 200 l 1,38,39
 225 100 l 1,40,41
 375 100 l 1,42,43
 375 0 l 1,44,45
 75 0 l 1,46,47
 75 100 l 1,48,49
 150 100 l 1,50,51
 150 200 l 1,52,53
 188 200 l 1,54,55
 188 300 l 1,56,57
 225 300 l 1,58,59
 225 400 l 1,60,61
 75 400 l 1,62,63
 75 500 l 1,24,25
EndSplineSet
Validated: 1
EndChar

StartChar: uni01B5
Encoding: 437 437 225
Width: 450
GlyphClass: 2
Flags: W
LayerCount: 2
Back
Fore
SplineSet
75 600 m 1,0,1
 75 700 l 1,2,3
 375 700 l 1,4,5
 375 600 l 1,6,7
 338 600 l 1,8,9
 338 500 l 1,10,11
 300 500 l 1,12,13
 300 400 l 1,14,15
 338 400 l 1,16,17
 338 300 l 1,18,19
 225 300 l 1,20,21
 225 200 l 1,22,23
 188 200 l 1,24,25
 188 100 l 1,26,27
 375 100 l 1,28,29
 375 0 l 1,30,31
 75 0 l 1,32,33
 75 100 l 1,34,35
 112 100 l 1,36,37
 112 200 l 1,38,39
 150 200 l 1,40,41
 150 300 l 1,42,43
 112 300 l 1,44,45
 112 400 l 1,46,47
 225 400 l 1,48,49
 225 500 l 1,50,51
 262 500 l 1,52,53
 262 600 l 1,54,55
 75 600 l 1,0,1
EndSplineSet
Validated: 1
EndChar

StartChar: uni01B6
Encoding: 438 438 226
Width: 450
GlyphClass: 2
Flags: W
LayerCount: 2
Back
Fore
SplineSet
75 0 m 1,0,1
 75 100 l 1,2,3
 150 100 l 1,4,5
 150 200 l 1,6,7
 112 200 l 1,8,9
 112 300 l 1,10,11
 225 300 l 1,12,13
 225 400 l 1,14,15
 75 400 l 1,16,17
 75 500 l 1,18,19
 375 500 l 1,20,21
 375 400 l 1,22,23
 300 400 l 1,24,25
 300 300 l 1,26,27
 338 300 l 1,28,29
 338 200 l 1,30,31
 225 200 l 1,32,33
 225 100 l 1,34,35
 375 100 l 1,36,37
 375 0 l 1,38,39
 75 0 l 1,0,1
EndSplineSet
Validated: 1
EndChar

StartChar: Sigma
Encoding: 931 931 227
Width: 450
GlyphClass: 2
Flags: W
LayerCount: 2
Back
Fore
SplineSet
75 0 m 1,0,1
 75 100 l 1,2,3
 112 100 l 1,4,5
 112 200 l 1,6,7
 150 200 l 1,8,9
 150 300 l 1,10,11
 188 300 l 1,12,13
 188 400 l 1,14,15
 150 400 l 1,16,17
 150 500 l 1,18,19
 112 500 l 1,20,21
 112 600 l 1,22,23
 75 600 l 1,24,25
 75 700 l 1,26,27
 375 700 l 1,28,29
 375 600 l 1,30,31
 188 600 l 1,32,33
 188 500 l 1,34,35
 225 500 l 1,36,37
 225 400 l 1,38,39
 262 400 l 1,40,41
 262 300 l 1,42,43
 225 300 l 1,44,45
 225 200 l 1,46,47
 188 200 l 1,48,49
 188 100 l 1,50,51
 375 100 l 1,52,53
 375 0 l 1,54,55
 75 0 l 1,0,1
EndSplineSet
Validated: 1
EndChar

StartChar: Psi
Encoding: 936 936 228
Width: 450
GlyphClass: 2
Flags: W
LayerCount: 2
Back
Fore
SplineSet
188 0 m 1,0,1
 188 300 l 1,2,3
 112 300 l 1,4,5
 112 400 l 1,6,7
 75 400 l 1,8,9
 75 500 l 1,10,11
 38 500 l 1,12,13
 38 700 l 1,14,15
 112 700 l 1,16,17
 112 500 l 1,18,19
 150 500 l 1,20,21
 150 400 l 1,22,23
 188 400 l 1,24,25
 188 700 l 1,26,27
 262 700 l 1,28,29
 262 400 l 1,30,31
 300 400 l 1,32,33
 300 500 l 1,34,35
 338 500 l 1,36,37
 338 700 l 1,38,39
 412 700 l 1,40,41
 412 500 l 1,42,43
 375 500 l 1,44,45
 375 400 l 1,46,47
 338 400 l 1,48,49
 338 300 l 1,50,51
 262 300 l 1,52,53
 262 0 l 1,54,55
 188 0 l 1,0,1
EndSplineSet
Validated: 1
EndChar

StartChar: uni03A9
Encoding: 937 937 229
Width: 450
GlyphClass: 2
Flags: W
LayerCount: 2
Back
Fore
SplineSet
81 0 m 1,0,1
 81 100 l 1,2,3
 119 100 l 1,4,5
 119 200 l 1,6,7
 81 200 l 1,8,9
 81 400 l 1,10,11
 119 400 l 1,12,13
 119 500 l 1,14,15
 156 500 l 1,16,17
 156 600 l 1,18,19
 344 600 l 1,20,21
 344 500 l 1,22,23
 381 500 l 1,24,25
 381 400 l 1,26,27
 419 400 l 1,28,29
 419 200 l 1,30,31
 381 200 l 1,32,33
 381 100 l 1,34,35
 419 100 l 1,36,37
 419 0 l 1,38,39
 269 0 l 1,40,41
 269 100 l 1,42,43
 306 100 l 1,44,45
 306 200 l 1,46,47
 344 200 l 1,48,49
 344 400 l 1,50,51
 306 400 l 1,52,53
 306 500 l 1,54,55
 194 500 l 1,56,57
 194 400 l 1,58,59
 156 400 l 1,60,61
 156 200 l 1,62,63
 194 200 l 1,64,65
 194 100 l 1,66,67
 231 100 l 1,68,69
 231 0 l 1,70,71
 81 0 l 1,0,1
EndSplineSet
Validated: 1
EndChar

StartChar: alpha
Encoding: 945 945 230
Width: 450
GlyphClass: 2
Flags: W
LayerCount: 2
Back
Fore
SplineSet
269 100 m 1,0,1
 269 200 l 1,2,3
 306 200 l 1,4,5
 306 300 l 1,6,7
 269 300 l 1,8,9
 269 400 l 1,10,11
 119 400 l 1,12,13
 119 100 l 1,14,15
 269 100 l 1,0,1
306 0 m 1,16,17
 81 0 l 1,18,19
 81 100 l 1,20,21
 44 100 l 1,22,23
 44 400 l 1,24,25
 81 400 l 1,26,27
 81 500 l 1,28,29
 306 500 l 1,30,31
 306 400 l 1,32,33
 381 400 l 1,34,35
 381 500 l 1,36,37
 456 500 l 1,38,39
 456 400 l 1,40,41
 419 400 l 1,42,43
 419 300 l 1,44,45
 381 300 l 1,46,47
 381 100 l 1,48,49
 456 100 l 1,50,51
 456 0 l 1,52,53
 344 0 l 1,54,55
 344 100 l 1,56,57
 306 100 l 1,58,59
 306 0 l 1,16,17
EndSplineSet
Validated: 1
EndChar

StartChar: beta
Encoding: 946 946 231
Width: 450
GlyphClass: 2
Flags: W
LayerCount: 2
Back
Fore
SplineSet
150 100 m 1,0,1
 300 100 l 1,2,3
 300 300 l 1,4,5
 188 300 l 1,6,7
 188 400 l 1,8,9
 300 400 l 1,10,11
 300 600 l 1,12,13
 150 600 l 1,14,15
 150 100 l 1,0,1
75 -200 m 1,16,17
 75 600 l 1,18,19
 112 600 l 1,20,21
 112 700 l 1,22,23
 338 700 l 1,24,25
 338 600 l 1,26,27
 375 600 l 1,28,29
 375 400 l 1,30,31
 338 400 l 1,32,33
 338 300 l 1,34,35
 375 300 l 1,36,37
 375 100 l 1,38,39
 338 100 l 1,40,41
 338 0 l 1,42,43
 150 0 l 1,44,45
 150 -200 l 1,46,47
 75 -200 l 1,16,17
EndSplineSet
Validated: 1
EndChar

StartChar: gamma
Encoding: 947 947 232
Width: 450
GlyphClass: 2
Flags: W
LayerCount: 2
Back
Fore
SplineSet
231 -200 m 1,0,1
 231 100 l 1,2,3
 194 100 l 1,4,5
 194 200 l 1,6,7
 156 200 l 1,8,9
 156 300 l 1,10,11
 119 300 l 1,12,13
 119 400 l 1,14,15
 81 400 l 1,16,17
 81 500 l 1,18,19
 156 500 l 1,20,21
 156 400 l 1,22,23
 194 400 l 1,24,25
 194 300 l 1,26,27
 231 300 l 1,28,29
 231 200 l 1,30,31
 306 200 l 1,32,33
 306 400 l 1,34,35
 344 400 l 1,36,37
 344 500 l 1,38,39
 419 500 l 1,40,41
 419 400 l 1,42,43
 381 400 l 1,44,45
 381 200 l 1,46,47
 344 200 l 1,48,49
 344 100 l 1,50,51
 306 100 l 1,52,53
 306 -200 l 1,54,55
 231 -200 l 1,0,1
EndSplineSet
Validated: 1
EndChar

StartChar: delta
Encoding: 948 948 233
Width: 450
GlyphClass: 2
Flags: W
LayerCount: 2
Back
Fore
SplineSet
150 100 m 1,0,1
 300 100 l 1,2,3
 300 300 l 1,4,5
 225 300 l 1,6,7
 225 400 l 1,8,9
 187 400 l 1,10,11
 187 300 l 1,12,13
 150 300 l 1,14,15
 150 100 l 1,0,1
112 0 m 1,16,17
 112 100 l 1,18,19
 75 100 l 1,20,21
 75 300 l 1,22,23
 112 300 l 1,24,25
 112 500 l 1,26,27
 74 500 l 1,28,29
 74 516 74 516 74.5 550 c 0
 75 584 75 584 75 600 c 1,30,31
 112 600 l 1,32,33
 112 700 l 1,34,35
 337 700 l 1,36,37
 337 600 l 1,38,39
 375 600 l 1,40,41
 375 500 l 1,42,43
 300 500 l 1,44,45
 300 600 l 1,46,47
 150 600 l 1,48,49
 150 500 l 1,50,51
 262 500 l 1,52,53
 262 400 l 1,54,55
 337 400 l 1,56,57
 337 300 l 1,58,59
 375 300 l 1,60,61
 375 100 l 1,62,63
 337 100 l 1,64,65
 337 0 l 1,66,67
 112 0 l 1,16,17
EndSplineSet
Validated: 1
EndChar

StartChar: epsilon
Encoding: 949 949 234
Width: 450
GlyphClass: 2
Flags: W
LayerCount: 2
Back
Fore
SplineSet
119 0 m 1,0,1
 119 100 l 1,2,3
 81 100 l 1,4,5
 81 200 l 1,6,7
 119 200 l 1,8,9
 119 300 l 1,10,11
 81 300 l 1,12,13
 81 400 l 1,14,15
 119 400 l 1,16,17
 119 500 l 1,18,19
 381 500 l 1,20,21
 381 400 l 1,22,23
 419 400 l 1,24,25
 419 300 l 1,26,27
 344 300 l 1,28,29
 344 400 l 1,30,31
 156 400 l 1,32,33
 156 300 l 1,34,35
 269 300 l 1,36,37
 269 200 l 1,38,39
 156 200 l 1,40,41
 156 100 l 1,42,43
 344 100 l 1,44,45
 344 200 l 1,46,47
 419 200 l 1,48,49
 419 100 l 1,50,51
 381 100 l 1,52,53
 381 0 l 1,54,55
 119 0 l 1,0,1
EndSplineSet
Validated: 1
EndChar

StartChar: lambda
Encoding: 955 955 235
Width: 450
GlyphClass: 2
Flags: W
LayerCount: 2
Back
Fore
SplineSet
31 0 m 1,0,1
 31 100 l 1,2,3
 69 100 l 1,4,5
 69 200 l 1,6,7
 106 200 l 1,8,9
 106 300 l 1,10,11
 144 300 l 1,12,13
 144 500 l 1,14,15
 106 500 l 1,16,17
 106 600 l 1,18,19
 31 600 l 1,20,21
 31 700 l 1,22,23
 144 700 l 1,24,25
 144 600 l 1,26,27
 181 600 l 1,28,29
 181 500 l 1,30,31
 219 500 l 1,32,33
 219 400 l 1,34,35
 256 400 l 1,36,37
 256 300 l 1,38,39
 294 300 l 1,40,41
 294 200 l 1,42,43
 331 200 l 1,44,45
 331 100 l 1,46,47
 369 100 l 1,48,49
 369 0 l 1,50,51
 294 0 l 1,52,53
 294 100 l 1,54,55
 256 100 l 1,56,57
 256 200 l 1,58,59
 219 200 l 1,60,61
 219 300 l 1,62,63
 181 300 l 1,64,65
 181 200 l 1,66,67
 144 200 l 1,68,69
 144 100 l 1,70,71
 106 100 l 1,72,73
 106 0 l 1,74,75
 31 0 l 1,0,1
EndSplineSet
Validated: 1
EndChar

StartChar: uni03BC
Encoding: 956 956 236
Width: 450
GlyphClass: 2
Flags: W
LayerCount: 2
Back
Fore
SplineSet
200 100 m 1,0,1
 200 0 l 1,2,3
 350 0 l 1,4,5
 350 100 l 1,6,7
 388 100 l 1,8,9
 388 0 l 1,10,11
 462 0 l 1,12,13
 462 100 l 1,14,15
 425 100 l 1,16,17
 425 500 l 1,18,19
 350 500 l 1,20,21
 350 200 l 1,22,23
 312 200 l 1,24,25
 312 100 l 1,26,27
 200 100 l 1,0,1
88 -200 m 1,28,29
 88 500 l 1,30,31
 162 500 l 1,32,33
 162 200 l 1,34,35
 200 200 l 1,36,37
 200 100 l 1,38,39
 162 100 l 1,40,41
 162 -200 l 1,42,43
 88 -200 l 1,28,29
EndSplineSet
Validated: 5
EndChar

StartChar: uni0400
Encoding: 1024 1024 237
Width: 450
GlyphClass: 2
Flags: W
LayerCount: 2
Back
Fore
SplineSet
419 500 m 1,0,1
 156 500 l 1,2,3
 156 400 l 1,4,5
 344 400 l 1,6,7
 344 300 l 1,8,9
 156 300 l 1,10,11
 156 100 l 1,12,13
 419 100 l 1,14,15
 419 0 l 1,16,17
 81 0 l 1,18,19
 81 600 l 1,20,21
 194 600 l 1,22,23
 194 700 l 1,24,25
 156 700 l 1,26,27
 156 800 l 1,28,29
 231 800 l 1,30,31
 231 700 l 1,32,33
 269 700 l 1,34,35
 269 600 l 1,36,37
 419 600 l 1,38,39
 419 500 l 1,0,1
EndSplineSet
Validated: 1
EndChar

StartChar: uni0401
Encoding: 1025 1025 238
Width: 450
GlyphClass: 2
Flags: W
LayerCount: 2
Back
Fore
SplineSet
306 700 m 1,0,1
 306 800 l 1,2,3
 381 800 l 1,4,5
 381 700 l 1,6,7
 306 700 l 1,0,1
119 700 m 1,8,9
 119 800 l 1,10,11
 194 800 l 1,12,13
 194 700 l 1,14,15
 119 700 l 1,8,9
419 500 m 1,16,17
 156 500 l 1,18,19
 156 400 l 1,20,21
 344 400 l 1,22,23
 344 300 l 1,24,25
 156 300 l 1,26,27
 156 100 l 1,28,29
 419 100 l 1,30,31
 419 0 l 1,32,33
 81 0 l 1,34,35
 81 600 l 1,36,37
 419 600 l 1,38,39
 419 500 l 1,16,17
EndSplineSet
Validated: 1
EndChar

StartChar: uni0402
Encoding: 1026 1026 239
Width: 450
GlyphClass: 2
Flags: W
LayerCount: 2
Back
Fore
SplineSet
156 0 m 1,0,1
 156 600 l 1,2,3
 44 600 l 1,4,5
 44 700 l 1,6,7
 344 700 l 1,8,9
 344 600 l 1,10,11
 231 600 l 1,12,13
 231 400 l 1,14,15
 419 400 l 1,16,17
 419 300 l 1,18,19
 456 300 l 1,20,21
 456 100 l 1,22,23
 419 100 l 1,24,25
 419 0 l 1,26,27
 269 0 l 1,28,29
 269 100 l 1,30,31
 381 100 l 1,32,33
 381 300 l 1,34,35
 231 300 l 1,36,37
 231 0 l 1,38,39
 156 0 l 1,0,1
EndSplineSet
Validated: 1
EndChar

StartChar: uni0403
Encoding: 1027 1027 240
Width: 450
GlyphClass: 2
Flags: W
LayerCount: 2
Back
Fore
SplineSet
81 0 m 1,0,1
 81 600 l 1,2,3
 194 600 l 1,4,5
 194 700 l 1,6,7
 231 700 l 1,8,9
 231 800 l 1,10,11
 306 800 l 1,12,13
 306 700 l 1,14,15
 269 700 l 1,16,17
 269 600 l 1,18,19
 419 600 l 1,20,21
 419 500 l 1,22,23
 156 500 l 1,24,25
 156 0 l 1,26,27
 81 0 l 1,0,1
EndSplineSet
Validated: 1
EndChar

StartChar: uni0404
Encoding: 1028 1028 241
Width: 450
GlyphClass: 2
Flags: W
LayerCount: 2
Back
Fore
SplineSet
144 500 m 1,0,1
 106 500 l 1,2,3
 106 400 l 1,4,5
 256 400 l 1,6,7
 256 300 l 1,8,9
 106 300 l 1,10,11
 106 200 l 1,12,13
 144 200 l 1,14,15
 144 100 l 1,16,17
 294 100 l 1,18,19
 294 200 l 1,20,21
 369 200 l 1,22,23
 369 100 l 1,24,25
 331 100 l 1,26,27
 331 0 l 1,28,29
 106 0 l 1,30,31
 106 100 l 1,32,33
 69 100 l 1,34,35
 69 200 l 1,36,37
 31 200 l 1,38,39
 31 500 l 1,40,41
 69 500 l 1,42,43
 69 600 l 1,44,45
 106 600 l 1,46,47
 106 700 l 1,48,49
 331 700 l 1,50,51
 331 600 l 1,52,53
 369 600 l 1,54,55
 369 500 l 1,56,57
 294 500 l 1,58,59
 294 600 l 1,60,61
 144 600 l 1,62,63
 144 500 l 1,0,1
EndSplineSet
Validated: 1
EndChar

StartChar: uni0405
Encoding: 1029 1029 242
Width: 450
GlyphClass: 2
Flags: W
LayerCount: 2
Back
Fore
SplineSet
119 600 m 1,0,1
 119 700 l 1,2,3
 381 700 l 1,4,5
 381 600 l 1,6,7
 156 600 l 1,8,9
 156 400 l 1,10,11
 381 400 l 1,12,13
 381 300 l 1,14,15
 419 300 l 1,16,17
 419 100 l 1,18,19
 381 100 l 1,20,21
 381 0 l 1,22,23
 119 0 l 1,24,25
 119 100 l 1,26,27
 344 100 l 1,28,29
 344 300 l 1,30,31
 119 300 l 1,32,33
 119 400 l 1,34,35
 81 400 l 1,36,37
 81 600 l 1,38,39
 119 600 l 1,0,1
EndSplineSet
Validated: 1
EndChar

StartChar: uni0406
Encoding: 1030 1030 243
Width: 450
GlyphClass: 2
Flags: W
LayerCount: 2
Back
Fore
SplineSet
75 700 m 1,0,1
 375 700 l 1,2,3
 375 600 l 1,4,5
 262 600 l 1,6,7
 262 100 l 1,8,9
 375 100 l 1,10,11
 375 0 l 1,12,13
 75 0 l 1,14,15
 75 100 l 1,16,17
 188 100 l 1,18,19
 188 600 l 1,20,21
 75 600 l 1,22,23
 75 700 l 1,0,1
EndSplineSet
Validated: 1
EndChar

StartChar: uni0407
Encoding: 1031 1031 244
Width: 450
GlyphClass: 2
Flags: W
LayerCount: 2
Back
Fore
SplineSet
262 700 m 1,0,1
 262 800 l 1,2,3
 338 800 l 1,4,5
 338 700 l 1,6,7
 262 700 l 1,0,1
112 700 m 1,8,9
 112 800 l 1,10,11
 188 800 l 1,12,13
 188 700 l 1,14,15
 112 700 l 1,8,9
75 500 m 1,16,17
 75 600 l 1,18,19
 375 600 l 1,20,21
 375 500 l 1,22,23
 262 500 l 1,24,25
 262 100 l 1,26,27
 375 100 l 1,28,29
 375 0 l 1,30,31
 75 0 l 1,32,33
 75 100 l 1,34,35
 188 100 l 1,36,37
 188 500 l 1,38,39
 75 500 l 1,16,17
EndSplineSet
Validated: 1
EndChar

StartChar: uni0408
Encoding: 1032 1032 245
Width: 450
GlyphClass: 2
Flags: W
LayerCount: 2
Back
Fore
SplineSet
344 700 m 1,0,1
 419 700 l 1,2,3
 419 100 l 1,4,5
 381 100 l 1,6,7
 381 0 l 1,8,9
 119 0 l 1,10,11
 119 100 l 1,12,13
 81 100 l 1,14,15
 81 200 l 1,16,17
 156 200 l 1,18,19
 156 100 l 1,20,21
 344 100 l 1,22,23
 344 700 l 1,0,1
EndSplineSet
Validated: 1
EndChar

StartChar: uni0409
Encoding: 1033 1033 246
Width: 450
GlyphClass: 2
Flags: W
LayerCount: 2
Back
Fore
SplineSet
306 100 m 1,0,1
 381 100 l 1,2,3
 381 300 l 1,4,5
 306 300 l 1,6,7
 306 100 l 1,0,1
44 0 m 1,8,9
 44 100 l 1,10,11
 81 100 l 1,12,13
 81 600 l 1,14,15
 119 600 l 1,16,17
 119 700 l 1,18,19
 306 700 l 1,20,21
 306 400 l 1,22,23
 419 400 l 1,24,25
 419 300 l 1,26,27
 456 300 l 1,28,29
 456 50 l 1,30,31
 419 50 l 1,32,33
 419 0 l 1,34,35
 231 0 l 1,36,37
 231 600 l 1,38,39
 156 600 l 1,40,41
 156 100 l 1,42,43
 119 100 l 1,44,45
 119 0 l 1,46,47
 44 0 l 1,8,9
EndSplineSet
Validated: 1
EndChar

StartChar: uni040A
Encoding: 1034 1034 247
Width: 450
GlyphClass: 2
Flags: W
LayerCount: 2
Back
Fore
SplineSet
306 300 m 1,0,1
 306 100 l 1,2,3
 381 100 l 1,4,5
 381 300 l 1,6,7
 306 300 l 1,0,1
44 700 m 1,8,9
 119 700 l 1,10,11
 119 400 l 1,12,13
 231 400 l 1,14,15
 231 700 l 1,16,17
 306 700 l 1,18,19
 306 400 l 1,20,21
 419 400 l 1,22,23
 419 300 l 1,24,25
 456 300 l 1,26,27
 456 50 l 1,28,29
 419 50 l 1,30,31
 419 0 l 1,32,33
 231 0 l 1,34,35
 231 300 l 1,36,37
 119 300 l 1,38,39
 119 0 l 1,40,41
 44 0 l 1,42,43
 44 700 l 1,8,9
EndSplineSet
Validated: 1
EndChar

StartChar: uni040B
Encoding: 1035 1035 248
Width: 450
GlyphClass: 2
Flags: W
LayerCount: 2
Back
Fore
SplineSet
44 600 m 1,0,1
 44 700 l 1,2,3
 344 700 l 1,4,5
 344 600 l 1,6,7
 231 600 l 1,8,9
 231 400 l 1,10,11
 419 400 l 1,12,13
 419 300 l 1,14,15
 456 300 l 1,16,17
 456 0 l 1,18,19
 381 0 l 1,20,21
 381 300 l 1,22,23
 231 300 l 1,24,25
 231 0 l 1,26,27
 156 0 l 1,28,29
 156 600 l 1,30,31
 44 600 l 1,0,1
EndSplineSet
Validated: 1
EndChar

StartChar: uni040C
Encoding: 1036 1036 249
Width: 450
GlyphClass: 2
Flags: W
LayerCount: 2
Back
Fore
SplineSet
75 0 m 1,0,1
 75 600 l 1,2,3
 150 600 l 1,4,5
 150 400 l 1,6,7
 188 400 l 1,8,9
 188 500 l 1,10,11
 262 500 l 1,12,13
 262 600 l 1,14,15
 375 600 l 1,16,17
 375 500 l 1,18,19
 300 500 l 1,20,21
 300 400 l 1,22,23
 225 400 l 1,24,25
 225 200 l 1,26,27
 300 200 l 1,28,29
 300 100 l 1,30,31
 375 100 l 1,32,33
 375 0 l 1,34,35
 262 0 l 1,36,37
 262 100 l 1,38,39
 188 100 l 1,40,41
 188 200 l 1,42,43
 150 200 l 1,44,45
 150 0 l 1,46,47
 75 0 l 1,0,1
188 600 m 1,48,49
 188 700 l 1,50,51
 225 700 l 1,52,53
 225 800 l 1,54,55
 300 800 l 1,56,57
 300 700 l 1,58,59
 262 700 l 1,60,61
 262 600 l 1,62,63
 188 600 l 1,48,49
EndSplineSet
Validated: 5
EndChar

StartChar: uni040D
Encoding: 1037 1037 250
Width: 450
GlyphClass: 2
Flags: W
LayerCount: 2
Back
Fore
SplineSet
38 700 m 1,0,1
 112 700 l 1,2,3
 112 200 l 1,4,5
 150 200 l 1,6,7
 150 300 l 1,8,9
 188 300 l 1,10,11
 188 400 l 1,12,13
 225 400 l 1,14,15
 225 500 l 1,16,17
 262 500 l 1,18,19
 262 600 l 1,20,21
 300 600 l 1,22,23
 300 700 l 1,24,25
 412 700 l 1,26,27
 412 0 l 1,28,29
 338 0 l 1,30,31
 338 500 l 1,32,33
 300 500 l 1,34,35
 300 400 l 1,36,37
 262 400 l 1,38,39
 262 300 l 1,40,41
 225 300 l 1,42,43
 225 200 l 1,44,45
 188 200 l 1,46,47
 188 100 l 1,48,49
 150 100 l 1,50,51
 150 0 l 1,52,53
 38 0 l 1,54,55
 38 700 l 1,0,1
EndSplineSet
Validated: 1
EndChar

StartChar: uni040E
Encoding: 1038 1038 251
Width: 450
GlyphClass: 2
Flags: W
LayerCount: 2
Back
Fore
SplineSet
231 700 m 1,0,1
 231 800 l 1,2,3
 269 800 l 1,4,5
 269 700 l 1,6,7
 231 700 l 1,0,1
81 700 m 1,8,9
 156 700 l 1,10,11
 156 400 l 1,12,13
 344 400 l 1,14,15
 344 700 l 1,16,17
 419 700 l 1,18,19
 419 100 l 1,20,21
 381 100 l 1,22,23
 381 0 l 1,24,25
 119 0 l 1,26,27
 119 100 l 1,28,29
 81 100 l 1,30,31
 81 200 l 1,32,33
 156 200 l 1,34,35
 156 100 l 1,36,37
 344 100 l 1,38,39
 344 300 l 1,40,41
 119 300 l 1,42,43
 119 400 l 1,44,45
 81 400 l 1,46,47
 81 700 l 1,8,9
EndSplineSet
Validated: 1
EndChar

StartChar: uni040F
Encoding: 1039 1039 252
Width: 450
GlyphClass: 2
Flags: W
LayerCount: 2
Back
Fore
SplineSet
88 0 m 1,0,1
 88 700 l 1,2,3
 162 700 l 1,4,5
 162 100 l 1,6,7
 388 100 l 1,8,9
 388 700 l 1,10,11
 462 700 l 1,12,13
 462 0 l 1,14,15
 312 0 l 1,16,17
 312 -200 l 1,18,19
 238 -200 l 1,20,21
 238 0 l 1,22,23
 88 0 l 1,0,1
EndSplineSet
Validated: 1
EndChar

StartChar: uni0410
Encoding: 1040 1040 253
Width: 450
GlyphClass: 2
Flags: W
LayerCount: 2
Back
Fore
SplineSet
112 400 m 1,0,1
 112 300 l 1,2,3
 338 300 l 1,4,5
 338 400 l 1,6,7
 300 400 l 1,8,9
 300 500 l 1,10,11
 262 500 l 1,12,13
 262 600 l 1,14,15
 188 600 l 1,16,17
 188 500 l 1,18,19
 150 500 l 1,20,21
 150 400 l 1,22,23
 112 400 l 1,0,1
112 0 m 1,24,25
 38 0 l 1,26,27
 38 400 l 1,28,29
 75 400 l 1,30,31
 75 500 l 1,32,33
 112 500 l 1,34,35
 112 600 l 1,36,37
 150 600 l 1,38,39
 150 700 l 1,40,41
 299 700 l 1,42,43
 299 684 299 684 299.5 650 c 0
 300 616 300 616 300 600 c 1,44,45
 338 600 l 1,46,47
 338 500 l 1,48,49
 375 500 l 1,50,51
 375 400 l 1,52,53
 412 400 l 1,54,55
 412 0 l 1,56,57
 338 0 l 1,58,59
 338 200 l 1,60,61
 112 200 l 1,62,63
 112 0 l 1,24,25
EndSplineSet
Validated: 1
EndChar

StartChar: uni0411
Encoding: 1041 1041 254
Width: 450
GlyphClass: 2
Flags: W
LayerCount: 2
Back
Fore
SplineSet
156 100 m 1,0,1
 344 100 l 1,2,3
 344 300 l 1,4,5
 156 300 l 1,6,7
 156 100 l 1,0,1
81 700 m 1,8,9
 381 700 l 1,10,11
 381 600 l 1,12,13
 156 600 l 1,14,15
 156 400 l 1,16,17
 381 400 l 1,18,19
 381 300 l 1,20,21
 419 300 l 1,22,23
 419 100 l 1,24,25
 381 100 l 1,26,27
 381 0 l 1,28,29
 81 0 l 1,30,31
 81 700 l 1,8,9
EndSplineSet
Validated: 1
EndChar

StartChar: uni0412
Encoding: 1042 1042 255
Width: 450
GlyphClass: 2
Flags: W
LayerCount: 2
Back
Fore
SplineSet
156 600 m 1,0,1
 156 400 l 1,2,3
 344 400 l 1,4,5
 344 600 l 1,6,7
 156 600 l 1,0,1
156 300 m 1,8,9
 156 100 l 1,10,11
 344 100 l 1,12,13
 344 300 l 1,14,15
 156 300 l 1,8,9
81 0 m 1,16,17
 81 700 l 1,18,19
 381 700 l 1,20,21
 381 600 l 1,22,23
 419 600 l 1,24,25
 419 400 l 1,26,27
 381 400 l 1,28,29
 381 300 l 1,30,31
 419 300 l 1,32,33
 419 100 l 1,34,35
 381 100 l 1,36,37
 381 0 l 1,38,39
 81 0 l 1,16,17
EndSplineSet
Validated: 1
EndChar

StartChar: uni0413
Encoding: 1043 1043 256
Width: 450
GlyphClass: 2
Flags: W
LayerCount: 2
Back
Fore
SplineSet
81 700 m 1,0,1
 419 700 l 1,2,3
 419 600 l 1,4,5
 156 600 l 1,6,7
 156 0 l 1,8,9
 81 0 l 1,10,11
 81 700 l 1,0,1
EndSplineSet
Validated: 1
EndChar

StartChar: uni0414
Encoding: 1044 1044 257
Width: 450
GlyphClass: 2
Flags: W
LayerCount: 2
Back
Fore
SplineSet
231 600 m 1,0,1
 231 500 l 1,2,3
 194 500 l 1,4,5
 194 100 l 1,6,7
 306 100 l 1,8,9
 306 600 l 1,10,11
 231 600 l 1,0,1
156 500 m 1,12,13
 156 600 l 1,14,15
 194 600 l 1,16,17
 194 700 l 1,18,19
 381 700 l 1,20,21
 381 100 l 1,22,23
 419 100 l 1,24,25
 419 -100 l 1,26,27
 344 -100 l 1,28,29
 344 0 l 1,30,31
 156 0 l 1,32,33
 156 -100 l 1,34,35
 81 -100 l 1,36,37
 81 100 l 1,38,39
 119 100 l 1,40,41
 119 500 l 1,42,43
 156 500 l 1,12,13
EndSplineSet
Validated: 1
EndChar

StartChar: uni0415
Encoding: 1045 1045 258
Width: 450
GlyphClass: 2
Flags: W
LayerCount: 2
Back
Fore
SplineSet
419 600 m 1,0,1
 156 600 l 1,2,3
 156 400 l 1,4,5
 344 400 l 1,6,7
 344 300 l 1,8,9
 156 300 l 1,10,11
 156 100 l 1,12,13
 419 100 l 1,14,15
 419 0 l 1,16,17
 81 0 l 1,18,19
 81 700 l 1,20,21
 419 700 l 1,22,23
 419 600 l 1,0,1
EndSplineSet
Validated: 1
EndChar

StartChar: uni0416
Encoding: 1046 1046 259
Width: 450
GlyphClass: 2
Flags: W
LayerCount: 2
Back
Fore
SplineSet
38 700 m 1,0,1
 112 700 l 1,2,3
 112 500 l 1,4,5
 149 500 l 1,6,7
 149 484 149 484 149.5 450 c 0
 150 416 150 416 150 400 c 1,8,9
 188 400 l 1,10,11
 188 700 l 1,12,13
 262 700 l 1,14,15
 262 400 l 1,16,17
 300 400 l 1,18,19
 300 500 l 1,20,21
 338 500 l 1,22,23
 338 700 l 1,24,25
 412 700 l 1,26,27
 412 500 l 1,28,29
 375 500 l 1,30,31
 375 400 l 1,32,33
 338 400 l 1,34,35
 338 384 338 384 337.5 350 c 0
 337 316 337 316 337 300 c 1,36,37
 375 300 l 1,38,39
 375 200 l 1,40,41
 412 200 l 1,42,43
 412 0 l 1,44,45
 338 0 l 1,46,47
 338 200 l 1,48,49
 300 200 l 1,50,51
 300 300 l 1,52,53
 262 300 l 1,54,55
 262 0 l 1,56,57
 188 0 l 1,58,59
 188 300 l 1,60,61
 150 300 l 1,62,63
 150 200 l 1,64,65
 112 200 l 1,66,67
 112 0 l 1,68,69
 38 0 l 1,70,71
 38 200 l 1,72,73
 75 200 l 1,74,75
 75 300 l 1,76,77
 112 300 l 1,78,79
 112 400 l 1,80,81
 75 400 l 1,82,83
 75 500 l 1,84,85
 38 500 l 1,86,87
 38 700 l 1,0,1
EndSplineSet
Validated: 1
EndChar

StartChar: uni0417
Encoding: 1047 1047 260
Width: 450
GlyphClass: 2
Flags: W
LayerCount: 2
Back
Fore
SplineSet
81 500 m 1,0,1
 81 600 l 1,2,3
 119 600 l 1,4,5
 119 700 l 1,6,7
 381 700 l 1,8,9
 381 600 l 1,10,11
 419 600 l 1,12,13
 419 400 l 1,14,15
 381 400 l 1,16,17
 381 300 l 1,18,19
 419 300 l 1,20,21
 419 100 l 1,22,23
 381 100 l 1,24,25
 381 0 l 1,26,27
 119 0 l 1,28,29
 119 100 l 1,30,31
 81 100 l 1,32,33
 81 200 l 1,34,35
 156 200 l 1,36,37
 156 100 l 1,38,39
 344 100 l 1,40,41
 344 300 l 1,42,43
 194 300 l 1,44,45
 194 400 l 1,46,47
 344 400 l 1,48,49
 344 600 l 1,50,51
 156 600 l 1,52,53
 156 500 l 1,54,55
 81 500 l 1,0,1
EndSplineSet
Validated: 1
EndChar

StartChar: uni0418
Encoding: 1048 1048 261
Width: 450
GlyphClass: 2
Flags: W
LayerCount: 2
Back
Fore
SplineSet
38 700 m 1,0,1
 112 700 l 1,2,3
 112 200 l 1,4,5
 150 200 l 1,6,7
 150 300 l 1,8,9
 188 300 l 1,10,11
 188 400 l 1,12,13
 225 400 l 1,14,15
 225 500 l 1,16,17
 262 500 l 1,18,19
 262 600 l 1,20,21
 300 600 l 1,22,23
 300 700 l 1,24,25
 412 700 l 1,26,27
 412 0 l 1,28,29
 338 0 l 1,30,31
 338 500 l 1,32,33
 300 500 l 1,34,35
 300 400 l 1,36,37
 262 400 l 1,38,39
 262 300 l 1,40,41
 225 300 l 1,42,43
 225 200 l 1,44,45
 188 200 l 1,46,47
 188 100 l 1,48,49
 150 100 l 1,50,51
 150 0 l 1,52,53
 38 0 l 1,54,55
 38 700 l 1,0,1
EndSplineSet
Validated: 1
EndChar

StartChar: uni0419
Encoding: 1049 1049 262
Width: 450
GlyphClass: 2
Flags: W
LayerCount: 2
Back
Fore
SplineSet
188 700 m 1,0,1
 188 800 l 1,2,3
 225 800 l 1,4,5
 225 700 l 1,6,7
 188 700 l 1,0,1
38 700 m 1,8,9
 112 700 l 1,10,11
 112 200 l 1,12,13
 150 200 l 1,14,15
 150 300 l 1,16,17
 188 300 l 1,18,19
 188 400 l 1,20,21
 225 400 l 1,22,23
 225 500 l 1,24,25
 262 500 l 1,26,27
 262 600 l 1,28,29
 300 600 l 1,30,31
 300 700 l 1,32,33
 412 700 l 1,34,35
 412 0 l 1,36,37
 338 0 l 1,38,39
 338 500 l 1,40,41
 300 500 l 1,42,43
 300 400 l 1,44,45
 262 400 l 1,46,47
 262 300 l 1,48,49
 225 300 l 1,50,51
 225 200 l 1,52,53
 188 200 l 1,54,55
 188 100 l 1,56,57
 150 100 l 1,58,59
 150 0 l 1,60,61
 38 0 l 1,62,63
 38 700 l 1,8,9
EndSplineSet
Validated: 1
EndChar

StartChar: uni041A
Encoding: 1050 1050 263
Width: 450
GlyphClass: 2
Flags: W
LayerCount: 2
Back
Fore
SplineSet
81 700 m 1,0,1
 156 700 l 1,2,3
 156 400 l 1,4,5
 194 400 l 1,6,7
 194 500 l 1,8,9
 269 500 l 1,10,11
 269 600 l 1,12,13
 306 600 l 1,14,15
 306 700 l 1,16,17
 419 700 l 1,18,19
 419 600 l 1,20,21
 344 600 l 1,22,23
 344 500 l 1,24,25
 306 500 l 1,26,27
 306 400 l 1,28,29
 231 400 l 1,30,31
 231 300 l 1,32,33
 306 300 l 1,34,35
 306 200 l 1,36,37
 344 200 l 1,38,39
 344 100 l 1,40,41
 419 100 l 1,42,43
 419 0 l 1,44,45
 306 0 l 1,46,47
 306 100 l 1,48,49
 269 100 l 1,50,51
 269 200 l 1,52,53
 194 200 l 1,54,55
 194 300 l 1,56,57
 156 300 l 1,58,59
 156 0 l 1,60,61
 81 0 l 1,62,63
 81 700 l 1,0,1
EndSplineSet
Validated: 1
EndChar

StartChar: uni041B
Encoding: 1051 1051 264
Width: 450
GlyphClass: 2
Flags: W
LayerCount: 2
Back
Fore
SplineSet
81 0 m 1,0,1
 81 100 l 1,2,3
 119 100 l 1,4,5
 119 200 l 1,6,7
 156 200 l 1,8,9
 156 600 l 1,10,11
 194 600 l 1,12,13
 194 700 l 1,14,15
 419 700 l 1,16,17
 419 0 l 1,18,19
 344 0 l 1,20,21
 344 600 l 1,22,23
 231 600 l 1,24,25
 231 200 l 1,26,27
 194 200 l 1,28,29
 194 100 l 1,30,31
 156 100 l 1,32,33
 156 0 l 1,34,35
 81 0 l 1,0,1
EndSplineSet
Validated: 1
EndChar

StartChar: uni041C
Encoding: 1052 1052 265
Width: 450
GlyphClass: 2
Flags: W
LayerCount: 2
Back
Fore
SplineSet
112 0 m 1,0,1
 38 0 l 1,2,3
 38 700 l 1,4,5
 150 700 l 1,6,7
 150 600 l 1,8,9
 188 600 l 1,10,11
 188 500 l 1,12,13
 262 500 l 1,14,15
 262 600 l 1,16,17
 300 600 l 1,18,19
 300 700 l 1,20,21
 412 700 l 1,22,23
 412 0 l 1,24,25
 338 0 l 1,26,27
 338 500 l 1,28,29
 300 500 l 1,30,31
 300 400 l 1,32,33
 262 400 l 1,34,35
 262 300 l 1,36,37
 188 300 l 1,38,39
 188 400 l 1,40,41
 150 400 l 1,42,43
 150 500 l 1,44,45
 112 500 l 1,46,47
 112 0 l 1,0,1
EndSplineSet
Validated: 1
EndChar

StartChar: uni041D
Encoding: 1053 1053 266
Width: 450
GlyphClass: 2
Flags: W
LayerCount: 2
Back
Fore
SplineSet
81 700 m 1,0,1
 156 700 l 1,2,3
 156 400 l 1,4,5
 344 400 l 1,6,7
 344 700 l 1,8,9
 419 700 l 1,10,11
 419 0 l 1,12,13
 344 0 l 1,14,15
 344 300 l 1,16,17
 156 300 l 1,18,19
 156 0 l 1,20,21
 81 0 l 1,22,23
 81 700 l 1,0,1
EndSplineSet
Validated: 1
EndChar

StartChar: uni041E
Encoding: 1054 1054 267
Width: 450
GlyphClass: 2
Flags: W
LayerCount: 2
Back
Fore
SplineSet
300 100 m 1,0,1
 300 200 l 1,2,3
 338 200 l 1,4,5
 338 500 l 1,6,7
 300 500 l 1,8,9
 300 600 l 1,10,11
 150 600 l 1,12,13
 150 500 l 1,14,15
 112 500 l 1,16,17
 112 200 l 1,18,19
 150 200 l 1,20,21
 150 100 l 1,22,23
 300 100 l 1,0,1
338 0 m 1,24,25
 112 0 l 1,26,27
 112 100 l 1,28,29
 75 100 l 1,30,31
 75 200 l 1,32,33
 38 200 l 1,34,35
 38 500 l 1,36,37
 75 500 l 1,38,39
 75 600 l 1,40,41
 112 600 l 1,42,43
 112 700 l 1,44,45
 338 700 l 1,46,47
 338 600 l 1,48,49
 375 600 l 1,50,51
 375 500 l 1,52,53
 412 500 l 1,54,55
 412 200 l 1,56,57
 375 200 l 1,58,59
 375 100 l 1,60,61
 338 100 l 1,62,63
 338 0 l 1,24,25
EndSplineSet
Validated: 1
EndChar

StartChar: uni041F
Encoding: 1055 1055 268
Width: 450
GlyphClass: 2
Flags: W
LayerCount: 2
Back
Fore
SplineSet
81 700 m 1,0,1
 419 700 l 1,2,3
 419 0 l 1,4,5
 344 0 l 1,6,7
 344 600 l 1,8,9
 156 600 l 1,10,11
 156 0 l 1,12,13
 81 0 l 1,14,15
 81 700 l 1,0,1
EndSplineSet
Validated: 1
EndChar

StartChar: uni0420
Encoding: 1056 1056 269
Width: 450
GlyphClass: 2
Flags: W
LayerCount: 2
Back
Fore
SplineSet
156 600 m 1,0,1
 156 400 l 1,2,3
 344 400 l 1,4,5
 344 600 l 1,6,7
 156 600 l 1,0,1
81 700 m 1,8,9
 381 700 l 1,10,11
 381 650 l 1,12,13
 419 650 l 1,14,15
 419 400 l 1,16,17
 381 400 l 1,18,19
 381 300 l 1,20,21
 156 300 l 1,22,23
 156 0 l 1,24,25
 81 0 l 1,26,27
 81 700 l 1,8,9
EndSplineSet
Validated: 1
EndChar

StartChar: uni0421
Encoding: 1057 1057 270
Width: 450
GlyphClass: 2
Flags: W
LayerCount: 2
Back
Fore
SplineSet
156 700 m 1,0,1
 381 700 l 1,2,3
 381 600 l 1,4,5
 419 600 l 1,6,7
 419 500 l 1,8,9
 344 500 l 1,10,11
 344 600 l 1,12,13
 194 600 l 1,14,15
 194 500 l 1,16,17
 156 500 l 1,18,19
 156 200 l 1,20,21
 194 200 l 1,22,23
 194 100 l 1,24,25
 344 100 l 1,26,27
 344 200 l 1,28,29
 419 200 l 1,30,31
 419 100 l 1,32,33
 381 100 l 1,34,35
 381 0 l 1,36,37
 156 0 l 1,38,39
 156 100 l 1,40,41
 119 100 l 1,42,43
 119 200 l 1,44,45
 81 200 l 1,46,47
 81 500 l 1,48,49
 119 500 l 1,50,51
 119 600 l 1,52,53
 156 600 l 1,54,55
 156 700 l 1,0,1
EndSplineSet
Validated: 1
EndChar

StartChar: uni0422
Encoding: 1058 1058 271
Width: 450
GlyphClass: 2
Flags: W
LayerCount: 2
Back
Fore
SplineSet
38 700 m 1,0,1
 412 700 l 1,2,3
 412 600 l 1,4,5
 262 600 l 1,6,7
 262 0 l 1,8,9
 188 0 l 1,10,11
 188 600 l 1,12,13
 38 600 l 1,14,15
 38 700 l 1,0,1
EndSplineSet
Validated: 1
EndChar

StartChar: uni0423
Encoding: 1059 1059 272
Width: 450
GlyphClass: 2
Flags: W
LayerCount: 2
Back
Fore
SplineSet
81 700 m 1,0,1
 156 700 l 1,2,3
 156 400 l 1,4,5
 344 400 l 1,6,7
 344 700 l 1,8,9
 419 700 l 1,10,11
 419 100 l 1,12,13
 381 100 l 1,14,15
 381 0 l 1,16,17
 119 0 l 1,18,19
 119 100 l 1,20,21
 81 100 l 1,22,23
 81 200 l 1,24,25
 156 200 l 1,26,27
 156 100 l 1,28,29
 344 100 l 1,30,31
 344 300 l 1,32,33
 119 300 l 1,34,35
 119 400 l 1,36,37
 81 400 l 1,38,39
 81 700 l 1,0,1
EndSplineSet
Validated: 1
EndChar

StartChar: uni0424
Encoding: 1060 1060 273
Width: 450
GlyphClass: 2
Flags: W
LayerCount: 2
Back
Fore
SplineSet
262 500 m 1,0,1
 262 200 l 1,2,3
 338 200 l 1,4,5
 338 500 l 1,6,7
 262 500 l 1,0,1
112 500 m 1,8,9
 112 200 l 1,10,11
 188 200 l 1,12,13
 188 500 l 1,14,15
 112 500 l 1,8,9
188 600 m 1,16,17
 188 700 l 1,18,19
 262 700 l 1,20,21
 262 600 l 1,22,23
 375 600 l 1,24,25
 375 500 l 1,26,27
 412 500 l 1,28,29
 412 200 l 1,30,31
 375 200 l 1,32,33
 375 100 l 1,34,35
 262 100 l 1,36,37
 262 0 l 1,38,39
 188 0 l 1,40,41
 188 100 l 1,42,43
 75 100 l 1,44,45
 75 200 l 1,46,47
 38 200 l 1,48,49
 38 500 l 1,50,51
 75 500 l 1,52,53
 75 600 l 1,54,55
 188 600 l 1,16,17
EndSplineSet
Validated: 1
EndChar

StartChar: uni0425
Encoding: 1061 1061 274
Width: 450
GlyphClass: 2
Flags: W
LayerCount: 2
Back
Fore
SplineSet
75 700 m 1,0,1
 150 700 l 1,2,3
 150 600 l 1,4,5
 188 600 l 1,6,7
 188 500 l 1,8,9
 262 500 l 1,10,11
 262 600 l 1,12,13
 300 600 l 1,14,15
 300 700 l 1,16,17
 375 700 l 1,18,19
 375 600 l 1,20,21
 338 600 l 1,22,23
 338 500 l 1,24,25
 300 500 l 1,26,27
 300 400 l 1,28,29
 262 400 l 1,30,31
 262 300 l 1,32,33
 300 300 l 1,34,35
 300 200 l 1,36,37
 338 200 l 1,38,39
 338 100 l 1,40,41
 375 100 l 1,42,43
 375 0 l 1,44,45
 300 0 l 1,46,47
 300 100 l 1,48,49
 262 100 l 1,50,51
 262 200 l 1,52,53
 188 200 l 1,54,55
 188 100 l 1,56,57
 150 100 l 1,58,59
 150 0 l 1,60,61
 75 0 l 1,62,63
 75 100 l 1,64,65
 112 100 l 1,66,67
 112 200 l 1,68,69
 150 200 l 1,70,71
 150 300 l 1,72,73
 188 300 l 1,74,75
 188 400 l 1,76,77
 150 400 l 1,78,79
 150 500 l 1,80,81
 112 500 l 1,82,83
 112 600 l 1,84,85
 75 600 l 1,86,87
 75 700 l 1,0,1
EndSplineSet
Validated: 1
EndChar

StartChar: uni0426
Encoding: 1062 1062 275
Width: 450
GlyphClass: 2
Flags: W
LayerCount: 2
Back
Fore
SplineSet
81 700 m 1,0,1
 156 700 l 1,2,3
 156 100 l 1,4,5
 269 100 l 1,6,7
 269 700 l 1,8,9
 344 700 l 1,10,11
 344 100 l 1,12,13
 419 100 l 1,14,15
 419 -100 l 1,16,17
 344 -100 l 1,18,19
 344 0 l 1,20,21
 81 0 l 1,22,23
 81 700 l 1,0,1
EndSplineSet
Validated: 1
EndChar

StartChar: uni0427
Encoding: 1063 1063 276
Width: 450
GlyphClass: 2
Flags: W
LayerCount: 2
Back
Fore
SplineSet
81 700 m 1,0,1
 156 700 l 1,2,3
 156 500 l 1,4,5
 194 500 l 1,6,7
 194 400 l 1,8,9
 344 400 l 1,10,11
 344 700 l 1,12,13
 419 700 l 1,14,15
 419 0 l 1,16,17
 344 0 l 1,18,19
 344 300 l 1,20,21
 156 300 l 1,22,23
 156 400 l 1,24,25
 119 400 l 1,26,27
 119 500 l 1,28,29
 81 500 l 1,30,31
 81 700 l 1,0,1
EndSplineSet
Validated: 1
EndChar

StartChar: uni0428
Encoding: 1064 1064 277
Width: 450
GlyphClass: 2
Flags: W
LayerCount: 2
Back
Fore
SplineSet
38 700 m 1,0,1
 112 700 l 1,2,3
 112 100 l 1,4,5
 188 100 l 1,6,7
 188 700 l 1,8,9
 262 700 l 1,10,11
 262 100 l 1,12,13
 338 100 l 1,14,15
 338 700 l 1,16,17
 412 700 l 1,18,19
 412 0 l 1,20,21
 38 0 l 1,22,23
 38 700 l 1,0,1
EndSplineSet
Validated: 1
EndChar

StartChar: uni0429
Encoding: 1065 1065 278
Width: 450
GlyphClass: 2
Flags: W
LayerCount: 2
Back
Fore
SplineSet
44 700 m 1,0,1
 119 700 l 1,2,3
 119 100 l 1,4,5
 194 100 l 1,6,7
 194 700 l 1,8,9
 269 700 l 1,10,11
 269 100 l 1,12,13
 344 100 l 1,14,15
 344 700 l 1,16,17
 419 700 l 1,18,19
 419 100 l 1,20,21
 456 100 l 1,22,23
 456 -100 l 1,24,25
 381 -100 l 1,26,27
 381 0 l 1,28,29
 44 0 l 1,30,31
 44 700 l 1,0,1
EndSplineSet
Validated: 1
EndChar

StartChar: uni042A
Encoding: 1066 1066 279
Width: 450
GlyphClass: 2
Flags: W
LayerCount: 2
Back
Fore
SplineSet
188 300 m 1,0,1
 188 100 l 1,2,3
 338 100 l 1,4,5
 338 300 l 1,6,7
 188 300 l 1,0,1
38 700 m 1,8,9
 188 700 l 1,10,11
 188 400 l 1,12,13
 375 400 l 1,14,15
 375 300 l 1,16,17
 412 300 l 1,18,19
 412 100 l 1,20,21
 375 100 l 1,22,23
 375 0 l 1,24,25
 112 0 l 1,26,27
 112 600 l 1,28,29
 38 600 l 1,30,31
 38 700 l 1,8,9
EndSplineSet
Validated: 1
EndChar

StartChar: uni042B
Encoding: 1067 1067 280
Width: 450
GlyphClass: 2
Flags: W
LayerCount: 2
Back
Fore
SplineSet
225 300 m 1,0,1
 112 300 l 1,2,3
 112 100 l 1,4,5
 225 100 l 1,6,7
 225 300 l 1,0,1
338 700 m 1,8,9
 412 700 l 1,10,11
 412 0 l 1,12,13
 338 0 l 1,14,15
 338 700 l 1,8,9
38 700 m 1,16,17
 112 700 l 1,18,19
 112 400 l 1,20,21
 262 400 l 1,22,23
 262 300 l 1,24,25
 300 300 l 1,26,27
 300 100 l 1,28,29
 262 100 l 1,30,31
 262 0 l 1,32,33
 38 0 l 1,34,35
 38 700 l 1,16,17
EndSplineSet
Validated: 1
EndChar

StartChar: uni042C
Encoding: 1068 1068 281
Width: 450
GlyphClass: 2
Flags: W
LayerCount: 2
Back
Fore
SplineSet
200 100 m 1,0,1
 350 100 l 1,2,3
 350 300 l 1,4,5
 200 300 l 1,6,7
 200 100 l 1,0,1
125 700 m 1,8,9
 199 700 l 1,10,11
 199 400 l 1,12,13
 388 400 l 1,14,15
 388 300 l 1,16,17
 424 300 l 1,18,19
 424 267 424 267 424.5 200.5 c 0
 425 134 425 134 425 101 c 1,20,21
 419 101 419 101 406.5 100.5 c 0
 394 100 394 100 388 100 c 1,22,23
 388 0 l 1,24,25
 125 0 l 1,26,27
 125 700 l 1,8,9
EndSplineSet
Validated: 1
EndChar

StartChar: uni042D
Encoding: 1069 1069 282
Width: 450
GlyphClass: 2
Flags: W
LayerCount: 2
Back
Fore
SplineSet
81 500 m 1,0,1
 81 600 l 1,2,3
 119 600 l 1,4,5
 119 700 l 1,6,7
 344 700 l 1,8,9
 344 600 l 1,10,11
 381 600 l 1,12,13
 381 500 l 1,14,15
 419 500 l 1,16,17
 419 200 l 1,18,19
 381 200 l 1,20,21
 381 100 l 1,22,23
 344 100 l 1,24,25
 344 0 l 1,26,27
 119 0 l 1,28,29
 119 100 l 1,30,31
 81 100 l 1,32,33
 81 200 l 1,34,35
 156 200 l 1,36,37
 156 100 l 1,38,39
 306 100 l 1,40,41
 306 200 l 1,42,43
 344 200 l 1,44,45
 344 300 l 1,46,47
 194 300 l 1,48,49
 194 400 l 1,50,51
 344 400 l 1,52,53
 344 500 l 1,54,55
 306 500 l 1,56,57
 306 600 l 1,58,59
 156 600 l 1,60,61
 156 500 l 1,62,63
 81 500 l 1,0,1
EndSplineSet
Validated: 1
EndChar

StartChar: uni042E
Encoding: 1070 1070 283
Width: 450
GlyphClass: 2
Flags: W
LayerCount: 2
Back
Fore
SplineSet
269 600 m 1,0,1
 269 100 l 1,2,3
 344 100 l 1,4,5
 344 600 l 1,6,7
 269 600 l 1,0,1
81 700 m 1,8,9
 156 700 l 1,10,11
 156 400 l 1,12,13
 194 400 l 1,14,15
 194 600 l 1,16,17
 231 600 l 1,18,19
 231 700 l 1,20,21
 381 700 l 1,22,23
 381 600 l 1,24,25
 419 600 l 1,26,27
 419 100 l 1,28,29
 381 100 l 1,30,31
 381 0 l 1,32,33
 231 0 l 1,34,35
 231 100 l 1,36,37
 194 100 l 1,38,39
 194 300 l 1,40,41
 156 300 l 1,42,43
 156 0 l 1,44,45
 81 0 l 1,46,47
 81 700 l 1,8,9
EndSplineSet
Validated: 1
EndChar

StartChar: uni042F
Encoding: 1071 1071 284
Width: 450
GlyphClass: 2
Flags: W
LayerCount: 2
Back
Fore
SplineSet
156 600 m 1,0,1
 156 400 l 1,2,3
 344 400 l 1,4,5
 344 600 l 1,6,7
 156 600 l 1,0,1
119 700 m 1,8,9
 419 700 l 1,10,11
 419 0 l 1,12,13
 344 0 l 1,14,15
 344 200 l 1,16,17
 269 200 l 1,18,19
 269 100 l 1,20,21
 231 100 l 1,22,23
 231 0 l 1,24,25
 81 0 l 1,26,27
 81 100 l 1,28,29
 156 100 l 1,30,31
 156 200 l 1,32,33
 231 200 l 1,34,35
 231 300 l 1,36,37
 119 300 l 1,38,39
 119 400 l 1,40,41
 81 400 l 1,42,43
 81 600 l 1,44,45
 119 600 l 1,46,47
 119 700 l 1,8,9
EndSplineSet
Validated: 1
EndChar

StartChar: uni0430
Encoding: 1072 1072 285
Width: 450
GlyphClass: 2
Flags: W
LayerCount: 2
Back
Fore
SplineSet
112 200 m 1,0,1
 112 100 l 1,2,3
 300 100 l 1,4,5
 300 200 l 1,6,7
 112 200 l 1,0,1
75 500 m 1,8,9
 338 500 l 1,10,11
 338 400 l 1,12,13
 375 400 l 1,14,15
 375 100 l 1,16,17
 412 100 l 1,18,19
 412 0 l 1,20,21
 75 0 l 1,22,23
 75 100 l 1,24,25
 38 100 l 1,26,27
 38 200 l 1,28,29
 75 200 l 1,30,31
 75 300 l 1,32,33
 300 300 l 1,34,35
 300 400 l 1,36,37
 75 400 l 1,38,39
 75 500 l 1,8,9
EndSplineSet
Validated: 1
EndChar

StartChar: uni0431
Encoding: 1073 1073 286
Width: 450
GlyphClass: 2
Flags: W
LayerCount: 2
Back
Fore
SplineSet
156 300 m 1,0,1
 156 100 l 1,2,3
 344 100 l 1,4,5
 344 300 l 1,6,7
 156 300 l 1,0,1
119 700 m 1,8,9
 419 700 l 1,10,11
 419 600 l 1,12,13
 231 600 l 1,14,15
 231 500 l 1,16,17
 344 500 l 1,18,19
 344 400 l 1,20,21
 381 400 l 1,22,23
 381 300 l 1,24,25
 419 300 l 1,26,27
 419 100 l 1,28,29
 381 100 l 1,30,31
 381 0 l 1,32,33
 119 0 l 1,34,35
 119 100 l 1,36,37
 81 100 l 1,38,39
 81 300 l 1,40,41
 119 300 l 1,42,43
 119 400 l 1,44,45
 231 400 l 1,46,47
 231 500 l 1,48,49
 156 500 l 1,50,51
 156 600 l 1,52,53
 119 600 l 1,54,55
 119 700 l 1,8,9
EndSplineSet
Validated: 5
EndChar

StartChar: uni0432
Encoding: 1074 1074 287
Width: 450
GlyphClass: 2
Flags: W
LayerCount: 2
Back
Fore
SplineSet
156 200 m 1,0,1
 156 100 l 1,2,3
 344 100 l 1,4,5
 344 200 l 1,6,7
 156 200 l 1,0,1
156 400 m 1,8,9
 156 300 l 1,10,11
 344 300 l 1,12,13
 344 400 l 1,14,15
 156 400 l 1,8,9
81 500 m 1,16,17
 381 500 l 1,18,19
 381 400 l 1,20,21
 419 400 l 1,22,23
 419 300 l 1,24,25
 381 300 l 1,26,27
 381 200 l 1,28,29
 419 200 l 1,30,31
 419 100 l 1,32,33
 381 100 l 1,34,35
 381 0 l 1,36,37
 81 0 l 1,38,39
 81 500 l 1,16,17
EndSplineSet
Validated: 1
EndChar

StartChar: uni0433
Encoding: 1075 1075 288
Width: 450
GlyphClass: 2
Flags: W
LayerCount: 2
Back
Fore
SplineSet
81 0 m 1,0,1
 81 500 l 1,2,3
 419 500 l 1,4,5
 419 401 l 1,6,7
 375 401 375 401 287.5 400.5 c 0
 200 400 200 400 156 400 c 1,8,9
 156 0 l 1,10,11
 81 0 l 1,0,1
EndSplineSet
Validated: 1
EndChar

StartChar: uni0434
Encoding: 1076 1076 289
Width: 450
GlyphClass: 2
Flags: W
LayerCount: 2
Back
Fore
SplineSet
188 400 m 1,0,1
 188 100 l 1,2,3
 262 100 l 1,4,5
 262 400 l 1,6,7
 188 400 l 1,0,1
150 500 m 1,8,9
 338 500 l 1,10,11
 338 100 l 1,12,13
 412 100 l 1,14,15
 412 -100 l 1,16,17
 338 -100 l 1,18,19
 338 0 l 1,20,21
 300 0 300 0 225 -0.5 c 0
 150 -1 150 -1 112 -1 c 1,22,23
 112 -100 l 1,24,25
 38 -100 l 1,26,27
 38 100 l 1,28,29
 112 100 l 1,30,31
 112 400 l 1,32,33
 150 400 l 1,34,35
 150 500 l 1,8,9
EndSplineSet
Validated: 1
EndChar

StartChar: uni0435
Encoding: 1077 1077 290
Width: 450
GlyphClass: 2
Flags: W
LayerCount: 2
Back
Fore
SplineSet
156 400 m 1,0,1
 156 300 l 1,2,3
 344 300 l 1,4,5
 344 400 l 1,6,7
 156 400 l 1,0,1
119 400 m 1,8,9
 119 500 l 1,10,11
 380 500 l 1,12,13
 380 484 380 484 380.5 450 c 0
 381 416 381 416 381 400 c 1,14,15
 419 400 l 1,16,17
 419 200 l 1,18,19
 156 200 l 1,20,21
 156 100 l 1,22,23
 381 100 l 1,24,25
 381 0 l 1,26,27
 119 0 l 1,28,29
 119 100 l 1,30,31
 81 100 l 1,32,33
 81 400 l 1,34,35
 119 400 l 1,8,9
EndSplineSet
Validated: 1
EndChar

StartChar: uni0436
Encoding: 1078 1078 291
Width: 450
GlyphClass: 2
Flags: W
LayerCount: 2
Back
Fore
SplineSet
38 500 m 1,0,1
 112 500 l 1,2,3
 112 400 l 1,4,5
 150 400 l 1,6,7
 150 300 l 1,8,9
 188 300 l 1,10,11
 188 500 l 1,12,13
 262 500 l 1,14,15
 262 300 l 1,16,17
 300 300 l 1,18,19
 300 400 l 1,20,21
 338 400 l 1,22,23
 338 500 l 1,24,25
 412 500 l 1,26,27
 412 400 l 1,28,29
 375 400 l 1,30,31
 375 300 l 1,32,33
 338 300 l 1,34,35
 338 200 l 1,36,37
 375 200 l 1,38,39
 375 100 l 1,40,41
 412 100 l 1,42,43
 412 0 l 1,44,45
 338 0 l 1,46,47
 338 100 l 1,48,49
 300 100 l 1,50,51
 300 200 l 1,52,53
 262 200 l 1,54,55
 262 0 l 1,56,57
 188 0 l 1,58,59
 188 200 l 1,60,61
 150 200 l 1,62,63
 150 100 l 1,64,65
 112 100 l 1,66,67
 112 0 l 1,68,69
 38 0 l 1,70,71
 38 100 l 1,72,73
 75 100 l 1,74,75
 75 200 l 1,76,77
 112 200 l 1,78,79
 112 300 l 1,80,81
 75 300 l 1,82,83
 75 400 l 1,84,85
 38 400 l 1,86,87
 38 500 l 1,0,1
EndSplineSet
Validated: 1
EndChar

StartChar: uni0437
Encoding: 1079 1079 292
Width: 450
GlyphClass: 2
Flags: W
LayerCount: 2
Back
Fore
SplineSet
81 400 m 1,0,1
 119 400 l 1,2,3
 119 500 l 1,4,5
 381 500 l 1,6,7
 381 400 l 1,8,9
 419 400 l 1,10,11
 419 300 l 1,12,13
 381 300 l 1,14,15
 381 200 l 1,16,17
 419 200 l 1,18,19
 419 100 l 1,20,21
 381 100 l 1,22,23
 381 0 l 1,24,25
 119 0 l 1,26,27
 119 100 l 1,28,29
 81 100 l 1,30,31
 81 200 l 1,32,33
 156 200 l 1,34,35
 156 100 l 1,36,37
 344 100 l 1,38,39
 344 200 l 1,40,41
 231 200 l 1,42,43
 231 300 l 1,44,45
 344 300 l 1,46,47
 344 400 l 1,48,49
 156 400 l 1,50,51
 156 300 l 1,52,53
 81 300 l 1,54,55
 81 400 l 1,0,1
EndSplineSet
Validated: 1
EndChar

StartChar: uni0438
Encoding: 1080 1080 293
Width: 450
GlyphClass: 2
Flags: W
LayerCount: 2
Back
Fore
SplineSet
81 0 m 1,0,1
 81 500 l 1,2,3
 156 500 l 1,4,5
 156 100 l 1,6,7
 194 100 l 1,8,9
 194 200 l 1,10,11
 231 200 l 1,12,13
 231 300 l 1,14,15
 269 300 l 1,16,17
 269 400 l 1,18,19
 306 400 l 1,20,21
 306 500 l 1,22,23
 419 500 l 1,24,25
 419 0 l 1,26,27
 344 0 l 1,28,29
 344 400 l 1,30,31
 306 400 l 1,32,33
 306 300 l 1,34,35
 269 300 l 1,36,37
 269 200 l 1,38,39
 231 200 l 1,40,41
 231 100 l 1,42,43
 194 100 l 1,44,45
 194 0 l 1,46,47
 81 0 l 1,0,1
EndSplineSet
Validated: 5
EndChar

StartChar: uni0439
Encoding: 1081 1081 294
Width: 450
GlyphClass: 2
Flags: W
LayerCount: 2
Back
Fore
SplineSet
119 800 m 1,0,1
 194 800 l 1,2,3
 194 700 l 1,4,5
 306 700 l 1,6,7
 306 800 l 1,8,9
 381 800 l 1,10,11
 381 700 l 1,12,13
 344 700 l 1,14,15
 344 600 l 1,16,17
 156 600 l 1,18,19
 156 700 l 1,20,21
 119 700 l 1,22,23
 119 800 l 1,0,1
81 0 m 1,24,25
 81 500 l 1,26,27
 156 500 l 1,28,29
 156 100 l 1,30,31
 194 100 l 1,32,33
 194 200 l 1,34,35
 231 200 l 1,36,37
 231 300 l 1,38,39
 269 300 l 1,40,41
 269 400 l 1,42,43
 306 400 l 1,44,45
 306 500 l 1,46,47
 419 500 l 1,48,49
 419 0 l 1,50,51
 344 0 l 1,52,53
 344 400 l 1,54,55
 306 400 l 1,56,57
 306 300 l 1,58,59
 269 300 l 1,60,61
 269 200 l 1,62,63
 231 200 l 1,64,65
 231 100 l 1,66,67
 194 100 l 1,68,69
 194 0 l 1,70,71
 81 0 l 1,24,25
EndSplineSet
Validated: 5
EndChar

StartChar: uni043A
Encoding: 1082 1082 295
Width: 450
GlyphClass: 2
Flags: W
LayerCount: 2
Back
Fore
SplineSet
81 500 m 1,0,1
 156 500 l 1,2,3
 156 300 l 1,4,5
 269 300 l 1,6,7
 269 400 l 1,8,9
 306 400 l 1,10,11
 306 500 l 1,12,13
 419 500 l 1,14,15
 419 400 l 1,16,17
 344 400 l 1,18,19
 344 300 l 1,20,21
 306 300 l 1,22,23
 306 200 l 1,24,25
 344 200 l 1,26,27
 344 100 l 1,28,29
 419 100 l 1,30,31
 419 0 l 1,32,33
 306 0 l 1,34,35
 306 100 l 1,36,37
 269 100 l 1,38,39
 269 200 l 1,40,41
 156 200 l 1,42,43
 156 0 l 1,44,45
 81 0 l 1,46,47
 81 500 l 1,0,1
EndSplineSet
Validated: 1
EndChar

StartChar: uni043B
Encoding: 1083 1083 296
Width: 450
GlyphClass: 2
Flags: W
LayerCount: 2
Back
Fore
SplineSet
81 100 m 1,0,1
 119 100 l 1,2,3
 119 400 l 1,4,5
 156 400 l 1,6,7
 156 500 l 1,8,9
 419 500 l 1,10,11
 419 0 l 1,12,13
 344 0 l 1,14,15
 344 400 l 1,16,17
 194 400 l 1,18,19
 194 100 l 1,20,21
 156 100 l 1,22,23
 156 0 l 1,24,25
 81 0 l 1,26,27
 81 100 l 1,0,1
EndSplineSet
Validated: 1
EndChar

StartChar: uni043C
Encoding: 1084 1084 297
Width: 450
GlyphClass: 2
Flags: W
LayerCount: 2
Back
Fore
SplineSet
81 0 m 1,0,1
 81 500 l 1,2,3
 194 500 l 1,4,5
 194 400 l 1,6,7
 231 400 l 1,8,9
 231 300 l 1,10,11
 269 300 l 1,12,13
 269 400 l 1,14,15
 306 400 l 1,16,17
 306 500 l 1,18,19
 419 500 l 1,20,21
 419 0 l 1,22,23
 344 0 l 1,24,25
 344 300 l 1,26,27
 306 300 l 1,28,29
 306 200 l 1,30,31
 269 200 l 1,32,33
 269 100 l 1,34,35
 231 100 l 1,36,37
 231 200 l 1,38,39
 194 200 l 1,40,41
 194 300 l 1,42,43
 156 300 l 1,44,45
 156 0 l 1,46,47
 81 0 l 1,0,1
EndSplineSet
Validated: 1
EndChar

StartChar: uni043D
Encoding: 1085 1085 298
Width: 450
GlyphClass: 2
Flags: W
LayerCount: 2
Back
Fore
SplineSet
75 500 m 1,0,1
 150 500 l 1,2,3
 150 300 l 1,4,5
 300 300 l 1,6,7
 300 500 l 1,8,9
 375 500 l 1,10,11
 375 0 l 1,12,13
 300 0 l 1,14,15
 300 200 l 1,16,17
 150 200 l 1,18,19
 150 0 l 1,20,21
 75 0 l 1,22,23
 75 500 l 1,0,1
EndSplineSet
Validated: 1
EndChar

StartChar: uni043E
Encoding: 1086 1086 299
Width: 450
GlyphClass: 2
Flags: W
LayerCount: 2
Back
Fore
SplineSet
156 400 m 1,0,1
 156 100 l 1,2,3
 344 100 l 1,4,5
 344 400 l 1,6,7
 156 400 l 1,0,1
119 500 m 1,8,9
 381 500 l 1,10,11
 381 400 l 1,12,13
 419 400 l 1,14,15
 419 100 l 1,16,17
 381 100 l 1,18,19
 381 0 l 1,20,21
 119 0 l 1,22,23
 119 100 l 1,24,25
 81 100 l 1,26,27
 81 400 l 1,28,29
 119 400 l 1,30,31
 119 500 l 1,8,9
EndSplineSet
Validated: 1
EndChar

StartChar: uni043F
Encoding: 1087 1087 300
Width: 450
GlyphClass: 2
Flags: W
LayerCount: 2
Back
Fore
SplineSet
81 0 m 1,0,1
 81 500 l 1,2,3
 419 500 l 1,4,5
 419 0 l 1,6,7
 344 0 l 1,8,9
 344 400 l 1,10,11
 156 400 l 1,12,13
 156 0 l 1,14,15
 81 0 l 1,0,1
EndSplineSet
Validated: 1
EndChar

StartChar: uni0440
Encoding: 1088 1088 301
Width: 450
GlyphClass: 2
Flags: W
LayerCount: 2
Back
Fore
SplineSet
194 300 m 1,0,1
 156 300 l 1,2,3
 156 200 l 1,4,5
 194 200 l 1,6,7
 194 100 l 1,8,9
 344 100 l 1,10,11
 344 400 l 1,12,13
 194 400 l 1,14,15
 194 300 l 1,0,1
81 500 m 1,16,17
 156 500 l 1,18,19
 156 400 l 1,20,21
 194 400 l 1,22,23
 194 500 l 1,24,25
 381 500 l 1,26,27
 381 400 l 1,28,29
 419 400 l 1,30,31
 419 100 l 1,32,33
 381 100 l 1,34,35
 381 0 l 1,36,37
 194 0 l 1,38,39
 194 100 l 1,40,41
 156 100 l 1,42,43
 156 -200 l 1,44,45
 81 -200 l 1,46,47
 81 500 l 1,16,17
EndSplineSet
Validated: 5
EndChar

StartChar: uni0441
Encoding: 1089 1089 302
Width: 450
GlyphClass: 2
Flags: W
LayerCount: 2
Back
Fore
SplineSet
156 500 m 1,0,1
 419 500 l 1,2,3
 419 400 l 1,4,5
 194 400 l 1,6,7
 194 300 l 1,8,9
 156 300 l 1,10,11
 156 200 l 1,12,13
 194 200 l 1,14,15
 194 100 l 1,16,17
 419 100 l 1,18,19
 419 0 l 1,20,21
 156 0 l 1,22,23
 156 100 l 1,24,25
 119 100 l 1,26,27
 119 200 l 1,28,29
 81 200 l 1,30,31
 81 300 l 1,32,33
 119 300 l 1,34,35
 119 400 l 1,36,37
 156 400 l 1,38,39
 156 500 l 1,0,1
EndSplineSet
Validated: 1
EndChar

StartChar: uni0442
Encoding: 1090 1090 303
Width: 450
GlyphClass: 2
Flags: W
LayerCount: 2
Back
Fore
SplineSet
38 500 m 1,0,1
 412 500 l 1,2,3
 412 400 l 1,4,5
 262 400 l 1,6,7
 262 0 l 1,8,9
 188 0 l 1,10,11
 188 400 l 1,12,13
 38 400 l 1,14,15
 38 500 l 1,0,1
EndSplineSet
Validated: 1
EndChar

StartChar: uni0443
Encoding: 1091 1091 304
Width: 450
GlyphClass: 2
Flags: W
LayerCount: 2
Back
Fore
SplineSet
81 500 m 1,0,1
 156 500 l 1,2,3
 156 400 l 1,4,5
 194 400 l 1,6,7
 194 300 l 1,8,9
 231 300 l 1,10,11
 231 200 l 1,12,13
 269 200 l 1,14,15
 269 300 l 1,16,17
 306 300 l 1,18,19
 306 400 l 1,20,21
 344 400 l 1,22,23
 344 500 l 1,24,25
 419 500 l 1,26,27
 419 400 l 1,28,29
 381 400 l 1,30,31
 381 300 l 1,32,33
 344 300 l 1,34,35
 344 200 l 1,36,37
 306 200 l 1,38,39
 306 100 l 1,40,41
 269 100 l 1,42,43
 269 0 l 1,44,45
 231 0 l 1,46,47
 231 -100 l 1,48,49
 194 -100 l 1,50,51
 194 -200 l 1,52,53
 81 -200 l 1,54,55
 81 -100 l 1,56,57
 156 -100 l 1,58,59
 156 0 l 1,60,61
 194 0 l 1,62,63
 194 200 l 1,64,65
 156 200 l 1,66,67
 156 300 l 1,68,69
 119 300 l 1,70,71
 119 400 l 1,72,73
 81 400 l 1,74,75
 81 500 l 1,0,1
EndSplineSet
Validated: 1
EndChar

StartChar: uni0444
Encoding: 1092 1092 305
Width: 450
GlyphClass: 2
Flags: W
LayerCount: 2
Back
Fore
SplineSet
188 400 m 1,0,1
 112 400 l 1,2,3
 112 100 l 1,4,5
 188 100 l 1,6,7
 188 400 l 1,0,1
262 400 m 1,8,9
 262 100 l 1,10,11
 338 100 l 1,12,13
 338 400 l 1,14,15
 262 400 l 1,8,9
188 700 m 1,16,17
 262 700 l 1,18,19
 262 500 l 1,20,21
 375 500 l 1,22,23
 375 400 l 1,24,25
 412 400 l 1,26,27
 412 100 l 1,28,29
 375 100 l 1,30,31
 375 0 l 1,32,33
 262 0 l 1,34,35
 262 -200 l 1,36,37
 188 -200 l 1,38,39
 188 0 l 1,40,41
 75 0 l 1,42,43
 75 100 l 1,44,45
 38 100 l 1,46,47
 38 400 l 1,48,49
 75 400 l 1,50,51
 75 500 l 1,52,53
 188 500 l 1,54,55
 188 700 l 1,16,17
EndSplineSet
Validated: 1
EndChar

StartChar: uni0445
Encoding: 1093 1093 306
Width: 450
GlyphClass: 2
Flags: W
LayerCount: 2
Back
Fore
SplineSet
38 500 m 1,0,1
 150 500 l 1,2,3
 150 400 l 1,4,5
 188 400 l 1,6,7
 188 300 l 1,8,9
 262 300 l 1,10,11
 262 400 l 1,12,13
 300 400 l 1,14,15
 300 500 l 1,16,17
 412 500 l 1,18,19
 412 400 l 1,20,21
 338 400 l 1,22,23
 338 300 l 1,24,25
 300 300 l 1,26,27
 300 200 l 1,28,29
 338 200 l 1,30,31
 338 100 l 1,32,33
 412 100 l 1,34,35
 412 0 l 1,36,37
 300 0 l 1,38,39
 300 100 l 1,40,41
 262 100 l 1,42,43
 262 200 l 1,44,45
 188 200 l 1,46,47
 188 100 l 1,48,49
 150 100 l 1,50,51
 150 0 l 1,52,53
 38 0 l 1,54,55
 38 100 l 1,56,57
 112 100 l 1,58,59
 112 200 l 1,60,61
 150 200 l 1,62,63
 150 300 l 1,64,65
 112 300 l 1,66,67
 112 400 l 1,68,69
 38 400 l 1,70,71
 38 500 l 1,0,1
EndSplineSet
Validated: 1
EndChar

StartChar: uni0446
Encoding: 1094 1094 307
Width: 450
GlyphClass: 2
Flags: W
LayerCount: 2
Back
Fore
SplineSet
81 500 m 1,0,1
 156 500 l 1,2,3
 156 100 l 1,4,5
 269 100 l 1,6,7
 269 500 l 1,8,9
 344 500 l 1,10,11
 344 100 l 1,12,13
 419 100 l 1,14,15
 419 -100 l 1,16,17
 344 -100 l 1,18,19
 344 0 l 1,20,21
 81 0 l 1,22,23
 81 500 l 1,0,1
EndSplineSet
Validated: 1
EndChar

StartChar: uni0447
Encoding: 1095 1095 308
Width: 450
GlyphClass: 2
Flags: W
LayerCount: 2
Back
Fore
SplineSet
81 500 m 1,0,1
 156 500 l 1,2,3
 156 300 l 1,4,5
 344 300 l 1,6,7
 344 500 l 1,8,9
 419 500 l 1,10,11
 419 0 l 1,12,13
 344 0 l 1,14,15
 344 200 l 1,16,17
 119 200 l 1,18,19
 119 300 l 1,20,21
 81 300 l 1,22,23
 81 500 l 1,0,1
EndSplineSet
Validated: 1
EndChar

StartChar: uni0448
Encoding: 1096 1096 309
Width: 450
GlyphClass: 2
Flags: W
LayerCount: 2
Back
Fore
SplineSet
38 500 m 1,0,1
 112 500 l 1,2,3
 112 100 l 1,4,5
 188 100 l 1,6,7
 188 500 l 1,8,9
 262 500 l 1,10,11
 262 100 l 1,12,13
 338 100 l 1,14,15
 338 500 l 1,16,17
 412 500 l 1,18,19
 412 0 l 1,20,21
 38 0 l 1,22,23
 38 500 l 1,0,1
EndSplineSet
Validated: 1
EndChar

StartChar: uni0449
Encoding: 1097 1097 310
Width: 450
GlyphClass: 2
Flags: W
LayerCount: 2
Back
Fore
SplineSet
44 500 m 1,0,1
 119 500 l 1,2,3
 119 100 l 1,4,5
 194 100 l 1,6,7
 194 500 l 1,8,9
 269 500 l 1,10,11
 269 100 l 1,12,13
 344 100 l 1,14,15
 344 500 l 1,16,17
 419 500 l 1,18,19
 419 100 l 1,20,21
 456 100 l 1,22,23
 456 -100 l 1,24,25
 381 -100 l 1,26,27
 381 0 l 1,28,29
 44 0 l 1,30,31
 44 500 l 1,0,1
EndSplineSet
Validated: 1
EndChar

StartChar: uni044A
Encoding: 1098 1098 311
Width: 450
GlyphClass: 2
Flags: W
LayerCount: 2
Back
Fore
SplineSet
188 200 m 1,0,1
 188 100 l 1,2,3
 338 100 l 1,4,5
 338 200 l 1,6,7
 188 200 l 1,0,1
38 500 m 1,8,9
 188 500 l 1,10,11
 188 300 l 1,12,13
 375 300 l 1,14,15
 375 200 l 1,16,17
 412 200 l 1,18,19
 412 100 l 1,20,21
 375 100 l 1,22,23
 375 0 l 1,24,25
 112 0 l 1,26,27
 112 400 l 1,28,29
 38 400 l 1,30,31
 38 500 l 1,8,9
EndSplineSet
Validated: 1
EndChar

StartChar: uni044B
Encoding: 1099 1099 312
Width: 450
GlyphClass: 2
Flags: W
LayerCount: 2
Back
Fore
SplineSet
338 0 m 1,0,1
 338 500 l 1,2,3
 412 500 l 1,4,5
 412 0 l 1,6,7
 338 0 l 1,0,1
112 200 m 1,8,9
 112 100 l 1,10,11
 225 100 l 1,12,13
 225 200 l 1,14,15
 112 200 l 1,8,9
38 500 m 1,16,17
 112 500 l 1,18,19
 112 300 l 1,20,21
 262 300 l 1,22,23
 262 200 l 1,24,25
 300 200 l 1,26,27
 300 100 l 1,28,29
 262 100 l 1,30,31
 262 0 l 1,32,33
 38 0 l 1,34,35
 38 500 l 1,16,17
EndSplineSet
Validated: 1
EndChar

StartChar: uni044C
Encoding: 1100 1100 313
Width: 450
GlyphClass: 2
Flags: W
LayerCount: 2
Back
Fore
SplineSet
156 100 m 1,0,1
 344 100 l 1,2,3
 344 200 l 1,4,5
 156 200 l 1,6,7
 156 100 l 1,0,1
81 500 m 1,8,9
 156 500 l 1,10,11
 156 300 l 1,12,13
 381 300 l 1,14,15
 381 200 l 1,16,17
 419 200 l 1,18,19
 419 100 l 1,20,21
 381 100 l 1,22,23
 381 0 l 1,24,25
 81 0 l 1,26,27
 81 500 l 1,8,9
EndSplineSet
Validated: 1
EndChar

StartChar: uni044D
Encoding: 1101 1101 314
Width: 450
GlyphClass: 2
Flags: W
LayerCount: 2
Back
Fore
SplineSet
81 300 m 1,0,1
 81 400 l 1,2,3
 119 400 l 1,4,5
 119 500 l 1,6,7
 381 500 l 1,8,9
 381 400 l 1,10,11
 419 400 l 1,12,13
 419 100 l 1,14,15
 381 100 l 1,16,17
 381 0 l 1,18,19
 119 0 l 1,20,21
 119 100 l 1,22,23
 81 100 l 1,24,25
 81 200 l 1,26,27
 156 200 l 1,28,29
 156 100 l 1,30,31
 344 100 l 1,32,33
 344 200 l 1,34,35
 231 200 l 1,36,37
 231 300 l 1,38,39
 344 300 l 1,40,41
 344 400 l 1,42,43
 156 400 l 1,44,45
 156 300 l 1,46,47
 81 300 l 1,0,1
EndSplineSet
Validated: 1
EndChar

StartChar: uni044E
Encoding: 1102 1102 315
Width: 450
GlyphClass: 2
Flags: W
LayerCount: 2
Back
Fore
SplineSet
269 100 m 1,0,1
 344 100 l 1,2,3
 344 400 l 1,4,5
 269 400 l 1,6,7
 269 100 l 1,0,1
81 0 m 1,8,9
 81 500 l 1,10,11
 156 500 l 1,12,13
 156 300 l 1,14,15
 194 300 l 1,16,17
 194 400 l 1,18,19
 231 400 l 1,20,21
 231 500 l 1,22,23
 381 500 l 1,24,25
 381 400 l 1,26,27
 419 400 l 1,28,29
 419 100 l 1,30,31
 381 100 l 1,32,33
 381 0 l 1,34,35
 231 0 l 1,36,37
 231 100 l 1,38,39
 194 100 l 1,40,41
 194 200 l 1,42,43
 156 200 l 1,44,45
 156 0 l 1,46,47
 81 0 l 1,8,9
EndSplineSet
Validated: 1
EndChar

StartChar: uni044F
Encoding: 1103 1103 316
Width: 450
GlyphClass: 2
Flags: W
LayerCount: 2
Back
Fore
SplineSet
106 400 m 1,0,1
 106 300 l 1,2,3
 294 300 l 1,4,5
 294 400 l 1,6,7
 106 400 l 1,0,1
31 400 m 1,8,9
 69 400 l 1,10,11
 69 500 l 1,12,13
 369 500 l 1,14,15
 369 0 l 1,16,17
 294 0 l 1,18,19
 294 200 l 1,20,21
 256 200 l 1,22,23
 256 100 l 1,24,25
 181 100 l 1,26,27
 181 0 l 1,28,29
 69 0 l 1,30,31
 69 100 l 1,32,33
 144 100 l 1,34,35
 144 200 l 1,36,37
 69 200 l 1,38,39
 69 300 l 1,40,41
 31 300 l 1,42,43
 31 400 l 1,8,9
EndSplineSet
Validated: 1
EndChar

StartChar: uni0450
Encoding: 1104 1104 317
Width: 450
GlyphClass: 2
Flags: W
LayerCount: 2
Back
Fore
SplineSet
156 400 m 1,0,1
 156 300 l 1,2,3
 344 300 l 1,4,5
 344 400 l 1,6,7
 156 400 l 1,0,1
119 400 m 1,8,9
 119 500 l 1,10,11
 380 500 l 1,12,13
 380 484 380 484 380.5 450 c 0
 381 416 381 416 381 400 c 1,14,15
 419 400 l 1,16,17
 419 200 l 1,18,19
 156 200 l 1,20,21
 156 100 l 1,22,23
 381 100 l 1,24,25
 381 0 l 1,26,27
 119 0 l 1,28,29
 119 100 l 1,30,31
 81 100 l 1,32,33
 81 400 l 1,34,35
 119 400 l 1,8,9
EndSplineSet
Validated: 1
EndChar

StartChar: uni0451
Encoding: 1105 1105 318
Width: 450
GlyphClass: 2
Flags: W
LayerCount: 2
Back
Fore
SplineSet
306 700 m 1,0,1
 381 700 l 1,2,3
 381 600 l 1,4,5
 306 600 l 1,6,7
 306 700 l 1,0,1
119 700 m 1,8,9
 194 700 l 1,10,11
 194 600 l 1,12,13
 119 600 l 1,14,15
 119 700 l 1,8,9
156 400 m 1,16,17
 156 300 l 1,18,19
 344 300 l 1,20,21
 344 400 l 1,22,23
 156 400 l 1,16,17
119 400 m 1,24,25
 119 416 119 416 119.5 450 c 0
 120 484 120 484 120 500 c 1,26,27
 380 500 l 1,28,29
 380 484 380 484 380.5 450 c 0
 381 416 381 416 381 400 c 1,30,31
 419 400 l 1,32,33
 419 200 l 1,34,35
 156 200 l 1,36,37
 156 100 l 1,38,39
 381 100 l 1,40,41
 381 0 l 1,42,43
 119 0 l 1,44,45
 119 100 l 1,46,47
 81 100 l 1,48,49
 81 400 l 1,50,51
 119 400 l 1,24,25
EndSplineSet
Validated: 1
EndChar

StartChar: uni0452
Encoding: 1106 1106 319
Width: 450
GlyphClass: 2
Flags: W
LayerCount: 2
Back
Fore
SplineSet
69 0 m 1,0,1
 69 500 l 1,2,3
 -6 500 l 1,4,5
 -6 600 l 1,6,7
 69 600 l 1,8,9
 69 700 l 1,10,11
 144 700 l 1,12,13
 144 600 l 1,14,15
 256 600 l 1,16,17
 256 500 l 1,18,19
 144 500 l 1,20,21
 144 400 l 1,22,23
 369 400 l 1,24,25
 369 300 l 1,26,27
 406 300 l 1,28,29
 406 0 l 1,30,31
 369 0 l 1,32,33
 369 -100 l 1,34,35
 331 -100 l 1,36,37
 331 -200 l 1,38,39
 181 -200 l 1,40,41
 181 -100 l 1,42,43
 294 -100 l 1,44,45
 294 0 l 1,46,47
 331 0 l 1,48,49
 331 300 l 1,50,51
 144 300 l 1,52,53
 144 0 l 1,54,55
 69 0 l 1,0,1
EndSplineSet
Validated: 1
EndChar

StartChar: uni0453
Encoding: 1107 1107 320
Width: 450
GlyphClass: 2
Flags: W
LayerCount: 2
Back
Fore
SplineSet
194 600 m 1,0,1
 194 700 l 1,2,3
 231 700 l 1,4,5
 231 800 l 1,6,7
 306 800 l 1,8,9
 306 700 l 1,10,11
 269 700 l 1,12,13
 269 600 l 1,14,15
 194 600 l 1,0,1
81 0 m 1,16,17
 81 500 l 1,18,19
 419 500 l 1,20,21
 419 401 l 1,22,23
 375 401 375 401 287.5 400.5 c 0
 200 400 200 400 156 400 c 1,24,25
 156 0 l 1,26,27
 81 0 l 1,16,17
EndSplineSet
Validated: 1
EndChar

StartChar: uni0454
Encoding: 1108 1108 321
Width: 450
GlyphClass: 2
Flags: W
LayerCount: 2
Back
Fore
SplineSet
344 100 m 1,0,1
 344 200 l 1,2,3
 419 200 l 1,4,5
 419 100 l 1,6,7
 381 100 l 1,8,9
 381 0 l 1,10,11
 119 0 l 1,12,13
 119 100 l 1,14,15
 81 100 l 1,16,17
 81 400 l 1,18,19
 119 400 l 1,20,21
 119 500 l 1,22,23
 381 500 l 1,24,25
 381 400 l 1,26,27
 419 400 l 1,28,29
 419 300 l 1,30,31
 344 300 l 1,32,33
 344 400 l 1,34,35
 156 400 l 1,36,37
 156 300 l 1,38,39
 269 300 l 1,40,41
 269 200 l 1,42,43
 156 200 l 1,44,45
 156 100 l 1,46,47
 344 100 l 1,0,1
EndSplineSet
Validated: 1
EndChar

StartChar: uni0455
Encoding: 1109 1109 322
Width: 450
GlyphClass: 2
Flags: W
LayerCount: 2
Back
Fore
SplineSet
381 400 m 1,0,1
 156 400 l 1,2,3
 156 300 l 1,4,5
 381 300 l 1,6,7
 381 200 l 1,8,9
 419 200 l 1,10,11
 419 100 l 1,12,13
 381 100 l 1,14,15
 381 0 l 1,16,17
 119 0 l 1,18,19
 119 100 l 1,20,21
 344 100 l 1,22,23
 344 200 l 1,24,25
 119 200 l 1,26,27
 119 300 l 1,28,29
 81 300 l 1,30,31
 81 400 l 1,32,33
 119 400 l 1,34,35
 119 500 l 1,36,37
 381 500 l 1,38,39
 381 400 l 1,0,1
EndSplineSet
Validated: 1
EndChar

StartChar: uni0456
Encoding: 1110 1110 323
Width: 450
GlyphClass: 2
Flags: W
LayerCount: 2
Back
Fore
SplineSet
150 500 m 1,0,1
 262 500 l 1,2,3
 262 100 l 1,4,5
 338 100 l 1,6,7
 338 0 l 1,8,9
 112 0 l 1,10,11
 112 100 l 1,12,13
 188 100 l 1,14,15
 188 400 l 1,16,17
 150 400 l 1,18,19
 150 500 l 1,0,1
150 700 m 1,20,21
 262 700 l 1,22,23
 262 600 l 1,24,25
 150 600 l 1,26,27
 150 700 l 1,20,21
EndSplineSet
Validated: 1
EndChar

StartChar: uni0457
Encoding: 1111 1111 324
Width: 450
GlyphClass: 2
Flags: W
LayerCount: 2
Back
Fore
SplineSet
150 500 m 1,0,1
 262 500 l 1,2,3
 262 100 l 1,4,5
 338 100 l 1,6,7
 338 0 l 1,8,9
 112 0 l 1,10,11
 112 100 l 1,12,13
 188 100 l 1,14,15
 188 400 l 1,16,17
 150 400 l 1,18,19
 150 500 l 1,0,1
150 700 m 1,20,21
 262 700 l 1,22,23
 262 600 l 1,24,25
 150 600 l 1,26,27
 150 700 l 1,20,21
EndSplineSet
Validated: 1
EndChar

StartChar: uni0458
Encoding: 1112 1112 325
Width: 450
GlyphClass: 2
Flags: W
LayerCount: 2
Back
Fore
SplineSet
306 400 m 1,0,1
 306 500 l 1,2,3
 419 500 l 1,4,5
 419 -100 l 1,6,7
 381 -100 l 1,8,9
 381 -200 l 1,10,11
 119 -200 l 1,12,13
 119 -100 l 1,14,15
 81 -100 l 1,16,17
 81 0 l 1,18,19
 156 0 l 1,20,21
 156 -100 l 1,22,23
 344 -100 l 1,24,25
 344 400 l 1,26,27
 306 400 l 1,0,1
306 700 m 1,28,29
 418 700 l 1,30,31
 418 684 418 684 418.5 650 c 0
 419 616 419 616 419 600 c 1,32,33
 306 600 l 1,34,35
 306 700 l 1,28,29
EndSplineSet
Validated: 1
EndChar

StartChar: uni0459
Encoding: 1113 1113 326
Width: 450
GlyphClass: 2
Flags: W
LayerCount: 2
Back
Fore
SplineSet
306 100 m 1,0,1
 381 100 l 1,2,3
 381 200 l 1,4,5
 306 200 l 1,6,7
 306 100 l 1,0,1
44 100 m 1,8,9
 81 100 l 1,10,11
 81 400 l 1,12,13
 119 400 l 1,14,15
 119 500 l 1,16,17
 306 500 l 1,18,19
 306 300 l 1,20,21
 419 300 l 1,22,23
 419 200 l 1,24,25
 456 200 l 1,26,27
 456 100 l 1,28,29
 419 100 l 1,30,31
 419 0 l 1,32,33
 231 0 l 1,34,35
 231 400 l 1,36,37
 156 400 l 1,38,39
 156 100 l 1,40,41
 119 100 l 1,42,43
 119 0 l 1,44,45
 44 0 l 1,46,47
 44 100 l 1,8,9
EndSplineSet
Validated: 1
EndChar

StartChar: uni045A
Encoding: 1114 1114 327
Width: 450
GlyphClass: 2
Flags: W
LayerCount: 2
Back
Fore
SplineSet
306 100 m 1,0,1
 381 100 l 1,2,3
 381 200 l 1,4,5
 306 200 l 1,6,7
 306 100 l 1,0,1
44 0 m 1,8,9
 44 500 l 1,10,11
 119 500 l 1,12,13
 119 300 l 1,14,15
 231 300 l 1,16,17
 231 500 l 1,18,19
 306 500 l 1,20,21
 306 300 l 1,22,23
 419 300 l 1,24,25
 419 200 l 1,26,27
 456 200 l 1,28,29
 456 100 l 1,30,31
 419 100 l 1,32,33
 419 0 l 1,34,35
 231 0 l 1,36,37
 231 200 l 1,38,39
 119 200 l 1,40,41
 119 0 l 1,42,43
 44 0 l 1,8,9
EndSplineSet
Validated: 1
EndChar

StartChar: uni045B
Encoding: 1115 1115 328
Width: 450
GlyphClass: 2
Flags: W
LayerCount: 2
Back
Fore
SplineSet
69 0 m 1,0,1
 69 500 l 1,2,3
 -6 500 l 1,4,5
 -6 600 l 1,6,7
 69 600 l 1,8,9
 69 700 l 1,10,11
 144 700 l 1,12,13
 144 600 l 1,14,15
 256 600 l 1,16,17
 256 500 l 1,18,19
 144 500 l 1,20,21
 144 400 l 1,22,23
 369 400 l 1,24,25
 369 300 l 1,26,27
 406 300 l 1,28,29
 406 0 l 1,30,31
 331 0 l 1,32,33
 331 300 l 1,34,35
 144 300 l 1,36,37
 144 0 l 1,38,39
 69 0 l 1,0,1
EndSplineSet
Validated: 1
EndChar

StartChar: uni045C
Encoding: 1116 1116 329
Width: 450
GlyphClass: 2
Flags: W
LayerCount: 2
Back
Fore
SplineSet
194 600 m 1,0,1
 194 700 l 1,2,3
 231 700 l 1,4,5
 231 800 l 1,6,7
 306 800 l 1,8,9
 306 700 l 1,10,11
 269 700 l 1,12,13
 269 600 l 1,14,15
 194 600 l 1,0,1
81 500 m 1,16,17
 156 500 l 1,18,19
 156 300 l 1,20,21
 269 300 l 1,22,23
 269 400 l 1,24,25
 306 400 l 1,26,27
 306 500 l 1,28,29
 419 500 l 1,30,31
 419 400 l 1,32,33
 344 400 l 1,34,35
 344 300 l 1,36,37
 306 300 l 1,38,39
 306 200 l 1,40,41
 344 200 l 1,42,43
 344 100 l 1,44,45
 419 100 l 1,46,47
 419 0 l 1,48,49
 306 0 l 1,50,51
 306 100 l 1,52,53
 269 100 l 1,54,55
 269 200 l 1,56,57
 156 200 l 1,58,59
 156 0 l 1,60,61
 81 0 l 1,62,63
 81 500 l 1,16,17
EndSplineSet
Validated: 1
EndChar

StartChar: uni045D
Encoding: 1117 1117 330
Width: 450
GlyphClass: 2
Flags: W
LayerCount: 2
Back
Fore
SplineSet
231 600 m 1,0,1
 231 700 l 1,2,3
 194 700 l 1,4,5
 194 800 l 1,6,7
 269 800 l 1,8,9
 269 700 l 1,10,11
 306 700 l 1,12,13
 306 600 l 1,14,15
 231 600 l 1,0,1
81 0 m 1,16,17
 81 500 l 1,18,19
 156 500 l 1,20,21
 156 100 l 1,22,23
 194 100 l 1,24,25
 194 200 l 1,26,27
 231 200 l 1,28,29
 231 300 l 1,30,31
 269 300 l 1,32,33
 269 400 l 1,34,35
 306 400 l 1,36,37
 306 500 l 1,38,39
 419 500 l 1,40,41
 419 0 l 1,42,43
 344 0 l 1,44,45
 344 400 l 1,46,47
 306 400 l 1,48,49
 306 300 l 1,50,51
 269 300 l 1,52,53
 269 200 l 1,54,55
 231 200 l 1,56,57
 231 100 l 1,58,59
 194 100 l 1,60,61
 194 0 l 1,62,63
 81 0 l 1,16,17
EndSplineSet
Validated: 5
EndChar

StartChar: uni045E
Encoding: 1118 1118 331
Width: 450
GlyphClass: 2
Flags: W
LayerCount: 2
Back
Fore
SplineSet
119 800 m 1,0,1
 194 800 l 1,2,3
 194 700 l 1,4,5
 306 700 l 1,6,7
 306 800 l 1,8,9
 381 800 l 1,10,11
 381 700 l 1,12,13
 344 700 l 1,14,15
 344 600 l 1,16,17
 156 600 l 1,18,19
 156 700 l 1,20,21
 119 700 l 1,22,23
 119 800 l 1,0,1
81 500 m 1,24,25
 156 500 l 1,26,27
 156 400 l 1,28,29
 194 400 l 1,30,31
 194 300 l 1,32,33
 231 300 l 1,34,35
 231 200 l 1,36,37
 269 200 l 1,38,39
 269 300 l 1,40,41
 306 300 l 1,42,43
 306 400 l 1,44,45
 344 400 l 1,46,47
 344 500 l 1,48,49
 419 500 l 1,50,51
 419 400 l 1,52,53
 381 400 l 1,54,55
 381 300 l 1,56,57
 344 300 l 1,58,59
 344 200 l 1,60,61
 306 200 l 1,62,63
 306 100 l 1,64,65
 269 100 l 1,66,67
 269 0 l 1,68,69
 231 0 l 1,70,71
 231 -100 l 1,72,73
 194 -100 l 1,74,75
 194 -200 l 1,76,77
 81 -200 l 1,78,79
 81 -100 l 1,80,81
 156 -100 l 1,82,83
 156 0 l 1,84,85
 194 0 l 1,86,87
 194 200 l 1,88,89
 156 200 l 1,90,91
 156 300 l 1,92,93
 119 300 l 1,94,95
 119 400 l 1,96,97
 81 400 l 1,98,99
 81 500 l 1,24,25
EndSplineSet
Validated: 1
EndChar

StartChar: uni045F
Encoding: 1119 1119 332
Width: 450
GlyphClass: 2
Flags: W
LayerCount: 2
Back
Fore
SplineSet
88 500 m 1,0,1
 162 500 l 1,2,3
 162 100 l 1,4,5
 388 100 l 1,6,7
 388 500 l 1,8,9
 462 500 l 1,10,11
 462 0 l 1,12,13
 312 0 l 1,14,15
 312 -200 l 1,16,17
 238 -200 l 1,18,19
 238 0 l 1,20,21
 88 0 l 1,22,23
 88 500 l 1,0,1
EndSplineSet
Validated: 1
EndChar

StartChar: uni0490
Encoding: 1168 1168 333
Width: 450
GlyphClass: 2
Flags: W
LayerCount: 2
Back
Fore
SplineSet
81 0 m 1,0,1
 81 700 l 1,2,3
 344 700 l 1,4,5
 344 800 l 1,6,7
 419 800 l 1,8,9
 419 600 l 1,10,11
 156 600 l 1,12,13
 156 0 l 1,14,15
 81 0 l 1,0,1
EndSplineSet
Validated: 1
EndChar

StartChar: uni0491
Encoding: 1169 1169 334
Width: 450
GlyphClass: 2
Flags: W
LayerCount: 2
Back
Fore
SplineSet
81 0 m 1,0,1
 81 500 l 1,2,3
 344 500 l 1,4,5
 344 600 l 1,6,7
 419 600 l 1,8,9
 419 400 l 1,10,11
 156 400 l 1,12,13
 156 0 l 1,14,15
 81 0 l 1,0,1
EndSplineSet
Validated: 1
EndChar

StartChar: quoteright
Encoding: 8217 8217 335
Width: 450
GlyphClass: 2
Flags: W
LayerCount: 2
Back
Fore
SplineSet
144 400 m 1,0,1
 144 500 l 1,2,3
 181 500 l 1,4,5
 181 600 l 1,6,7
 144 600 l 1,8,9
 144 700 l 1,10,11
 256 700 l 1,12,13
 256 500 l 1,14,15
 219 500 l 1,16,17
 219 400 l 1,18,19
 144 400 l 1,0,1
EndSplineSet
Validated: 1
EndChar

StartChar: quotedblright
Encoding: 8221 8221 336
Width: 450
GlyphClass: 2
Flags: W
LayerCount: 2
Back
Fore
SplineSet
262 400 m 1,0,1
 262 500 l 1,2,3
 300 500 l 1,4,5
 300 600 l 1,6,7
 262 600 l 1,8,9
 262 700 l 1,10,11
 375 700 l 1,12,13
 375 500 l 1,14,15
 338 500 l 1,16,17
 338 400 l 1,18,19
 262 400 l 1,0,1
75 600 m 1,20,21
 75 700 l 1,22,23
 188 700 l 1,24,25
 188 500 l 1,26,27
 150 500 l 1,28,29
 150 400 l 1,30,31
 75 400 l 1,32,33
 75 500 l 1,34,35
 112 500 l 1,36,37
 112 600 l 1,38,39
 75 600 l 1,20,21
EndSplineSet
Validated: 1
EndChar

StartChar: minute
Encoding: 8242 8242 337
Width: 450
GlyphClass: 2
Flags: W
LayerCount: 2
Back
Fore
SplineSet
144 400 m 1,0,1
 144 500 l 1,2,3
 181 500 l 1,4,5
 181 600 l 1,6,7
 144 600 l 1,8,9
 144 700 l 1,10,11
 256 700 l 1,12,13
 256 500 l 1,14,15
 219 500 l 1,16,17
 219 400 l 1,18,19
 144 400 l 1,0,1
EndSplineSet
Validated: 1
EndChar

StartChar: second
Encoding: 8243 8243 338
Width: 450
GlyphClass: 2
Flags: W
LayerCount: 2
Back
Fore
SplineSet
262 400 m 1,0,1
 262 500 l 1,2,3
 300 500 l 1,4,5
 300 600 l 1,6,7
 262 600 l 1,8,9
 262 700 l 1,10,11
 375 700 l 1,12,13
 375 500 l 1,14,15
 338 500 l 1,16,17
 338 400 l 1,18,19
 262 400 l 1,0,1
75 600 m 1,20,21
 75 700 l 1,22,23
 188 700 l 1,24,25
 188 500 l 1,26,27
 150 500 l 1,28,29
 150 400 l 1,30,31
 75 400 l 1,32,33
 75 500 l 1,34,35
 112 500 l 1,36,37
 112 600 l 1,38,39
 75 600 l 1,20,21
EndSplineSet
Validated: 1
EndChar

StartChar: Euro
Encoding: 8364 8364 339
Width: 450
GlyphClass: 2
Flags: W
LayerCount: 2
Back
Fore
SplineSet
188 500 m 1,0,1
 300 500 l 1,2,3
 300 400 l 1,4,5
 150 400 l 1,6,7
 150 300 l 1,8,9
 300 300 l 1,10,11
 300 200 l 1,12,13
 188 200 l 1,14,15
 188 100 l 1,16,17
 338 100 l 1,18,19
 338 200 l 1,20,21
 412 200 l 1,22,23
 412 100 l 1,24,25
 375 100 l 1,26,27
 375 0 l 1,28,29
 150 0 l 1,30,31
 150 100 l 1,32,33
 112 100 l 1,34,35
 112 200 l 1,36,37
 38 200 l 1,38,39
 38 300 l 1,40,41
 75 300 l 1,42,43
 75 400 l 1,44,45
 38 400 l 1,46,47
 38 500 l 1,48,49
 112 500 l 1,50,51
 112 600 l 1,52,53
 150 600 l 1,54,55
 150 700 l 1,56,57
 375 700 l 1,58,59
 375 600 l 1,60,61
 412 600 l 1,62,63
 412 500 l 1,64,65
 338 500 l 1,66,67
 338 600 l 1,68,69
 188 600 l 1,70,71
 188 500 l 1,0,1
EndSplineSet
Validated: 1
EndChar

StartChar: uni20B4
Encoding: 8372 8372 340
Width: 450
GlyphClass: 2
Flags: W
LayerCount: 2
Back
Fore
SplineSet
81 500 m 1,0,1
 81 600 l 1,2,3
 119 600 l 1,4,5
 119 700 l 1,6,7
 381 700 l 1,8,9
 381 600 l 1,10,11
 419 600 l 1,12,13
 419 400 l 1,14,15
 381 400 l 1,16,17
 381 300 l 1,18,19
 156 300 l 1,20,21
 156 100 l 1,22,23
 344 100 l 1,24,25
 344 200 l 1,26,27
 419 200 l 1,28,29
 419 100 l 1,30,31
 381 100 l 1,32,33
 381 0 l 1,34,35
 119 0 l 1,36,37
 119 100 l 1,38,39
 81 100 l 1,40,41
 81 300 l 1,42,43
 119 300 l 1,44,45
 119 400 l 1,46,47
 344 400 l 1,48,49
 344 600 l 1,50,51
 156 600 l 1,52,53
 156 500 l 1,54,55
 81 500 l 1,0,1
EndSplineSet
Validated: 1
EndChar

StartChar: uni20B8
Encoding: 8376 8376 341
Width: 450
GlyphClass: 2
Flags: W
LayerCount: 2
Back
Fore
SplineSet
38 500 m 1,0,1
 412 500 l 1,2,3
 412 400 l 1,4,5
 262 400 l 1,6,7
 262 0 l 1,8,9
 188 0 l 1,10,11
 188 400 l 1,12,13
 38 400 l 1,14,15
 38 500 l 1,0,1
38 600 m 1,16,17
 38 700 l 1,18,19
 412 700 l 1,20,21
 412 600 l 1,22,23
 38 600 l 1,16,17
EndSplineSet
Validated: 1
EndChar

StartChar: uni20BD
Encoding: 8381 8381 342
Width: 450
GlyphClass: 2
Flags: W
LayerCount: 2
Back
Fore
SplineSet
144 400 m 1,0,1
 331 400 l 1,2,3
 331 600 l 1,4,5
 144 600 l 1,6,7
 144 400 l 1,0,1
69 700 m 1,8,9
 369 700 l 1,10,11
 369 650 l 1,12,13
 406 650 l 1,14,15
 406 400 l 1,16,17
 369 400 l 1,18,19
 369 300 l 1,20,21
 144 300 l 1,22,23
 144 250 l 1,24,25
 294 250 l 1,26,27
 294 150 l 1,28,29
 144 150 l 1,30,31
 144 0 l 1,32,33
 69 0 l 1,34,35
 69 150 l 1,36,37
 -6 150 l 1,38,39
 -6 250 l 1,40,41
 69 250 l 1,42,43
 69 300 l 1,44,45
 -6 300 l 1,46,47
 -6 400 l 1,48,49
 69 400 l 1,50,51
 69 700 l 1,8,9
EndSplineSet
Validated: 1
EndChar

StartChar: uni2116
Encoding: 8470 8470 343
Width: 450
GlyphClass: 2
Flags: W
LayerCount: 2
Back
Fore
SplineSet
262 300 m 1,0,1
 450 300 l 1,2,3
 450 200 l 1,4,5
 262 200 l 1,6,7
 262 300 l 1,0,1
338 600 m 1,8,9
 338 500 l 1,10,11
 375 500 l 1,12,13
 375 600 l 1,14,15
 338 600 l 1,8,9
300 600 m 1,16,17
 300 700 l 1,18,19
 412 700 l 1,20,21
 412 600 l 1,22,23
 450 600 l 1,24,25
 450 500 l 1,26,27
 412 500 l 1,28,29
 412 400 l 1,30,31
 300 400 l 1,32,33
 300 500 l 1,34,35
 262 500 l 1,36,37
 262 600 l 1,38,39
 300 600 l 1,16,17
0 0 m 1,40,41
 0 700 l 1,42,43
 75 700 l 1,44,45
 75 600 l 1,46,47
 112 600 l 1,48,49
 112 400 l 1,50,51
 150 400 l 1,52,53
 150 700 l 1,54,55
 225 700 l 1,56,57
 225 0 l 1,58,59
 150 0 l 1,60,61
 150 100 l 1,62,63
 112 100 l 1,64,65
 112 250 l 1,66,67
 75 250 l 1,68,69
 75 0 l 1,70,71
 0 0 l 1,40,41
EndSplineSet
Validated: 1
EndChar

StartChar: trademark
Encoding: 8482 8482 344
Width: 900
GlyphClass: 2
Flags: W
LayerCount: 2
Back
Fore
SplineSet
531 400 m 1,0,1
 531 700 l 1,2,3
 644 700 l 1,4,5
 644 600 l 1,6,7
 719 600 l 1,8,9
 719 700 l 1,10,11
 831 700 l 1,12,13
 831 400 l 1,14,15
 756 400 l 1,16,17
 756 600 l 1,18,19
 719 600 l 1,20,21
 719 500 l 1,22,23
 644 500 l 1,24,25
 644 600 l 1,26,27
 606 600 l 1,28,29
 606 400 l 1,30,31
 531 400 l 1,0,1
269 600 m 1,32,33
 269 701 l 1,34,35
 306 701 306 701 381 700.5 c 0
 456 700 456 700 494 700 c 1,36,37
 494 600 l 1,38,39
 419 600 l 1,40,41
 419 400 l 1,42,43
 344 400 l 1,44,45
 344 600 l 1,46,47
 269 600 l 1,32,33
EndSplineSet
Validated: 5
EndChar

StartChar: uni2139
Encoding: 8505 8505 345
Width: 900
GlyphClass: 2
Flags: W
LayerCount: 2
Back
Fore
SplineSet
538 100 m 1,0,1
 538 400 l 1,2,3
 612 400 l 1,4,5
 612 100 l 1,6,7
 538 100 l 1,0,1
538 500 m 1,8,9
 538 600 l 1,10,11
 612 600 l 1,12,13
 612 500 l 1,14,15
 538 500 l 1,8,9
800 600 m 1,16,17
 762 600 l 1,18,19
 762 700 l 1,20,21
 388 700 l 1,22,23
 388 600 l 1,24,25
 350 600 l 1,26,27
 350 100 l 1,28,29
 388 100 l 1,30,31
 388 0 l 1,32,33
 762 0 l 1,34,35
 762 100 l 1,36,37
 800 100 l 1,38,39
 800 600 l 1,16,17
275 100 m 1,40,41
 275 600 l 1,42,43
 312 600 l 1,44,45
 312 700 l 1,46,47
 350 700 l 1,48,49
 350 800 l 1,50,51
 800 800 l 1,52,53
 800 700 l 1,54,55
 838 700 l 1,56,57
 838 600 l 1,58,59
 875 600 l 1,60,61
 875 100 l 1,62,63
 838 100 l 1,64,65
 838 0 l 1,66,67
 800 0 l 1,68,69
 800 -100 l 1,70,71
 350 -100 l 1,72,73
 350 0 l 1,74,75
 312 0 l 1,76,77
 312 100 l 1,78,79
 275 100 l 1,40,41
EndSplineSet
Validated: 1
EndChar

StartChar: arrowleft
Encoding: 8592 8592 346
Width: 450
GlyphClass: 2
Flags: W
LayerCount: 2
Back
Fore
SplineSet
238 500 m 1,0,1
 238 600 l 1,2,3
 312 600 l 1,4,5
 312 500 l 1,6,7
 275 500 l 1,8,9
 275 400 l 1,10,11
 462 400 l 1,12,13
 462 300 l 1,14,15
 275 300 l 1,16,17
 275 200 l 1,18,19
 312 200 l 1,20,21
 312 100 l 1,22,23
 238 100 l 1,24,25
 238 200 l 1,26,27
 162 200 l 1,28,29
 162 300 l 1,30,31
 88 300 l 1,32,33
 88 400 l 1,34,35
 162 400 l 1,36,37
 162 500 l 1,38,39
 238 500 l 1,0,1
EndSplineSet
Validated: 1
EndChar

StartChar: arrowup
Encoding: 8593 8593 347
Width: 450
GlyphClass: 2
Flags: W
LayerCount: 2
Back
Fore
SplineSet
150 300 m 1,0,1
 75 300 l 1,2,3
 75 400 l 1,4,5
 112 400 l 1,6,7
 112 500 l 1,8,9
 150 500 l 1,10,11
 150 600 l 1,12,13
 188 600 l 1,14,15
 188 700 l 1,16,17
 262 700 l 1,18,19
 262 600 l 1,20,21
 300 600 l 1,22,23
 300 500 l 1,24,25
 338 500 l 1,26,27
 338 400 l 1,28,29
 375 400 l 1,30,31
 375 300 l 1,32,33
 300 300 l 1,34,35
 300 400 l 1,36,37
 262 400 l 1,38,39
 262 0 l 1,40,41
 188 0 l 1,42,43
 188 400 l 1,44,45
 150 400 l 1,46,47
 150 300 l 1,0,1
EndSplineSet
Validated: 1
EndChar

StartChar: arrowright
Encoding: 8594 8594 348
Width: 450
GlyphClass: 2
Flags: W
LayerCount: 2
Back
Fore
SplineSet
181 500 m 1,0,1
 181 600 l 1,2,3
 256 600 l 1,4,5
 256 500 l 1,6,7
 331 500 l 1,8,9
 331 400 l 1,10,11
 406 400 l 1,12,13
 406 300 l 1,14,15
 331 300 l 1,16,17
 331 200 l 1,18,19
 256 200 l 1,20,21
 256 100 l 1,22,23
 181 100 l 1,24,25
 181 200 l 1,26,27
 219 200 l 1,28,29
 219 300 l 1,30,31
 -6 300 l 1,32,33
 -6 400 l 1,34,35
 219 400 l 1,36,37
 219 500 l 1,38,39
 181 500 l 1,0,1
EndSplineSet
Validated: 1
EndChar

StartChar: arrowdown
Encoding: 8595 8595 349
Width: 450
GlyphClass: 2
Flags: W
LayerCount: 2
Back
Fore
SplineSet
188 300 m 1,0,1
 188 700 l 1,2,3
 262 700 l 1,4,5
 262 300 l 1,6,7
 300 300 l 1,8,9
 300 400 l 1,10,11
 375 400 l 1,12,13
 375 300 l 1,14,15
 338 300 l 1,16,17
 338 200 l 1,18,19
 300 200 l 1,20,21
 300 100 l 1,22,23
 262 100 l 1,24,25
 262 0 l 1,26,27
 188 0 l 1,28,29
 188 100 l 1,30,31
 150 100 l 1,32,33
 150 200 l 1,34,35
 112 200 l 1,36,37
 112 300 l 1,38,39
 75 300 l 1,40,41
 75 400 l 1,42,43
 150 400 l 1,44,45
 150 300 l 1,46,47
 188 300 l 1,0,1
EndSplineSet
Validated: 1
EndChar

StartChar: arrowboth
Encoding: 8596 8596 350
Width: 900
GlyphClass: 2
Flags: W
LayerCount: 2
Back
Fore
SplineSet
225 300 m 1,0,1
 225 400 l 1,2,3
 300 400 l 1,4,5
 300 500 l 1,6,7
 375 500 l 1,8,9
 375 600 l 1,10,11
 450 600 l 1,12,13
 450 500 l 1,14,15
 375 500 l 1,16,17
 375 400 l 1,18,19
 675 400 l 1,20,21
 675 500 l 1,22,23
 600 500 l 1,24,25
 600 600 l 1,26,27
 675 600 l 1,28,29
 675 500 l 1,30,31
 750 500 l 1,32,33
 750 400 l 1,34,35
 825 400 l 1,36,37
 825 300 l 1,38,39
 750 300 l 1,40,41
 750 200 l 1,42,43
 675 200 l 1,44,45
 675 100 l 1,46,47
 600 100 l 1,48,49
 600 200 l 1,50,51
 675 200 l 1,52,53
 675 300 l 1,54,55
 375 300 l 1,56,57
 375 200 l 1,58,59
 450 200 l 1,60,61
 450 100 l 1,62,63
 375 100 l 1,64,65
 375 200 l 1,66,67
 300 200 l 1,68,69
 300 300 l 1,70,71
 225 300 l 1,0,1
EndSplineSet
Validated: 5
EndChar

